<svg width="30" height="30" viewBox="0 0 30 30" fill="none" xmlns="http://www.w3.org/2000/svg">
<path d="M15.9336 11.7004C15.9376 11.6936 15.9423 11.6936 15.9479 11.7004L15.9395 11.7072L15.9336 11.7004Z" fill="#0124DD"/>
<path d="M9.0409 14.0077C9.1276 13.7455 9.2098 13.4977 9.2902 13.252C9.3001 13.222 9.3202 13.2151 9.3463 13.2103C9.7804 13.1293 10.2163 13.0603 10.6597 13.0822C10.9726 13.0969 11.2735 13.1608 11.5429 13.3288C11.9083 13.5562 12.0754 13.8988 12.0991 14.3188C12.1129 14.5603 12.0736 14.7988 12.0391 15.0352C11.9674 15.517 11.8936 15.9982 11.8243 16.48C11.8224 16.5002 11.8151 16.5196 11.8032 16.536C11.7913 16.5524 11.7751 16.5653 11.7565 16.5733C11.4739 16.7284 11.1673 16.8133 10.8523 16.8649C10.4625 16.9325 10.0649 16.9426 9.6721 16.8949C9.3448 16.8538 9.0397 16.7521 8.8021 16.5115C8.69899 16.406 8.61894 16.2801 8.56705 16.1419C8.51515 16.0038 8.49253 15.8564 8.50063 15.709C8.50872 15.5617 8.54736 15.4176 8.61407 15.2859C8.68079 15.1543 8.77414 15.038 8.8882 14.9443C9.1318 14.7439 9.4198 14.6443 9.7231 14.5798C10.1824 14.4826 10.6459 14.4958 11.1097 14.5312C11.1676 14.5354 11.1802 14.5177 11.1829 14.4661C11.2036 14.1043 10.9864 13.8445 10.6051 13.7746C10.3405 13.726 10.0807 13.768 9.8209 13.8106C9.55581 13.8542 9.29488 13.9202 9.0409 14.0077ZM10.6633 15.0991C10.4982 15.0981 10.3333 15.1102 10.1701 15.1354C9.9937 15.1654 9.8224 15.2119 9.6802 15.3289C9.5194 15.4612 9.4765 15.6388 9.5083 15.8344C9.5383 16.0129 9.6631 16.1107 9.8248 16.1683C9.89891 16.1944 9.97602 16.211 10.0543 16.2178C10.3435 16.2457 10.6243 16.1953 10.9033 16.1263C10.9222 16.1238 10.9396 16.1145 10.9521 16.1001C10.9646 16.0856 10.9713 16.0671 10.9711 16.048C11.0092 15.7645 11.047 15.4807 11.089 15.1978C11.0962 15.1489 11.08 15.1396 11.0392 15.1318C10.9149 15.1113 10.7893 15.1004 10.6633 15.0991Z" fill="#114185"/>
<path d="M22.4343 15.9843C22.3863 16.1301 22.3443 16.2606 22.2999 16.3911C22.2645 16.4982 22.2267 16.6044 22.1931 16.7124C22.1899 16.7289 22.1819 16.7441 22.17 16.7561C22.1582 16.768 22.143 16.7762 22.1265 16.7796C21.6675 16.902 21.2025 16.9683 20.7285 16.9086C20.1885 16.8405 19.7421 16.6086 19.4685 16.1133C19.3002 15.8067 19.2468 15.4728 19.2696 15.1287C19.3131 14.4741 19.5858 13.9314 20.0928 13.5111C20.4009 13.2555 20.7603 13.1241 21.1557 13.0851C21.4284 13.0584 21.6996 13.0635 21.9657 13.1376C22.5075 13.2876 22.8687 13.7091 22.938 14.2671C22.9779 14.5878 22.938 14.9028 22.8861 15.2181C22.8798 15.2574 22.86 15.2586 22.83 15.2586C22.6845 15.2586 22.5387 15.2586 22.3932 15.2586C21.6932 15.2586 20.9932 15.2586 20.2932 15.2586C20.2368 15.2586 20.2203 15.2724 20.2194 15.3303C20.2116 15.8019 20.472 16.1133 20.9355 16.1928C21.2781 16.2528 21.6114 16.2009 21.9441 16.1283C22.1105 16.0911 22.2743 16.043 22.4343 15.9843ZM21.2103 14.6463H21.8823C22.0875 14.6463 22.0875 14.6463 22.0944 14.4411C22.1085 14.0256 21.8544 13.7547 21.4413 13.7316C20.9472 13.7037 20.4813 14.0616 20.3613 14.5926C20.3514 14.6367 20.3613 14.6475 20.4063 14.6472C20.6736 14.6451 20.9403 14.6463 21.2103 14.6463Z" fill="#114185"/>
<path d="M24.1589 16.92C23.7184 16.9171 23.2811 16.8442 22.8635 16.704C22.8218 16.6896 22.8107 16.6776 22.8257 16.6323C22.8943 16.4245 22.96 16.2157 23.0228 16.0059C23.0384 15.9543 23.0567 15.9585 23.0981 15.9783C23.4992 16.1745 23.9523 16.2384 24.392 16.1607C24.4952 16.145 24.5931 16.1049 24.6776 16.0437C24.7167 16.0166 24.7492 15.9811 24.7728 15.9397C24.7964 15.8984 24.8104 15.8523 24.8137 15.8048C24.8171 15.7574 24.8099 15.7097 24.7924 15.6655C24.775 15.6212 24.7478 15.5814 24.713 15.549C24.6367 15.4784 24.5511 15.4187 24.4586 15.3714C24.2291 15.243 23.9957 15.1227 23.7776 14.9739C23.1917 14.5728 23.2631 13.7379 23.84 13.3716C24.0956 13.2093 24.3755 13.128 24.6728 13.0971C25.1684 13.0458 25.6475 13.1307 26.1197 13.2729C26.1629 13.2858 26.174 13.2975 26.1575 13.3434C26.0864 13.5405 26.0177 13.7388 25.9532 13.9383C25.9361 13.9908 25.9157 13.9869 25.8752 13.9683C25.5798 13.8289 25.2564 13.7591 24.9299 13.7643C24.7715 13.7682 24.617 13.7943 24.4829 13.8879C24.4259 13.9242 24.3824 13.9783 24.3591 14.0418C24.3358 14.1052 24.334 14.1746 24.3539 14.2392C24.3797 14.3116 24.4285 14.3737 24.4928 14.4159C24.6317 14.5203 24.7907 14.5908 24.9428 14.6742C25.1289 14.7714 25.3065 14.884 25.4738 15.0108C25.9682 15.4032 25.9181 16.1508 25.4438 16.5306C25.1378 16.7751 24.7796 16.8729 24.3986 16.9077C24.3029 16.9161 24.2078 16.9176 24.1589 16.92Z" fill="#114185"/>
<path d="M27.3947 16.9173C26.9601 16.9131 26.5287 16.8409 26.1164 16.7034C26.0687 16.6875 26.0564 16.6734 26.0741 16.623C26.1419 16.4196 26.2061 16.215 26.2685 16.0098C26.2835 15.96 26.2985 15.9528 26.3471 15.9762C26.7465 16.1706 27.1969 16.2346 27.6347 16.1592C27.7285 16.1444 27.8184 16.111 27.899 16.0608C28.0979 15.9339 28.1222 15.7008 27.9542 15.5376C27.8837 15.4742 27.8054 15.4203 27.7211 15.3771C27.4811 15.2409 27.2318 15.1191 27.0059 14.9571C26.4848 14.5806 26.5496 13.8993 26.8682 13.5573C27.083 13.3272 27.3542 13.2036 27.6551 13.1373C28.0544 13.0473 28.4534 13.0689 28.8521 13.1427C29.0201 13.1727 29.1845 13.2183 29.3489 13.2627C29.4035 13.278 29.4233 13.2942 29.4002 13.3566C29.3309 13.5447 29.2679 13.7349 29.2067 13.9266C29.1896 13.9791 29.1725 13.9866 29.1209 13.9641C28.8295 13.8272 28.511 13.7576 28.1891 13.7604C28.0391 13.7631 27.8942 13.7853 27.7634 13.8639C27.6395 13.938 27.5768 14.0457 27.5954 14.1939C27.6071 14.2881 27.6638 14.3538 27.7352 14.4078C27.8852 14.5215 28.0577 14.5965 28.2209 14.6865C28.4069 14.7894 28.5905 14.8965 28.7528 15.0348C29.2076 15.4248 29.1563 16.1478 28.7 16.5198C28.4549 16.7199 28.1705 16.8237 27.8636 16.8774C27.7085 16.9026 27.5518 16.9159 27.3947 16.9173Z" fill="#114185"/>
<path d="M15.5104 16.0358C15.4951 16.1258 15.4564 16.2065 15.4279 16.2914C15.3736 16.4531 15.3157 16.6133 15.262 16.7753C15.2581 16.7915 15.2491 16.806 15.2364 16.8168C15.2237 16.8276 15.2079 16.834 15.1912 16.8353C14.8312 16.8953 14.4673 16.9334 14.1016 16.9058C13.5559 16.8647 13.0879 16.6658 12.7663 16.2008C12.5395 15.8732 12.4594 15.5009 12.4795 15.1088C12.5131 14.4548 12.7903 13.9196 13.3012 13.5098C13.594 13.2752 13.9384 13.16 14.3053 13.112C14.7595 13.0476 15.222 13.0752 15.6652 13.1933C15.7498 13.2164 15.8314 13.2488 15.9145 13.2758C15.9445 13.2854 15.9523 13.2983 15.9412 13.331C15.8704 13.538 15.8002 13.7456 15.7339 13.9541C15.7192 14 15.6985 13.9907 15.6688 13.979C15.457 13.8921 15.2327 13.8395 15.0043 13.8233C14.5102 13.7954 14.0806 13.9313 13.7722 14.3426C13.4833 14.7281 13.4386 15.3683 13.7479 15.7553C13.9402 15.9953 14.194 16.1225 14.4952 16.1576C14.8201 16.1954 15.1342 16.1327 15.4444 16.0436C15.4642 16.0379 15.4843 16.034 15.5044 16.0292L15.5104 16.0358Z" fill="#114185"/>
<path d="M18.9295 16.03C18.8605 16.2286 18.7813 16.4251 18.7246 16.6279C18.6835 16.7758 18.6142 16.846 18.4528 16.8622C18.0028 16.9072 17.5528 16.9576 17.1028 16.8385C16.3951 16.6504 15.9328 16.0858 15.8944 15.352C15.8524 14.5546 16.1578 13.9174 16.8001 13.4461C17.0701 13.2484 17.3851 13.1548 17.7139 13.1119C18.168 13.0477 18.6303 13.0752 19.0735 13.1929C19.1557 13.2154 19.2346 13.249 19.3165 13.2727C19.3594 13.2853 19.3606 13.3048 19.3465 13.3423C19.2778 13.543 19.2097 13.7437 19.1458 13.9459C19.1305 13.9942 19.1122 13.9924 19.0729 13.9774C18.7585 13.8574 18.4369 13.7923 18.0976 13.8274C17.5213 13.8892 17.0827 14.2702 16.972 14.8309C16.8922 15.2356 16.9654 15.6058 17.2879 15.8923C17.545 16.1203 17.8579 16.1839 18.1912 16.1644C18.4264 16.1489 18.6587 16.1045 18.883 16.0324C18.8965 16.03 18.9085 16.0189 18.9295 16.03Z" fill="#114185"/>
<path d="M7.50077 15.2059L3.76367 11.4688V12.0424L6.92718 15.2059L6.92838 15.2071L4.18817 17.9473L4.18487 17.944L1.44648 15.2059L1.44408 15.2035L2.78838 13.8592H2.20488L0.859375 15.2047L0.860575 15.2059L4.18368 18.529L4.18487 18.5278L7.50378 15.2089L7.50077 15.2059Z" fill="#FE6309"/>
<path d="M3.76313 12.4375V13.0111L5.95943 15.2074L4.19003 16.9768L2.41913 15.2062L2.41673 15.2038L3.76103 13.8595H3.17753L1.83203 15.205L1.83323 15.2062L3.89693 17.2699L4.18553 17.5585L4.47893 17.2654L6.53483 15.2092L3.76313 12.4375Z" fill="#FE6309"/>
<path d="M5.56496 15.209L4.46906 14.1119L4.17746 13.8203L3.89066 14.1071L2.78906 15.2078L3.89126 16.31L4.17986 16.5986L4.47266 16.3055L5.56796 15.212L5.56496 15.209ZM4.18496 16.019L3.37496 15.209L3.37256 15.2066L4.18046 14.3987L4.99046 15.2087L4.18496 16.019Z" fill="#FE6309"/>
</svg>
