<svg width="24" height="25" viewBox="0 0 24 25" fill="none" xmlns="http://www.w3.org/2000/svg">
<g clip-path="url(#clip0)">
<path fill-rule="evenodd" clip-rule="evenodd" d="M0 0H24V24.2892H0V0Z" fill="#D94F00"/>
<path fill-rule="evenodd" clip-rule="evenodd" d="M13.6554 4.70703H19.8078V10.8719H13.6554V4.70703ZM6.21747 13.9902V14.5933H7.27785V17.7839H8.009V14.5689H8.99626V13.9658L6.21747 13.9906V13.9902ZM5.67138 14.7379V14.1348C5.0848 13.8696 4.41024 13.7894 3.71957 14.1348C2.5869 14.6412 2.54642 17.149 3.6795 17.6394C4.3301 17.969 5.68707 17.8162 5.8238 17.5266V15.5413H4.47468V16.0639H5.06869V17.109C3.11688 18.0574 2.75544 13.4999 5.67138 14.7379ZM10.1855 16.0316H10.884C11.4624 16.056 11.6152 17.149 10.8601 17.1408H10.1855V16.0316ZM10.1855 14.4966H10.884C11.4624 14.6011 11.2538 15.4612 10.8601 15.4851H10.1855V14.4966ZM9.46263 13.9101V17.7517H11.3822C12.362 17.3981 12.4025 15.8792 11.3822 15.7181C12.322 15.614 12.3703 13.8857 10.7477 13.8857L9.46263 13.9101ZM12.852 14.987V15.5574C13.3658 15.4128 14.4824 15.0109 14.3779 15.8631C13.3981 15.7987 12.7313 15.9755 12.619 16.586C12.4343 17.9046 13.8479 18.033 14.4423 17.382V17.6955H15.1169V15.3806C14.9483 14.633 13.8322 14.5367 12.852 14.987ZM13.422 16.4741C13.5749 16.2729 14.0648 16.2807 14.394 16.3774V16.8838C13.8562 17.4621 12.9887 17.1974 13.4224 16.4736L13.422 16.4741ZM16.5147 15.6702C16.6915 15.4773 17.6313 15.1154 17.7759 15.6702V17.7116H18.5306V15.5496C18.3699 14.6491 17.5103 14.4884 16.4664 15.0993V14.7618H15.7518V17.7278H16.5065L16.5147 15.6702ZM20.9 14.7296L19.9123 16.0556L20.9566 17.6873L21.8641 17.6633L20.7158 16.0961L21.7518 14.7536L20.9004 14.7296H20.9ZM19.0932 13.7568H19.84V17.6873H19.0928V13.7572L19.0932 13.7568Z" fill="white"/>
<path fill-rule="evenodd" clip-rule="evenodd" d="M13.6543 4.70703H19.8067V10.8719H13.6543V4.70703Z" fill="white"/>
</g>
<defs>
<clipPath id="clip0">
<rect width="24" height="24.2892" fill="white"/>
</clipPath>
</defs>
</svg>
