<svg width="32" height="22" viewBox="0 0 32 22" fill="none" xmlns="http://www.w3.org/2000/svg">
<path d="M18.438 9.37192V13.0994H17.357V12.5551C17.2466 12.7442 17.0864 12.8994 16.8939 13.0037C16.6946 13.1086 16.4723 13.1617 16.2471 13.1582C15.7815 13.1582 15.4335 13.0282 15.2031 12.7683C14.9727 12.5084 14.8578 12.1162 14.8583 11.5919V9.37192H15.967V11.6141C15.967 12.065 16.1605 12.2904 16.5476 12.2904C16.7777 12.2904 16.964 12.2121 17.1064 12.0554C17.2488 11.8987 17.3199 11.6928 17.3196 11.4378V9.37192H18.438ZM22.677 7.67188V13.0994H21.5816V12.548C21.4681 12.7397 21.3025 12.8951 21.1041 12.9963C20.888 13.1067 20.6482 13.1622 20.4056 13.1582C20.1028 13.1632 19.8054 13.0773 19.5519 12.9117C19.2961 12.7407 19.0936 12.5012 18.9676 12.2206C18.8279 11.9249 18.758 11.5855 18.758 11.2024C18.758 10.8193 18.8279 10.4824 18.9676 10.1916C19.0934 9.91593 19.2947 9.68146 19.5482 9.51531C19.8044 9.35372 20.1024 9.27084 20.4052 9.27693C20.6425 9.27402 20.877 9.32827 21.0889 9.43511C21.2863 9.5328 21.452 9.68438 21.5668 9.87232V7.67188H22.677ZM21.3628 12.0295C21.5106 11.841 21.5845 11.57 21.5845 11.2165C21.5845 10.8683 21.5097 10.6 21.3602 10.4115C21.2106 10.223 21.0012 10.1287 20.7319 10.1284C20.4572 10.1284 20.244 10.2216 20.0922 10.4078C19.9404 10.5941 19.8645 10.8587 19.8645 11.2017C19.8645 11.5545 19.9404 11.8277 20.0922 12.0214C20.244 12.215 20.4572 12.3119 20.7319 12.3119C21.0047 12.3124 21.215 12.2183 21.3628 12.0295ZM26.916 9.37192V13.0994H25.8202V12.548C25.7067 12.7398 25.541 12.8953 25.3424 12.9963C25.1263 13.1064 24.8866 13.1617 24.6442 13.1575C24.3416 13.1656 24.0434 13.0837 23.7875 12.922C23.5316 12.7603 23.3295 12.5262 23.207 12.2494C23.0673 11.9579 22.9974 11.621 22.9974 11.2386C22.9974 10.8562 23.0673 10.5155 23.207 10.2164C23.3323 9.93442 23.5349 9.69366 23.7913 9.52196C24.0447 9.35699 24.3418 9.27165 24.6442 9.27693C24.8875 9.27303 25.1278 9.33129 25.3424 9.4462C25.5404 9.55144 25.7057 9.70907 25.8202 9.90188V9.37192H26.916ZM25.5999 12.0328C25.7478 11.8466 25.8217 11.577 25.8217 11.2242C25.8217 10.8714 25.7478 10.6004 25.5999 10.4112C25.4521 10.2222 25.2413 10.1278 24.9676 10.1281C24.6939 10.1283 24.4806 10.2265 24.3279 10.4226C24.1761 10.6197 24.1001 10.8918 24.0998 11.239C24.0996 11.5862 24.1744 11.852 24.3242 12.0365C24.4737 12.2201 24.6882 12.312 24.9676 12.3122C25.2418 12.3125 25.4526 12.2195 25.5999 12.0332V12.0328ZM14.6325 13.1519H13.2551L11.7731 11.4619V13.1519H10.6488V7.67188H11.7731V10.9999L13.1878 9.38448H14.5356L12.9346 11.1954L14.6325 13.1519ZM7.5688 13.1538L5.41123 10.6702L6.58943 13.1538H5.77267L4.57082 10.6218L5.07048 13.1538H4.5686L4.06857 10.6181V13.1538H3.87158V7.67188H4.06857V10.4067L4.57562 7.67188H5.07602L4.56675 10.4185L5.79189 7.67188H6.59978L5.37944 10.4086L7.59541 7.67188H8.86157L6.56947 10.5032L8.87229 13.1538H7.5688Z" fill="#41276D"/>
<path d="M27.8462 13.0924C28.1824 13.0924 28.4549 12.8199 28.4549 12.4837C28.4549 12.1475 28.1824 11.875 27.8462 11.875C27.5101 11.875 27.2375 12.1475 27.2375 12.4837C27.2375 12.8199 27.5101 13.0924 27.8462 13.0924Z" fill="#41276D"/>
</svg>
