<svg width="23" height="11" viewBox="0 0 23 11" fill="none" xmlns="http://www.w3.org/2000/svg">
<path d="M0.370063 8.88152L0.201853 9.75622C0.179425 9.8235 0.179425 9.87957 0.179425 9.94686C0.179425 10.1375 0.291565 10.2272 0.448562 10.2272C0.650414 10.2272 0.796197 10.0926 0.852267 9.75622L1.03169 8.88152H1.21112L1.04291 9.75622C0.964408 10.1936 0.751341 10.373 0.437348 10.373C0.179425 10.373 0 10.2384 0 9.93564L0.011214 9.72257L0.168211 8.87031H0.370063V8.88152ZM1.46904 10.373L1.60361 9.62165C1.63725 9.49829 1.63725 9.39737 1.65968 9.30766H1.81667L1.78303 9.50951C1.87275 9.35251 2.01853 9.27401 2.17552 9.27401C2.29888 9.27401 2.43345 9.35251 2.43345 9.56558L2.42223 9.745L2.29888 10.3506H2.10824L2.22038 9.745L2.23159 9.59922C2.23159 9.49829 2.18674 9.4198 2.06338 9.4198C1.94003 9.4198 1.74939 9.56558 1.70453 9.83471L1.60361 10.3506H1.46904V10.373ZM2.82594 10.373L3.02779 9.30766H3.21843L3.01658 10.373H2.82594ZM3.06143 9.00488C3.06143 8.94881 3.12872 8.88152 3.18479 8.88152C3.25207 8.88152 3.29693 8.92638 3.29693 8.99366C3.29693 9.07216 3.25207 9.11702 3.17357 9.11702C3.10629 9.11702 3.06143 9.07216 3.06143 9.00488ZM4.00341 9.0273L3.95856 9.30766H4.20527L4.17162 9.44222H3.92491L3.8352 9.95807C3.81277 10.0254 3.81277 10.0702 3.81277 10.1375C3.81277 10.1936 3.84642 10.2272 3.9137 10.2272H3.9922L3.96977 10.373L3.8352 10.3842C3.67821 10.3842 3.61092 10.2945 3.61092 10.1824L3.62214 9.9805L3.73428 9.44222H3.57728L3.61092 9.30766H3.76792L3.81277 9.07216L4.00341 9.0273ZM5.18089 10.3057C5.10239 10.3506 4.96782 10.3842 4.83325 10.3842C4.5529 10.3842 4.42955 10.1936 4.42955 9.95807C4.42955 9.64408 4.66504 9.27401 5.00146 9.27401C5.20332 9.27401 5.31546 9.39737 5.31546 9.54315C5.31546 9.8235 5.00146 9.902 4.60897 9.87957C4.59776 9.93564 4.60897 10.0254 4.6314 10.0926C4.67626 10.1824 4.75475 10.2272 4.86689 10.2272C4.99025 10.2272 5.07996 10.1824 5.14725 10.1487L5.18089 10.3057ZM4.96782 9.4198C4.79961 9.4198 4.67626 9.58801 4.6314 9.745C4.91175 9.745 5.12482 9.71136 5.12482 9.54315C5.12482 9.46465 5.06875 9.4198 4.96782 9.4198ZM6.72843 8.80302L6.49293 10.0254C6.4705 10.1375 6.44807 10.2608 6.44807 10.3506H6.26865L6.30229 10.1487C6.21258 10.3057 6.0668 10.3842 5.93223 10.3842C5.71916 10.3842 5.61824 10.216 5.61824 9.99171C5.61824 9.62165 5.89859 9.27401 6.26865 9.27401C6.33593 9.27401 6.41443 9.28523 6.45929 9.30766L6.549 8.80302H6.72843ZM6.42565 9.46465C6.392 9.43101 6.33593 9.4198 6.25744 9.4198C6.01073 9.4198 5.79766 9.67772 5.79766 9.95807C5.79766 10.0926 5.85373 10.2272 6.01073 10.2272C6.1453 10.2272 6.32472 10.0702 6.36958 9.83471L6.42565 9.46465ZM7.81619 8.90395C7.91711 8.88152 8.02925 8.87031 8.13018 8.87031C8.28718 8.87031 8.39932 8.90395 8.47782 8.97123C8.5451 9.03852 8.58996 9.11702 8.58996 9.20673C8.58996 9.39737 8.43296 9.54315 8.27596 9.58801C8.42175 9.63286 8.52267 9.745 8.52267 9.91321C8.52267 10.0702 8.44417 10.1824 8.35446 10.2608C8.24232 10.3506 8.07411 10.3842 7.87226 10.3842L7.55826 10.373L7.81619 8.90395ZM7.76012 10.216L7.91711 10.2272C8.13018 10.2272 8.34325 10.1375 8.34325 9.902C8.34325 9.72257 8.19746 9.64408 8.02925 9.64408H7.88347L7.76012 10.216ZM7.89469 9.50951H8.04047C8.24232 9.50951 8.42175 9.39737 8.42175 9.22916C8.42175 9.08337 8.30961 9.0273 8.15261 9.0273L7.99561 9.03852L7.89469 9.50951ZM9.57679 10.373L9.61043 10.1039C9.49829 10.3169 9.3413 10.3954 9.19551 10.3954C9.01609 10.3954 8.90395 10.2384 8.90395 10.059C8.90395 9.67772 9.17309 9.30766 9.63286 9.30766C9.73379 9.30766 9.85714 9.31887 9.92443 9.35251L9.81229 9.902C9.77864 10.0926 9.76743 10.2721 9.76743 10.3842H9.57679V10.373ZM9.70015 9.43101L9.57679 9.4198C9.30766 9.4198 9.07216 9.70015 9.07216 9.99171C9.07216 10.1151 9.11702 10.2272 9.2628 10.2272C9.4198 10.2272 9.58801 10.0254 9.63286 9.745L9.70015 9.43101ZM10.216 10.373L10.3618 9.62165L10.4066 9.30766H10.5636L10.53 9.50951C10.6197 9.35251 10.7655 9.27401 10.9225 9.27401C11.0458 9.27401 11.1916 9.35251 11.1916 9.56558L11.1692 9.745L11.0458 10.3506H10.8552L10.9673 9.745L10.9785 9.59922C10.9785 9.49829 10.9337 9.4198 10.8103 9.4198C10.687 9.4198 10.4963 9.56558 10.4515 9.83471L10.3618 10.3506H10.216V10.373ZM11.5953 10.373L11.8869 8.82545H12.0663L11.8757 9.78986C11.9093 9.75622 11.9542 9.71136 11.9654 9.67772L12.3467 9.30766H12.5597L12.1 9.745L12.4027 10.373H12.2009L11.9542 9.85714L11.8084 9.9805L11.7299 10.3842H11.5953V10.373ZM13.412 10.373L13.5802 9.44222H13.4456L13.4681 9.30766H13.6138L13.6251 9.24037C13.6587 9.08337 13.7036 8.96002 13.8045 8.87031C13.8606 8.80302 13.9615 8.76938 14.0512 8.76938C14.1297 8.76938 14.1745 8.79181 14.197 8.80302L14.1409 8.94881C14.1185 8.92638 14.0848 8.92638 14.04 8.92638C13.8942 8.92638 13.8157 9.07216 13.7821 9.24037V9.30766H14.0176L13.9839 9.44222H13.7596L13.5802 10.373H13.412ZM15.2062 9.72257C15.2062 10.059 14.9707 10.3954 14.6119 10.3954C14.354 10.3954 14.2082 10.1936 14.2082 9.95807C14.2082 9.62165 14.4549 9.28523 14.8025 9.28523C15.0829 9.27401 15.2062 9.49829 15.2062 9.72257ZM14.3988 9.94686C14.3988 10.1151 14.4885 10.2384 14.6455 10.2384C14.8698 10.2384 15.0268 9.95807 15.0268 9.72257C15.0268 9.59922 14.9595 9.43101 14.7689 9.43101C14.5558 9.4198 14.3988 9.70015 14.3988 9.94686ZM15.5427 10.373L15.666 9.67772C15.6997 9.54315 15.7109 9.39737 15.7221 9.30766H15.8791L15.8567 9.54315C15.9127 9.39737 16.0361 9.28523 16.1819 9.28523H16.2267L16.1931 9.46465H16.1482C15.9912 9.46465 15.8567 9.64408 15.8006 9.902L15.7109 10.373H15.5427ZM17.3369 9.902L17.1014 10.373H16.9108L17.6845 8.90395H17.8976L18.1107 10.373H17.92L17.8528 9.902H17.3369ZM17.8415 9.745L17.7743 9.31887C17.763 9.24037 17.763 9.12823 17.7406 9.04973L17.6173 9.31887L17.4042 9.745H17.8415ZM18.4807 10.373L18.649 9.44222H18.5144L18.548 9.30766H18.6826L18.705 9.24037C18.7274 9.08337 18.7835 8.96002 18.8732 8.87031C18.9293 8.80302 19.0302 8.76938 19.1199 8.76938C19.1984 8.76938 19.2433 8.79181 19.2657 8.80302L19.2209 8.94881C19.1872 8.92638 19.1536 8.92638 19.1087 8.92638C18.9629 8.92638 18.8844 9.07216 18.862 9.24037L18.8396 9.28523H19.0751L19.0414 9.43101H18.8059L18.6377 10.3506H18.4807V10.373ZM19.2769 10.373L19.4003 9.67772L19.4676 9.30766H19.6246L19.5909 9.54315C19.6582 9.39737 19.7816 9.28523 19.9161 9.28523H19.9722L19.9386 9.46465H19.8937C19.7367 9.46465 19.5909 9.64408 19.5461 9.902L19.4564 10.373H19.2769ZM20.1741 10.373L20.3759 9.30766H20.5666L20.3647 10.373H20.1741ZM20.4096 9.00488C20.4096 8.94881 20.4544 8.88152 20.5329 8.88152C20.589 8.88152 20.6451 8.92638 20.6451 8.99366C20.6451 9.07216 20.589 9.11702 20.5105 9.11702C20.4544 9.11702 20.4096 9.07216 20.4096 9.00488ZM21.5982 10.3169C21.531 10.3506 21.4188 10.3842 21.2843 10.3842C21.0039 10.3842 20.8805 10.1936 20.8805 9.9805C20.8805 9.62165 21.1385 9.28523 21.5197 9.28523C21.6095 9.28523 21.7104 9.31887 21.7328 9.3413L21.688 9.47587C21.6431 9.46465 21.5982 9.43101 21.5197 9.43101C21.2394 9.43101 21.06 9.70015 21.06 9.94686C21.06 10.1151 21.1609 10.2272 21.3291 10.2272C21.4412 10.2272 21.5197 10.1936 21.5758 10.1599L21.5982 10.3169ZM22.6636 10.373L22.686 10.1039C22.5851 10.3169 22.4281 10.3954 22.2823 10.3954C22.0917 10.3954 21.9907 10.2384 21.9907 10.059C21.9907 9.67772 22.2487 9.30766 22.7196 9.30766C22.8206 9.30766 22.9439 9.31887 23 9.35251L22.8991 9.902C22.8654 10.0926 22.843 10.2721 22.843 10.3842H22.6636V10.373ZM22.7869 9.43101L22.6636 9.4198C22.3944 9.4198 22.1589 9.70015 22.1589 9.99171C22.1589 10.1151 22.2038 10.2272 22.3496 10.2272C22.5066 10.2272 22.6748 10.0254 22.7196 9.745L22.7869 9.43101ZM4.56412 2.60166L3.89127 5.71916C3.68942 6.392 3.31936 6.86299 2.53437 6.89664C1.86153 6.89664 1.59239 6.44807 1.7606 5.50609L2.35495 2.60166H1.36811L0.684057 5.93223C0.560702 7.21063 1.31204 7.56948 2.45588 7.53584C3.54364 7.50219 4.29498 7.00878 4.72111 6.02194L5.47245 2.60166H4.56412ZM12.8737 4.17162L13.2662 5.78645H11.8084L12.8737 4.17162ZM13.1765 2.60166L9.86836 7.4237H10.7655L11.3935 6.49293H13.4569L13.6587 7.4237H14.724L13.5466 2.60166H13.1765ZM16.3949 7.45734H18.2901C19.9946 7.37884 20.3647 6.60507 19.8152 5.31546L17.7406 1.26719L16.3949 7.45734ZM21.0488 0C19.3442 0.0784983 18.9854 0.863481 19.5349 2.14188L21.5982 6.19015L22.9439 0H21.0488ZM6.77328 6.81814L7.12092 5.1921H7.51341C8.08532 5.1921 8.56753 5.39395 8.56753 5.93223C8.56753 6.58264 7.92833 6.85178 7.21063 6.85178L6.77328 6.81814ZM7.52462 3.21843H7.99561C8.51146 3.21843 8.82545 3.34178 8.82545 3.7567C8.82545 4.25012 8.35446 4.56412 7.64798 4.56412H7.25549L7.52462 3.21843ZM6.77328 2.60166L6.69478 2.61287L5.69673 7.44612H7.61433C8.26475 7.44612 8.63481 7.2667 8.88152 7.12092C9.27401 6.86299 9.55436 6.44807 9.65529 5.94344C9.77864 5.25939 9.30766 4.90054 8.72452 4.84447C9.31887 4.7099 9.8235 4.27255 9.85714 3.64456C9.93564 2.60166 8.75817 2.60166 8.75817 2.60166H6.77328Z" fill="#D71920"/>
</svg>
