<svg width="32" height="32" viewBox="0 0 32 32" fill="none" xmlns="http://www.w3.org/2000/svg">
<path d="M9.56318 12.48C9.23326 12.448 8.91198 12.5261 8.58942 12.5706C8.56158 12.5408 8.58622 12.5188 8.59774 12.4999C9.3811 11.2176 10.4633 10.344 11.9629 10.0439C12.4909 9.93634 13.0331 9.91752 13.5673 9.98819C13.7824 10.0173 13.9769 9.93827 14.1808 9.90819C14.3757 9.87939 14.4141 9.90819 14.3161 10.0784C14.1241 10.4125 14.24 10.7389 14.2941 11.0704C14.3888 11.6475 14.4879 12.224 14.5913 12.8C14.6102 12.9069 14.5885 12.9882 14.5113 13.0583C14.3641 13.1924 14.2377 13.362 13.991 13.2804C13.831 13.2279 13.7081 13.1632 13.703 12.9722C13.7007 12.9295 13.6849 12.8886 13.6579 12.8554C13.4413 12.6064 13.2285 12.3527 12.9661 12.1488C12.8109 12.0282 12.7216 12.0448 12.6105 12.2103C12.4848 12.3975 12.4157 12.6116 12.3347 12.8199C12.1427 13.3111 11.9539 13.8026 11.6413 14.2349C11.5792 14.3207 11.5181 14.3588 11.4054 14.3479C10.9775 14.3034 10.5468 14.2915 10.1171 14.312C10.1261 14.3712 10.1648 14.3696 10.2025 14.3744C10.6253 14.4263 11.0473 14.4807 11.4701 14.5316C11.8032 14.5719 12.0141 14.9213 11.8784 15.225C11.6102 15.8106 11.31 16.3809 10.9792 16.9335C10.9373 17.008 10.8758 17.0695 10.8013 17.1114C10.6246 17.2095 10.4489 17.3096 10.2742 17.4116C10.2045 17.4522 10.1587 17.4436 10.1235 17.3661C10.0423 17.1912 10.0118 16.9969 10.0355 16.8055C10.0512 16.6804 10.2573 16.5815 10.4096 16.6151C10.5987 16.6576 10.6851 16.5869 10.6771 16.3911C10.6733 16.2989 10.7177 16.2269 10.7622 16.1552C10.9142 15.9114 11.0704 15.6701 11.2227 15.4263C11.2547 15.3741 11.3149 15.3178 11.2736 15.2541C11.2323 15.1904 11.1568 15.2096 11.095 15.2151C10.8105 15.24 10.5328 15.2612 10.263 15.3914C9.80478 15.6122 9.30302 15.7021 8.80094 15.7716C8.14878 15.8615 7.48606 15.8532 6.8291 15.986C6.85022 15.6884 6.87774 15.4016 6.82718 15.0839C6.75006 15.1773 6.74494 15.2567 6.73598 15.3325C6.62558 16.2832 6.10014 16.9716 5.35134 17.5162C4.89612 17.8437 4.3808 18.0782 3.83486 18.2064C3.4531 18.2996 3.18046 18.5098 2.99166 18.8551C2.77694 19.2477 2.61022 19.665 2.38782 20.0519C2.15518 20.457 1.79774 20.7162 1.32574 20.7898C1.0851 20.8272 1.0467 20.7783 1.11742 20.5447C1.14686 20.4487 1.1843 20.3527 1.21822 20.2586C1.29502 20.0416 1.39326 19.8586 1.67742 19.8938C1.78462 19.9072 1.84254 19.8298 1.8803 19.7277C2.09822 19.1389 2.32478 18.5536 2.54078 17.9642C2.55599 17.9138 2.58296 17.8677 2.61945 17.8298C2.65595 17.7918 2.70093 17.7631 2.7507 17.746C3.0067 17.65 3.2627 17.5607 3.51038 17.4541C3.93854 17.2714 4.06078 17.0701 4.03102 16.6106C4.00638 16.2231 3.95774 15.8359 4.0403 15.4493C4.2051 14.6746 4.7123 14.176 5.37214 13.8036C5.96286 13.4708 6.6115 13.2999 7.26014 13.1316C7.97118 12.9489 8.68179 12.7649 9.39198 12.5796C9.45214 12.5639 9.5107 12.5431 9.5699 12.5248L9.56318 12.48Z" fill="#03B1F0"/>
<path d="M16.0717 19.4912C16.8199 19.4912 17.4045 20.0672 17.3991 20.7959C17.3933 21.5341 16.8013 22.1079 16.0513 22.1024C15.3098 22.097 14.7348 21.5306 14.7341 20.8045C14.7335 20.0647 15.3201 19.4887 16.0717 19.4912ZM15.306 20.7824C15.3041 21.2496 15.6237 21.5959 16.0602 21.5991C16.5063 21.6023 16.8321 21.2659 16.8321 20.8019C16.8321 20.3463 16.498 19.9949 16.0641 19.9927C15.6218 19.9904 15.3079 20.3181 15.306 20.7824Z" fill="#06B4F1"/>
<path d="M11.0633 19.9119C11.2329 19.6921 11.4217 19.5493 11.6774 19.5045C12.2198 19.4085 12.6851 19.7461 12.7129 20.2959C12.7382 20.7948 12.7247 21.2959 12.7209 21.7961C12.7209 21.9631 12.6063 22.0578 12.4409 22.0565C12.2755 22.0553 12.1625 21.957 12.1558 21.7791C12.1481 21.5666 12.1535 21.3535 12.1532 21.1391C12.1532 20.9529 12.1567 20.7663 12.1507 20.5804C12.1391 20.2149 11.9462 20.0073 11.6243 20.0069C11.2934 20.0069 11.0649 20.2309 11.0569 20.5877C11.0483 20.9759 11.0569 21.3647 11.0527 21.7532C11.0511 21.9452 10.951 22.0501 10.7769 22.0543C10.6028 22.0585 10.487 21.9583 10.486 21.7871C10.4815 21.1219 10.4815 20.4566 10.486 19.7913C10.4846 19.721 10.5108 19.6529 10.5589 19.6016C10.6071 19.5504 10.6734 19.52 10.7436 19.517C10.8161 19.5115 10.8879 19.5336 10.9447 19.5788C11.0016 19.624 11.0393 19.689 11.0502 19.7609C11.0572 19.8018 11.0575 19.8409 11.0633 19.9119Z" fill="#06B4F1"/>
<path d="M18.6199 19.9026C18.8784 19.5653 19.1991 19.4338 19.5997 19.5141C19.9757 19.5896 20.2474 19.8856 20.2586 20.2719C20.273 20.7823 20.2663 21.2933 20.2637 21.804C20.2637 21.9589 20.1507 22.0626 20.0003 22.0667C19.9643 22.0686 19.9283 22.0634 19.8943 22.0513C19.8603 22.0393 19.8291 22.0206 19.8023 21.9965C19.7756 21.9723 19.7538 21.9431 19.7384 21.9105C19.723 21.8779 19.7141 21.8426 19.7123 21.8066C19.7015 21.605 19.7085 21.4024 19.7066 21.1986C19.7043 20.9647 19.7133 20.7298 19.6944 20.4971C19.6698 20.1938 19.4909 20.0264 19.2045 20.0079C18.9181 19.9893 18.7011 20.1522 18.6285 20.4325C18.5824 20.6111 18.608 20.7925 18.6048 20.9727C18.6003 21.2287 18.6048 21.4847 18.6032 21.7387C18.6032 21.94 18.4848 22.0687 18.312 22.0651C18.1466 22.0623 18.0336 21.9371 18.033 21.7423C18.0307 21.1199 18.033 20.4971 18.033 19.8747C18.033 19.6485 18.1315 19.5227 18.3072 19.516C18.4829 19.5093 18.5885 19.6277 18.6051 19.8523C18.6086 19.8695 18.6135 19.8863 18.6199 19.9026Z" fill="#05B3F1"/>
<path d="M9.13743 21.7065C9.08655 21.7149 9.0715 21.7533 9.04878 21.7801C8.7803 22.1001 8.38575 22.1491 8.01327 22.0294C7.68111 21.9225 7.48334 21.599 7.48046 21.1974C7.47726 20.7395 7.47854 20.2813 7.48046 19.8233C7.48046 19.6313 7.58382 19.5219 7.75342 19.52C7.9291 19.5181 8.04334 19.6329 8.04558 19.8265C8.0491 20.1673 8.04558 20.5081 8.04558 20.8505C8.04558 20.9145 8.04558 20.9785 8.05006 21.0425C8.07246 21.3827 8.26638 21.5741 8.58478 21.5725C8.90318 21.5709 9.12879 21.36 9.13935 21.0329C9.15151 20.639 9.14511 20.2448 9.14447 19.8489C9.14447 19.6944 9.19886 19.575 9.35406 19.5289C9.54606 19.4717 9.7131 19.6051 9.71407 19.8169C9.71662 20.4614 9.71662 21.1059 9.71407 21.7504C9.71407 21.9369 9.60687 22.0595 9.44655 22.0669C9.28623 22.0742 9.17199 21.9635 9.14543 21.7789C9.14319 21.7565 9.14063 21.7321 9.13743 21.7065Z" fill="#06B4F1"/>
<path d="M0.151033 17.0142C0.114186 16.8532 0.123502 16.685 0.177913 16.529C0.451193 15.6734 1.08255 15.2382 1.91935 15.0436C2.22271 14.9732 2.53087 14.9671 2.83967 14.9748C3.23167 14.9844 3.61567 14.9559 3.97439 14.7777C4.00831 14.7607 4.04895 14.739 4.07839 14.7684C4.11455 14.8046 4.06975 14.8353 4.05151 14.8644C3.95441 15.0043 3.87609 15.1563 3.81855 15.3166C3.78815 15.4058 3.71103 15.4302 3.64255 15.4657C2.94879 15.8247 2.20831 16.0487 1.44991 16.2257C1.18527 16.2878 0.926073 16.3642 0.685433 16.4945C0.459365 16.6104 0.273226 16.7914 0.151033 17.0142Z" fill="#05B3F1"/>
<path d="M12.6139 14.5874C12.5026 14.597 12.387 14.5909 12.2811 14.6194C12.0773 14.6751 11.94 14.5746 11.8011 14.4556C11.7611 14.4216 11.7666 14.3989 11.7883 14.3634C11.8299 14.2952 11.8712 14.2271 11.9102 14.1576C12.0987 13.8236 12.0987 13.8226 12.4834 13.8696C12.7157 13.8978 12.9477 13.9288 13.1797 13.9589C13.4286 13.9909 13.6229 14.3052 13.5221 14.5365C13.2848 15.0897 13.002 15.6222 12.6766 16.1285C12.5323 16.3503 12.2536 16.421 12.027 16.5445C11.9787 16.5711 11.9528 16.517 11.9355 16.4789C11.8653 16.3285 11.8383 16.1616 11.8574 15.9967C11.8722 15.8805 12.043 15.7893 12.1854 15.8143C12.3742 15.8463 12.4299 15.8018 12.4322 15.6063C12.4322 15.5266 12.4712 15.4636 12.5102 15.4008C12.6456 15.1842 12.7851 14.9704 12.9192 14.7532C13.0056 14.6136 12.987 14.5839 12.8213 14.581C12.7842 14.581 12.747 14.5826 12.7096 14.5842C12.6776 14.5842 12.6456 14.5884 12.6136 14.5906L12.6139 14.5874Z" fill="#06B4F1"/>
<path d="M21.4246 20.0799C21.6655 19.7516 21.9686 19.5359 22.3884 19.5385C22.6851 19.5374 22.9702 19.6537 23.1814 19.862C23.6553 20.3171 23.6934 21.1542 23.2614 21.6524C23.1014 21.8387 22.9033 21.9753 22.6623 22.0265C22.4331 22.0814 22.1927 22.0677 21.9711 21.9871C21.7411 21.8991 21.5766 21.7289 21.3875 21.5577C21.3875 21.6511 21.3875 21.7446 21.3875 21.838C21.3875 21.9244 21.3955 22.0255 21.27 22.0207C21.1615 22.0166 21.1596 21.9267 21.1599 21.8425C21.1599 21.5657 21.1599 21.2889 21.1599 21.0105C21.1599 20.382 21.1599 19.7537 21.1599 19.1254C21.1599 19.0828 21.1599 19.0403 21.1615 18.9974C21.166 18.9299 21.2028 18.8844 21.271 18.8838C21.3491 18.8838 21.3811 18.9315 21.3814 19.0086C21.3814 19.3014 21.3849 19.5942 21.3868 19.887C21.3868 19.9439 21.3868 20.0009 21.3868 20.0579L21.4246 20.0799ZM23.3107 20.799C23.3068 20.191 22.9071 19.7561 22.3558 19.7596C21.8044 19.7631 21.3756 20.223 21.3775 20.8089C21.3795 21.3948 21.8175 21.8473 22.3695 21.8467C22.9267 21.846 23.3145 21.415 23.3107 20.799Z" fill="#0AB8F2"/>
<path d="M25.9203 21.6184C25.5162 22.1016 24.9687 22.1304 24.561 21.98C24.2247 21.8555 24.0589 21.6056 24.0656 21.276C24.072 20.9611 24.2544 20.7202 24.5843 20.604C24.9808 20.4622 25.3843 20.5019 25.7811 20.5896C25.9011 20.6158 25.9258 20.5941 25.9223 20.477C25.9098 20.0728 25.6563 19.8091 25.2387 19.7787C24.9827 19.7602 24.726 19.8053 24.4915 19.9099C24.416 19.9419 24.3315 19.9845 24.2899 19.8779C24.2483 19.7714 24.337 19.741 24.4125 19.7099C24.7325 19.5781 25.065 19.5218 25.4115 19.5838C25.8448 19.6616 26.1287 19.9678 26.1402 20.4069C26.1533 20.8962 26.1443 21.3864 26.1456 21.876C26.1456 21.9525 26.1296 22.0216 26.0407 22.0258C25.9418 22.0306 25.9191 21.9598 25.9203 21.8757C25.9203 21.8002 25.9203 21.7275 25.9203 21.6184ZM25.2803 20.7246C24.9981 20.7192 24.8067 20.7246 24.6285 20.8098C24.4365 20.9006 24.3178 21.0459 24.3104 21.2667C24.3031 21.493 24.4064 21.6578 24.6048 21.7547C24.9389 21.9176 25.2675 21.8757 25.5792 21.6936C25.8717 21.523 25.9498 21.2485 25.9287 20.9278C25.9232 20.8472 25.8967 20.8168 25.8218 20.7998C25.6109 20.7576 25.4013 20.725 25.2778 20.7246H25.2803Z" fill="#0AB8F2"/>
<path d="M30.7427 20.8372C30.5559 21.0202 30.3786 21.1962 30.1987 21.369C30.1507 21.4151 30.1437 21.4679 30.1447 21.529C30.1447 21.6516 30.1447 21.7741 30.1447 21.8964C30.1447 21.9725 30.1127 22.0196 30.0314 22.018C29.9501 22.0164 29.9191 21.9687 29.9181 21.8938C29.9181 21.8724 29.9181 21.8513 29.9181 21.8298C29.9181 20.9191 29.9181 20.0083 29.9181 19.0973C29.9163 19.0601 29.9173 19.0227 29.9213 18.9857C29.923 18.9585 29.9351 18.933 29.9551 18.9146C29.9752 18.8963 30.0016 18.8864 30.0288 18.8871C30.0436 18.8858 30.0585 18.8878 30.0724 18.8929C30.0864 18.898 30.099 18.9061 30.1095 18.9166C30.12 18.9272 30.128 18.9399 30.133 18.9538C30.1381 18.9678 30.1399 18.9827 30.1386 18.9975C30.1408 19.0881 30.1443 19.1783 30.1443 19.2689C30.1443 19.8282 30.1443 20.3876 30.1443 20.9469V21.1044C30.2205 21.0957 30.2448 21.0429 30.2794 21.0084C30.6915 20.5845 31.1026 20.1596 31.5127 19.7338C31.5424 19.7018 31.5728 19.6733 31.6019 19.6423C31.6551 19.585 31.7194 19.5549 31.7827 19.6122C31.8515 19.6746 31.8106 19.7367 31.7578 19.7905C31.5933 19.9575 31.4282 20.1239 31.2647 20.2916C31.1456 20.4135 30.9472 20.5284 30.9328 20.6621C30.9168 20.8103 31.1203 20.9389 31.2279 21.0762C31.4154 21.3149 31.6083 21.5492 31.8003 21.7844C31.8535 21.8484 31.9101 21.9284 31.8365 21.9933C31.7559 22.0647 31.6829 22.0026 31.6237 21.9293C31.3312 21.5623 31.0359 21.1991 30.7427 20.8372Z" fill="#0AB8F2"/>
<path d="M27.192 19.9741C27.455 19.6442 27.783 19.5037 28.1936 19.5466C28.6605 19.5949 28.9984 19.9242 29.0169 20.3936C29.0365 20.888 29.0243 21.3837 29.0262 21.8787C29.0262 21.9562 29.0086 22.0189 28.9139 22.0173C28.8109 22.0154 28.7981 21.9447 28.7981 21.8631C28.7981 21.453 28.7981 21.043 28.7981 20.633C28.8003 20.5532 28.7962 20.4734 28.7859 20.3943C28.7174 19.9715 28.4176 19.7293 27.9923 19.7485C27.5574 19.768 27.2125 20.0979 27.1974 20.5341C27.1837 20.9383 27.1933 21.3431 27.1926 21.7479C27.1926 21.7904 27.1926 21.833 27.1926 21.8759C27.1926 21.952 27.1744 22.0154 27.0806 22.0176C26.9869 22.0199 26.9616 21.9632 26.9609 21.8835C26.9609 21.8621 26.9609 21.841 26.9609 21.8195V19.7907C26.9609 19.7642 26.9609 19.7376 26.9609 19.7111C26.9651 19.6407 26.9885 19.5831 27.071 19.5831C27.1609 19.5831 27.1885 19.6435 27.1907 19.7203C27.1939 19.8042 27.192 19.889 27.192 19.9741Z" fill="#0AB8F2"/>
<path d="M14.0686 20.7896C14.0686 21.1096 14.0686 21.4276 14.0686 21.7467C14.0686 21.9454 13.9771 22.0468 13.8024 22.0539C13.6203 22.0609 13.5032 21.9579 13.5016 21.7601C13.4969 21.1116 13.4969 20.4628 13.5016 19.8139C13.5032 19.6286 13.6251 19.5144 13.7876 19.5156C13.9582 19.5156 14.0667 19.6366 14.068 19.8324C14.0702 20.1515 14.0686 20.4705 14.0686 20.7896Z" fill="#06B4F1"/>
<path d="M3.27003 19.7485C3.20603 19.7572 3.16923 19.7031 3.20603 19.5924C3.24123 19.4868 3.28187 19.3828 3.31675 19.2768C3.37275 19.1056 3.46395 18.9888 3.66875 18.9991C3.77595 19.0045 3.84699 18.9424 3.86715 18.8314C3.92795 18.4944 4.11387 18.2762 4.45339 18.1872C4.55899 18.1597 4.65371 18.0912 4.75387 18.0416C4.78139 18.0279 4.80987 18.001 4.84091 18.0256C4.87195 18.0503 4.85019 18.0836 4.83643 18.1104C4.64443 18.49 4.48443 18.8912 4.22843 19.2285C4.01019 19.5133 3.71099 19.7197 3.27003 19.7485Z" fill="#06B4F1"/>
</svg>
