<svg width="14" height="15" viewBox="0 0 14 15" fill="none" xmlns="http://www.w3.org/2000/svg">
<g clip-path="url(#clip0)">
<path fill-rule="evenodd" clip-rule="evenodd" d="M1.41962 4.08644L1.44409 3.98853L1.46857 3.86616L2.54549 -0.000976562L14 0.023499L1.34619 10.3277L7.12242 3.35217H2.79025L2.54549 3.37665C2.03151 3.40112 1.56647 3.7193 1.41962 4.08644Z" fill="#808285"/>
<path fill-rule="evenodd" clip-rule="evenodd" d="M13.3875 7.07341C13.3875 7.02446 13.0204 9.25173 12.4085 11.5524L0.439941 11.6259L13.363 1.1748L7.56232 8.19928H11.919L12.1637 8.1748C12.6777 8.15033 13.2162 7.44054 13.3875 7.07341Z" fill="#ED1C24"/>
<path fill-rule="evenodd" clip-rule="evenodd" d="M2.03196 14.8294H0.000488281L1.39559 12.9203H0.465523L0.53895 12.3818H2.47252L1.07741 14.2909H2.10538L2.03196 14.8294ZM2.42357 14.8294L2.74175 12.3818H4.13685L4.06343 12.9203H3.28021L3.23126 13.3364H3.96552L3.91657 13.8748H3.15783L3.10888 14.2909H3.8921L3.81867 14.8294H2.42357ZM4.23475 14.8294L4.55294 12.3818H5.16482L5.87462 13.6546L5.92357 13.8014L6.02147 14.0706C6.02292 13.9154 6.03108 13.7602 6.04594 13.6056L6.1928 12.3818H6.80469L6.4865 14.8294H5.89909L5.1893 13.5811L5.11587 13.4098L5.01797 13.1406C5.01671 13.304 5.00855 13.4673 4.9935 13.6301L4.84664 14.8294H4.23475ZM7.00049 14.8294L7.31867 12.3818H7.95503L7.63685 14.8294H7.00049ZM8.46902 14.8294L8.71378 12.9692H8.19979L8.27322 12.3818H9.93755L9.86413 12.9692H9.35014L9.10538 14.8294H8.46902ZM9.91308 14.8294L10.2313 12.3818H10.8676L10.7452 13.3364H11.5774L11.6998 12.3818H12.3362L12.018 14.8294H11.3816L11.504 13.8259H10.6718L10.5494 14.8294H9.91308Z" fill="#808285"/>
</g>
<defs>
<clipPath id="clip0">
<rect width="14" height="14.8322" fill="white"/>
</clipPath>
</defs>
</svg>
