<svg width="299" height="55" viewBox="0 0 299 55" fill="none" xmlns="http://www.w3.org/2000/svg">
<path d="M36.6667 2.29199H18.3334C14.5292 2.29199 11.4584 5.36283 11.4584 9.16699V45.8337C11.4584 49.6378 14.5292 52.7087 18.3334 52.7087H36.6667C40.4709 52.7087 43.5417 49.6378 43.5417 45.8337V9.16699C43.5417 5.36283 40.4709 2.29199 36.6667 2.29199ZM30.9375 48.1253H24.0625C23.4209 48.1253 22.9167 47.6212 22.9167 46.9795C22.9167 46.3378 23.4209 45.8337 24.0625 45.8337H30.9375C31.5792 45.8337 32.0834 46.3378 32.0834 46.9795C32.0834 47.6212 31.5792 48.1253 30.9375 48.1253ZM38.9584 41.2503H16.0417V9.16699H38.9584V41.2503Z" fill="#243B80"/>
<circle cx="75.5" cy="22.5" r="3.5" fill="#74C947" fill-opacity="0.47"/>
<circle cx="222.5" cy="26.5" r="3.5" fill="#74C947" fill-opacity="0.55"/>
<circle cx="118" cy="12" r="7" fill="#74C947" fill-opacity="0.87"/>
<circle cx="173" cy="10" r="9" fill="#74C947"/>
<path d="M257 20.7139H288.429V46.4282H257V20.7139Z" fill="#292F33"/>
<path d="M258.429 46.4289C258.429 48.006 257.576 49.286 256.524 49.286H254.619C253.567 49.286 252.714 48.006 252.714 46.4289V20.7146C252.714 19.1374 253.567 17.8574 254.619 17.8574H256.523C257.576 17.8574 258.429 19.1374 258.429 20.7146V46.4289ZM292.714 46.4289C292.714 48.006 291.861 49.286 290.81 49.286H288.904C287.853 49.286 287 48.006 287 46.4289V20.7146C287 19.1374 287.853 17.8574 288.904 17.8574H290.81C291.861 17.8574 292.714 19.1374 292.714 20.7146V46.4289ZM269.857 46.4289C269.857 48.006 269.004 49.286 267.953 49.286H266.049C264.996 49.286 264.143 48.006 264.143 46.4289V20.7146C264.143 19.1374 264.996 17.8574 266.047 17.8574H267.951C269.004 17.8574 269.857 19.1374 269.857 20.7146V46.4289ZM281.286 46.4289C281.286 48.006 280.431 49.286 279.38 49.286H277.477C276.426 49.286 275.571 48.006 275.571 46.4289V20.7146C275.571 19.1374 276.426 17.8574 277.477 17.8574H279.38C280.431 17.8574 281.286 19.1374 281.286 20.7146V46.4289Z" fill="#CCD6DD"/>
<path d="M294.143 47.8571C294.143 49.4343 292.863 50.7143 291.286 50.7143H254.143C252.566 50.7143 251.286 49.4343 251.286 47.8571C251.286 46.28 252.566 45 254.143 45H291.286C292.863 45 294.143 46.28 294.143 47.8571Z" fill="#9AAAB4"/>
<path d="M297 50.7146C297 52.2917 295.72 53.5717 294.143 53.5717H251.286C249.709 53.5717 248.429 52.2917 248.429 50.7146C248.429 49.1374 249.709 47.8574 251.286 47.8574H294.143C295.72 47.8574 297 49.1374 297 50.7146Z" fill="#CCD6DD"/>
<path d="M298.429 52.8567C298.429 54.0396 297.469 54.9996 296.286 54.9996H249.143C247.959 54.9996 247 54.0396 247 52.8567C247 51.6739 247.959 50.7139 249.143 50.7139H296.286C297.469 50.7139 298.429 51.6739 298.429 52.8567Z" fill="#E1E8ED"/>
<path d="M294.143 19.2859C294.143 17.7087 292.777 16.4287 291.096 16.4287H254.143C252.459 16.4287 251.286 17.7087 251.286 19.2859C251.286 20.3587 251.837 21.283 252.714 21.7716V23.5716H258.429V22.143H264.143V23.5716H269.857V22.143H275.571V23.5716H281.286V22.143H287V23.5716H292.714V21.6973C293.57 21.1916 294.143 20.3044 294.143 19.2859Z" fill="#9AAAB4"/>
<path d="M249.857 17.0629C249.857 15.59 251.303 15 251.303 15L272.594 5L294.09 15C294.09 15 295.571 15.33 295.571 17.0714V17.8571H249.857V17.0629V17.0629Z" fill="#CCD6DD"/>
<path d="M272.714 8.63281C272.714 8.63281 257.973 15.5828 256.5 16.2071C255.027 16.8314 255.52 17.8585 256.502 17.8585H288.853C290.37 17.8585 290.013 16.6985 288.809 16.0728C287.603 15.4471 272.714 8.63281 272.714 8.63281Z" fill="#9AAAB4"/>
<path d="M295.571 17.8573C295.571 18.6459 294.933 19.2859 294.143 19.2859H251.286C250.497 19.2859 249.857 18.6459 249.857 17.8573C249.857 17.0687 250.497 16.4287 251.286 16.4287L294.143 16.4373C294.933 16.4373 295.571 17.0687 295.571 17.8573Z" fill="#CCD6DD"/>
</svg>
