<svg width="35" height="25" viewBox="0 0 35 25" fill="none" xmlns="http://www.w3.org/2000/svg">
<path d="M3.84588 0C1.72199 0 0 1.72199 0 3.84588L0 21.1523C0 23.2762 1.72199 24.9982 3.84588 24.9982L30.767 24.9982C32.8909 24.9982 34.6129 23.2762 34.6129 21.1523V3.84588C34.6129 3.84588 34.6129 0 30.767 0L3.84588 0Z" fill="#FFAC33"/>
<path d="M0.00195312 4.80469L34.6149 4.80469V9.61204L0.00195312 9.61204L0.00195312 4.80469Z" fill="#292F33"/>
<path d="M3.8457 13.4609L30.7668 13.4609V19.2298L3.8457 19.2298V13.4609Z" fill="#F4F7F9"/>
<path d="M18.2689 18.2678C16.6315 18.2678 16.0181 17.1044 15.8951 16.5361C15.3691 16.5756 14.8567 16.8275 14.1596 17.2707C13.4241 17.738 12.5905 18.2678 11.5386 18.2678C10.3878 18.2678 9.68877 17.6188 9.61569 16.3448C9.61281 16.291 9.65223 16.1641 9.63589 16.1641C7.84948 16.1641 6.55726 17.8572 6.54476 17.8745C6.35728 18.1312 6.06499 18.2678 5.76982 18.2678C5.57175 18.2678 5.37273 18.2072 5.20159 18.0812C4.77373 17.7668 4.68047 17.1649 4.99487 16.7371C5.06891 16.6361 6.83705 14.4219 9.61569 14.4219C11.4781 14.4219 11.5848 15.7439 11.6136 16.2371L11.6204 16.3419C12.0876 16.3092 12.5732 16.0016 13.1299 15.6468C14.0538 15.0603 15.1999 14.3286 16.7354 14.7219C17.5728 14.9363 17.7036 15.7131 17.7536 16.0064C17.7661 16.0794 17.7843 16.1891 17.8007 16.2237C17.8074 16.2237 17.9411 16.3112 18.3555 16.3487C19.1439 16.4208 20.0101 16.0804 20.9274 15.7208C21.8773 15.3478 22.8599 14.9632 23.9185 14.9632C27.1769 14.9632 28.5018 16.5352 28.6422 16.714C28.9691 17.1323 28.896 17.7361 28.4778 18.063C28.3095 18.1947 28.1115 18.262 27.9134 18.2678C27.6182 18.2764 27.324 18.1495 27.1279 17.8985C27.1048 17.8726 26.2337 16.8852 23.9195 16.8852C23.2243 16.8852 22.4504 17.188 21.6302 17.5092C20.6601 17.8899 19.29 18.2678 18.2689 18.2678Z" fill="#8899A6"/>
</svg>
