<svg width="80" height="80" viewBox="0 0 80 80" fill="none" xmlns="http://www.w3.org/2000/svg">
<g clip-path="url(#clip0)">
<path d="M53.3752 53.406C56.0971 44.2605 50.432 39.7198 43.8986 36.1685L40.4256 34.32C35.2803 31.619 35.3304 29.9082 35.9619 27.7862C36.7815 25.0326 39.7527 24.1255 43.9095 25.3626C48.8321 26.8277 49.3574 29.6759 49.3279 31.6892L49.3318 31.8583C49.4689 33.6624 50.62 35.0567 52.4152 35.5909C52.88 35.7293 53.319 35.7827 53.6503 35.8125C55.6909 36.0025 57.4891 34.8683 58.0297 33.0521C58.1638 32.6016 58.2152 32.1307 58.1806 31.6477C58.1381 28.1795 56.8514 22.3576 49.5051 18.9295L51.1254 13.4855C52.4749 8.95112 45.3728 6.83734 44.0232 11.3718L42.3933 16.8484C33.7526 15.6831 29.0408 20.3948 27.5837 25.2906C24.9325 34.1984 30.3965 38.5279 36.0838 41.5812L39.8288 43.6202C45.1774 46.4724 45.739 48.2557 44.9386 50.9451C43.9604 54.2317 40.5988 55.3638 35.9408 53.9774C29.8939 52.1777 29.4717 49.0879 29.5572 45.7861C29.5786 43.9509 28.3742 42.4062 26.4889 41.8451C26.0777 41.7227 25.7318 41.6792 25.3137 41.6289L25.1871 41.6162C23.0998 41.4989 21.3346 42.645 20.7928 44.4651C20.6899 44.8111 20.6636 45.1236 20.6427 45.3761L20.6231 45.6666C20.6177 48.8921 20.6269 55.9426 29.8534 60.261L28.1575 65.959C27.4823 68.2277 28.9135 69.9463 30.679 70.4718C32.4444 70.9972 34.5844 70.3414 35.2596 68.0728L36.9258 62.4745C44.8907 63.7578 51.3201 60.3388 53.3825 53.4092" fill="#DAEBFF" fill-opacity="0.2"/>
</g>
<defs>
<clipPath id="clip0">
<rect width="64" height="64" fill="white" transform="translate(18.2568) rotate(16.5744)"/>
</clipPath>
</defs>
</svg>
