<svg width="32" height="36" viewBox="0 0 32 36" fill="none" xmlns="http://www.w3.org/2000/svg">
<path d="M30.5268 28.055C29.9824 29.3127 29.338 30.4704 28.5914 31.5349C27.5736 32.9859 26.7403 33.9904 26.0981 34.5481C25.1026 35.4637 24.0359 35.9326 22.8938 35.9591C22.0738 35.9591 21.0849 35.7259 19.9339 35.2525C18.779 34.7814 17.7177 34.548 16.7474 34.548C15.7296 34.548 14.638 34.7813 13.4706 35.2525C12.3013 35.7258 11.3593 35.9725 10.6391 35.9969C9.54377 36.0436 8.45202 35.5613 7.36232 34.548C6.66679 33.9414 5.79681 32.9015 4.75457 31.4281C3.63639 29.8549 2.71712 28.0305 1.99684 25.9505C1.22559 23.7039 0.838867 21.5284 0.838867 19.4223C0.838867 17.0096 1.36016 14.9289 2.40437 13.1851C3.22506 11.7845 4.3168 10.6797 5.68312 9.86857C7.04943 9.05745 8.52592 8.64415 10.1158 8.61771C10.9858 8.61771 12.1267 8.8868 13.5444 9.41569C14.9582 9.94634 15.8659 10.2155 16.2639 10.2155C16.5614 10.2155 17.5699 9.90084 19.2794 9.27352C20.896 8.69175 22.2604 8.45086 23.3781 8.54578C26.4069 8.79026 28.6823 9.98417 30.1957 12.1352C27.4869 13.7765 26.1469 16.0753 26.1736 19.0244C26.1981 21.3214 27.0313 23.2329 28.669 24.7506C29.4112 25.4551 30.2401 25.9995 31.1623 26.3861C30.9623 26.966 30.7512 27.5216 30.5268 28.055H30.5268ZM23.5804 0.720211C23.5804 2.52063 22.9226 4.20166 21.6116 5.75761C20.0294 7.60732 18.1157 8.67614 16.0404 8.50753C16.0126 8.28118 15.9987 8.05334 15.9987 7.82529C15.9987 6.09687 16.7511 4.24716 18.0872 2.7348C18.7544 1.9691 19.6027 1.33235 20.6316 0.824414C21.6583 0.32407 22.6293 0.0473203 23.5426 0C23.5693 0.24068 23.5805 0.481359 23.5805 0.720141L23.5804 0.720211Z" fill="black"/>
</svg>
