<svg width="20" height="19" viewBox="0 0 20 19" fill="none" xmlns="http://www.w3.org/2000/svg">
<path d="M2.62598 0C1.99609 0 1.392 0.250223 0.946598 0.695621C0.501199 1.14102 0.250977 1.74511 0.250977 2.375L0.250977 17.5667C0.251002 17.6842 0.28588 17.799 0.351198 17.8967C0.416516 17.9943 0.509337 18.0704 0.617913 18.1153C0.726489 18.1602 0.845939 18.1718 0.961144 18.1488C1.07635 18.1258 1.18213 18.0691 1.2651 17.9859L4.65304 14.5979C4.87569 14.3752 5.17768 14.2501 5.4926 14.25H16.876C17.5059 14.25 18.11 13.9998 18.5554 13.5544C19.0008 13.109 19.251 12.5049 19.251 11.875V2.375C19.251 1.74511 19.0008 1.14102 18.5554 0.695621C18.11 0.250223 17.5059 0 16.876 0L2.62598 0Z" fill="#74C947"/>
</svg>
