<svg width="22" height="22" viewBox="0 0 22 22" fill="none" xmlns="http://www.w3.org/2000/svg">
<path d="M6.875 6.87493V4.12493C6.87501 3.64221 7.00209 3.168 7.24346 2.74995C7.48482 2.33191 7.83198 1.98477 8.25003 1.74341C8.66808 1.50206 9.1423 1.375 9.62502 1.375C10.1077 1.375 10.582 1.50207 11 1.74343C11.418 1.50207 11.8923 1.375 12.375 1.375C12.8577 1.375 13.3319 1.50206 13.75 1.74341C14.168 1.98477 14.5152 2.33191 14.7565 2.74995C14.9979 3.168 15.125 3.64221 15.125 4.12493V6.87493H15.8125C16.3595 6.87493 16.8841 7.09223 17.2709 7.47902C17.6577 7.86582 17.875 8.39042 17.875 8.93743V17.8749C17.875 18.5405 17.6337 19.1834 17.1958 19.6845C16.7578 20.1857 16.153 20.511 15.4935 20.6002C15.0077 20.5241 14.565 20.277 14.2453 19.9034C13.9257 19.5297 13.75 19.0542 13.75 18.5624V4.12493C13.7502 3.91499 13.7022 3.70781 13.6099 3.51926C13.5176 3.33071 13.3833 3.1658 13.2174 3.03718C13.0515 2.90856 12.8583 2.81963 12.6527 2.77723C12.4471 2.73483 12.2345 2.74007 12.0312 2.79256C12.2513 3.18718 12.375 3.64231 12.375 4.12493V18.5624C12.375 19.3366 12.6307 20.0502 13.0625 20.6249H6.875C6.14565 20.6249 5.44618 20.3352 4.93046 19.8195C4.41473 19.3038 4.125 18.6043 4.125 17.8749V8.93743C4.125 8.39042 4.3423 7.86582 4.72909 7.47902C5.11589 7.09223 5.64049 6.87493 6.1875 6.87493H6.875ZM8.25 4.12493V6.87493H11V4.12493C11 3.76026 10.8551 3.41052 10.5973 3.15266C10.3394 2.8948 9.98967 2.74993 9.625 2.74993C9.26033 2.74993 8.91059 2.8948 8.65273 3.15266C8.39487 3.41052 8.25 3.76026 8.25 4.12493Z" fill="currentColor"/>
</svg>
