<svg width="26" height="26" viewBox="0 0 26 26" fill="none" xmlns="http://www.w3.org/2000/svg">
<g clip-path="url(#clip0)">
<path d="M12.6356 0.0674125L15.7352 4.77177L14.1727 4.76331L14.1558 7.88826L11.0308 7.87133L11.0478 4.74638L9.48528 4.73791L12.6356 0.0674125Z" fill="white"/>
<path d="M1.57131 23.4453L1.63903 10.9455L23.5137 11.064L23.446 23.5638L1.57131 23.4453ZM0.000366569 24.9993L25 25.1348L25.0847 9.50999L0.0850195 9.37455L0.000366569 24.9993Z" fill="white"/>
<path d="M12.5171 21.9421C11.2739 21.9353 10.0843 21.435 9.21004 20.5512C8.33573 19.6674 7.84834 18.4724 7.85508 17.2293C7.86181 15.9861 8.36212 14.7965 9.24595 13.9222C10.1298 13.0479 11.3247 12.5605 12.5679 12.5672L4.75552 12.5249L4.74705 14.0874L3.18458 14.0789L3.15072 20.3288L4.71319 20.3373L4.70473 21.8998L12.5171 21.9421Z" fill="white"/>
<path d="M17.2299 17.28C17.2232 18.5232 16.7229 19.7128 15.8391 20.5871C14.9552 21.4614 13.7603 21.9488 12.5171 21.9421L20.3295 21.9844L20.338 20.4219L21.9004 20.4304L21.9343 14.1805L20.3718 14.172L20.3803 12.6095L12.5679 12.5672C13.8111 12.5739 15.0007 13.0743 15.875 13.9581C16.7493 14.8419 17.2367 16.0368 17.2299 17.28Z" fill="white"/>
</g>
<defs>
<clipPath id="clip0">
<rect width="25" height="25" fill="white" transform="translate(25 25.1348) rotate(-179.69)"/>
</clipPath>
</defs>
</svg>
