<svg width="25" height="25" viewBox="0 0 25 25" fill="none" xmlns="http://www.w3.org/2000/svg">
<path d="M12.5 25L9.375 20.3125H10.9375V17.1875H14.0625V20.3125H15.625L12.5 25Z" fill="white"/>
<path d="M23.4375 1.5625V14.0625H1.5625V1.5625H23.4375ZM25 0H0V15.625H25V0Z" fill="white"/>
<path d="M12.5 3.125C13.7432 3.125 14.9355 3.61886 15.8146 4.49794C16.6936 5.37701 17.1875 6.5693 17.1875 7.8125C17.1875 9.0557 16.6936 10.248 15.8146 11.1271C14.9355 12.0061 13.7432 12.5 12.5 12.5H20.3125V10.9375H21.875V4.6875H20.3125V3.125H12.5Z" fill="white"/>
<path d="M7.8125 7.8125C7.8125 6.5693 8.30636 5.37701 9.18544 4.49794C10.0645 3.61886 11.2568 3.125 12.5 3.125H4.6875V4.6875H3.125V10.9375H4.6875V12.5H12.5C11.2568 12.5 10.0645 12.0061 9.18544 11.1271C8.30636 10.248 7.8125 9.0557 7.8125 7.8125Z" fill="white"/>
</svg>
