<svg width="196" height="72" viewBox="0 0 196 72" fill="none" xmlns="http://www.w3.org/2000/svg">
<path d="M36.0398 53.9095L34.1556 53.9831L34.2275 55.8268L33.5893 55.8517L33.5174 54.008L31.6331 54.0815L31.6098 53.4838L33.494 53.4103L33.4217 51.5564L34.0599 51.5315L34.1322 53.3854L36.0165 53.3119L36.0398 53.9095Z" fill="#007DFE" fill-opacity="0.5"/>
<path d="M90.4276 62.796L88.5433 62.8695L88.6153 64.7132L87.9771 64.7381L87.9051 62.8944L86.0209 62.9679L85.9976 62.3702L87.8818 62.2967L87.8095 60.4429L88.4477 60.418L88.52 62.2718L90.4042 62.1983L90.4276 62.796Z" fill="#007DFE" fill-opacity="0.5"/>
<rect x="-0.192051" y="0.207645" width="3.6" height="3.6" transform="matrix(-0.99924 0.0389852 0.0389852 0.99924 33.5821 6.20558)" stroke="#01ADEF" stroke-opacity="0.5" stroke-width="0.4"/>
<rect x="-0.192051" y="0.207645" width="3.6" height="3.6" transform="matrix(-0.99924 0.0389852 0.0389852 0.99924 87.9699 15.092)" stroke="#01ADEF" stroke-opacity="0.5" stroke-width="0.4"/>
<path d="M1.48859 25.9794L3.10237 22.9142L4.95006 25.8444L1.48859 25.9794Z" stroke="#F200F2" stroke-opacity="0.5" stroke-width="0.5"/>
<path d="M55.8764 34.8659L57.4902 31.8007L59.3378 34.7309L55.8764 34.8659Z" stroke="#F200F2" stroke-opacity="0.5" stroke-width="0.5"/>
<circle cx="191.479" cy="16.0651" r="1.75" transform="rotate(-2.23425 191.479 16.0651)" stroke="#A420FF" stroke-opacity="0.5" stroke-width="0.5"/>
<circle cx="114.991" cy="5.03861" r="1.75" transform="rotate(-2.23425 114.991 5.03861)" stroke="#A420FF" stroke-opacity="0.5" stroke-width="0.5"/>
</svg>
