<svg width="16" height="16" viewBox="0 0 16 16" fill="none" xmlns="http://www.w3.org/2000/svg">
<path d="M0.853991 0.146021C0.807503 0.0995332 0.752313 0.0626571 0.691574 0.037498C0.630835 0.0123389 0.565735 -0.000610351 0.499991 -0.000610352C0.434247 -0.000610352 0.369147 0.0123389 0.308407 0.037498C0.247668 0.0626571 0.192479 0.0995332 0.145991 0.146021C0.0995027 0.192509 0.0626266 0.247698 0.0374675 0.308438C0.0123084 0.369177 -0.00064087 0.434277 -0.000640869 0.500021C-0.000640869 0.565765 0.0123084 0.630865 0.0374675 0.691605C0.0626266 0.752344 0.0995027 0.807533 0.145991 0.854021L3.64599 4.35202C1.91256 5.53435 0.705798 7.34342 0.279991 9.39802C0.266596 9.46237 0.266006 9.52872 0.278256 9.5933C0.290506 9.65788 0.315354 9.71941 0.351383 9.77438C0.387413 9.82935 0.433916 9.87669 0.48824 9.91369C0.542564 9.95069 0.603643 9.97663 0.667991 9.99002C0.732338 10.0034 0.798694 10.004 0.86327 9.99176C0.927845 9.97951 0.989376 9.95466 1.04435 9.91863C1.09932 9.8826 1.14666 9.83609 1.18366 9.78177C1.22066 9.72745 1.2466 9.66637 1.25999 9.60202C1.45076 8.67859 1.82381 7.80249 2.3573 7.025C2.8908 6.2475 3.57403 5.58424 4.36699 5.07402L5.95299 6.66002C5.54176 6.95655 5.19986 7.33888 4.95095 7.78056C4.70203 8.22224 4.55204 8.71272 4.51136 9.21808C4.47068 9.72343 4.54027 10.2316 4.71532 10.7074C4.89037 11.1832 5.1667 11.6153 5.5252 11.9738C5.8837 12.3323 6.3158 12.6086 6.79161 12.7837C7.26742 12.9587 7.77558 13.0283 8.28093 12.9877C8.78629 12.947 9.27677 12.797 9.71845 12.5481C10.1601 12.2992 10.5425 11.9573 10.839 11.546L15.146 15.854C15.2399 15.9479 15.3672 16.0007 15.5 16.0007C15.6328 16.0007 15.7601 15.9479 15.854 15.854C15.9479 15.7601 16.0006 15.6328 16.0006 15.5C16.0006 15.3672 15.9479 15.2399 15.854 15.146L0.853991 0.146021ZM10.119 10.826C9.9194 11.1445 9.65059 11.4138 9.33255 11.614C9.01451 11.8142 8.65542 11.9402 8.28199 11.9825C7.90857 12.0247 7.53041 11.9823 7.17565 11.8583C6.82089 11.7343 6.49865 11.5318 6.23291 11.2661C5.96717 11.0004 5.76476 10.6781 5.64074 10.3234C5.51672 9.9686 5.47427 9.59045 5.51656 9.21702C5.55885 8.84359 5.68478 8.4845 5.885 8.16646C6.08521 7.84842 6.35455 7.57961 6.67299 7.38002L10.119 10.827V10.826Z" fill="#5B8BA5"/>
<path d="M8.12299 6.00201L11.498 9.37601C11.4667 8.49115 11.1011 7.65104 10.475 7.02495C9.84896 6.39886 9.00885 6.03334 8.12399 6.00201H8.12299Z" fill="#5B8BA5"/>
<path d="M8.00001 4C7.43001 4 6.87101 4.074 6.33401 4.213L5.53101 3.41C6.32591 3.13868 7.16008 3.00016 8.00001 3C11.693 3 14.942 5.673 15.72 9.398C15.7471 9.52796 15.7214 9.66334 15.6486 9.77436C15.5758 9.88538 15.462 9.96295 15.332 9.99C15.2021 10.0171 15.0667 9.99137 14.9556 9.91861C14.8446 9.84584 14.7671 9.73196 14.74 9.602C14.058 6.327 11.207 4 8.00001 4Z" fill="#5B8BA5"/>
</svg>
