<svg width="39" height="44" viewBox="0 0 39 44" fill="none" xmlns="http://www.w3.org/2000/svg">
<path d="M32.4938 5.82017C32.3226 5.81455 32.1527 5.76611 32.0057 5.67558C27.9658 3.42156 24.4423 2.40585 20.1829 2.26589C15.945 2.12664 11.888 3.0004 8.16184 4.8921C7.63901 5.15347 7.00322 4.93973 6.72045 4.41619C6.59518 4.16148 6.57486 3.86779 6.66385 3.59825C6.75285 3.32871 6.94405 3.10485 7.19635 2.9748C11.2485 0.943826 15.6515 -0.0256999 20.2533 0.12551C24.8123 0.275314 28.7604 1.41211 33.0529 3.80299C33.5788 4.09882 33.7504 4.74726 33.4552 5.25181C33.3648 5.42746 33.2265 5.57399 33.0564 5.67453C32.8863 5.77508 32.6913 5.82557 32.4938 5.82017ZM1.49566 16.0508C1.2983 16.0461 1.10609 15.9869 0.940337 15.8797C0.774586 15.7724 0.641778 15.6214 0.556645 15.4433C0.471511 15.2652 0.437379 15.0669 0.458035 14.8706C0.47869 14.6743 0.553326 14.4875 0.673663 14.331C2.89111 11.4041 5.66535 9.13831 8.93008 7.59571C15.7648 4.34912 24.3699 4.61045 30.9981 8.29941C34.1546 10.053 36.7748 12.4746 38.796 15.5194C38.8744 15.6371 38.9286 15.7692 38.9556 15.908C38.9826 16.0468 38.9819 16.1896 38.9535 16.3281C38.925 16.4666 38.8694 16.5981 38.7898 16.715C38.7103 16.8319 38.6083 16.9319 38.4899 17.0092C37.9864 17.3355 37.3264 17.2067 37.0001 16.7031C35.2129 13.9883 32.7941 11.7472 29.951 10.172C23.9115 6.82379 16.0562 6.56567 9.83066 9.5323C6.87051 10.9349 4.36014 12.9951 2.34518 15.6287C2.1641 15.9227 1.83812 16.062 1.49566 16.0508ZM14.0242 42.3248C13.8838 42.3219 13.7455 42.2896 13.6183 42.2301C13.4911 42.1705 13.3778 42.085 13.2856 41.9791C11.4846 40.0558 10.518 38.8241 9.16909 36.1871C7.77873 33.5059 7.11369 30.27 7.22692 26.824C7.4358 20.4671 13.0426 15.466 19.7206 15.6854C26.3986 15.9048 31.6649 21.2632 31.4561 27.6201C31.4364 28.2194 30.95 28.6749 30.3507 28.6552C29.7514 28.6355 29.296 28.1491 29.3157 27.5498C29.4859 22.3701 25.151 18.0065 19.6502 17.8258C14.1495 17.645 9.5375 21.7146 9.3673 26.8943C9.26603 29.9765 9.85741 32.8457 11.0871 35.2002C12.3761 37.7067 13.2834 38.7864 14.8766 40.5101C15.2692 40.9515 15.2474 41.615 14.8267 42.0297C14.5842 42.236 14.3024 42.3339 14.0242 42.3248ZM29.5008 38.8693C26.9538 38.7856 24.7275 38.0697 22.9282 36.7464C19.8101 34.4798 18.0205 30.907 18.1429 27.1827C18.1626 26.5834 18.6489 26.128 19.2482 26.1477C19.8475 26.1673 20.303 26.6537 20.2833 27.253C20.1841 30.271 21.6316 33.1683 24.1852 35.0092C25.6711 36.0865 27.4315 36.6372 29.5719 36.7075C30.0856 36.7244 30.9438 36.6883 31.8049 36.5666C32.3863 36.4786 32.9302 36.8822 33.0175 37.485C33.1055 38.0664 32.702 38.6102 32.0991 38.6976C30.8714 38.8929 29.8005 38.8792 29.5008 38.8693ZM25.0538 43.1371C24.9682 43.1343 24.8619 43.1094 24.7769 43.0852C21.4047 42.0316 19.2202 40.6956 16.9624 38.3288C15.532 36.8204 14.4168 35.0418 13.6824 33.0971C12.9479 31.1524 12.6088 29.0807 12.6849 27.0033C12.7988 23.5359 15.8454 20.8077 19.4841 20.9272C23.1227 21.0468 25.9836 23.9692 25.8697 27.4366C25.7944 29.7268 27.7238 31.6543 30.1852 31.7352C32.6467 31.8161 34.6984 30.0194 34.7737 27.7291C35.0388 19.6599 28.2978 12.8818 19.7362 12.6004C13.6575 12.4007 7.98142 15.5996 5.30486 20.7613C4.41315 22.4676 3.91826 24.4869 3.84511 26.7129C3.79025 28.3824 3.85357 31.02 5.02528 34.4868C5.22103 35.0503 4.92238 35.6619 4.35955 35.8362C3.79602 36.032 3.18516 35.7119 3.0101 35.1705C2.06768 32.4297 1.63259 29.5401 1.72613 26.6432C1.81053 24.0748 2.37948 21.7579 3.40946 19.7562C6.45239 13.8781 12.8938 10.2115 19.8073 10.4386C29.546 10.7586 37.2186 18.5316 36.9147 27.7781C36.8008 31.2455 33.7542 33.9738 30.1156 33.8542C26.4769 33.7346 23.616 30.8123 23.73 27.3448C23.8052 25.0546 21.8759 23.1271 19.4144 23.0462C16.953 22.9653 14.9012 24.7621 14.826 27.0523C14.7057 30.7123 16.0058 34.1834 18.5113 36.8369C20.4786 38.9157 22.3897 40.0927 25.3803 41.0266C25.9532 41.1954 26.2546 41.8053 26.0865 42.3569C25.9633 42.8456 25.5033 43.1519 25.0538 43.1371Z" fill="white"/>
</svg>
