<svg width="20" height="19" viewBox="0 0 20 19" fill="none" xmlns="http://www.w3.org/2000/svg">
<path d="M18.001 6H12.389L13.512 2.633C13.714 2.025 13.612 1.351 13.237 0.831C12.862 0.311 12.254 0 11.613 0H10.001C9.70398 0 9.42298 0.132 9.23198 0.36L4.53198 6H2.00098C0.897977 6 0.000976562 6.897 0.000976562 8V17C0.000976562 18.103 0.897977 19 2.00098 19H15.308C15.7149 18.9986 16.1118 18.8738 16.4462 18.6421C16.7806 18.4103 17.0368 18.0825 17.181 17.702L19.938 10.351C19.9798 10.2387 20.0012 10.1198 20.001 10V8C20.001 6.897 19.104 6 18.001 6ZM2.00098 8H4.00098V17H2.00098V8ZM18.001 9.819L15.308 17H6.00098V7.362L10.469 2H11.615L10.053 6.683C10.0023 6.83331 9.98813 6.99355 10.0117 7.15043C10.0353 7.3073 10.096 7.45629 10.1886 7.58504C10.2813 7.71379 10.4034 7.8186 10.5446 7.89076C10.6859 7.96293 10.8423 8.00037 11.001 8H18.001V9.819Z" fill="#74C947"/>
</svg>
