<svg width="20" height="20" viewBox="0 0 20 20" fill="none" xmlns="http://www.w3.org/2000/svg">
<path d="M10 19C14.9706 19 19 14.9706 19 10C19 5.02944 14.9706 1 10 1C5.02944 1 1 5.02944 1 10C1 14.9706 5.02944 19 10 19Z" stroke="#243B80" stroke-width="2" stroke-linecap="round" stroke-linejoin="round"/>
<path d="M1.6 7H18.4" stroke="#243B80" stroke-width="2" stroke-linecap="round" stroke-linejoin="round"/>
<path d="M1.6 13H18.4" stroke="#243B80" stroke-width="2" stroke-linecap="round" stroke-linejoin="round"/>
<path d="M9.5 1C7.81534 3.69961 6.9222 6.81787 6.9222 10C6.9222 13.1821 7.81534 16.3004 9.5 19" stroke="#243B80" stroke-width="2" stroke-linecap="round" stroke-linejoin="round"/>
<path d="M10.5 1C12.1847 3.69961 13.0778 6.81787 13.0778 10C13.0778 13.1821 12.1847 16.3004 10.5 19" stroke="#243B80" stroke-width="2" stroke-linecap="round" stroke-linejoin="round"/>
</svg>
