<svg width="16" height="19" viewBox="0 0 16 19" fill="none" xmlns="http://www.w3.org/2000/svg">
<path fill-rule="evenodd" clip-rule="evenodd" d="M13.9398 6.20144C13.9398 7.34744 14.2441 8.0229 14.9137 8.8013C15.4212 9.37476 15.5833 10.1109 15.5833 10.9095C15.5833 11.7072 15.3201 12.4644 14.7926 13.0793C14.102 13.8163 13.1281 14.2868 12.1341 14.3686C10.6938 14.4909 9.25253 14.5938 7.79213 14.5938C6.33082 14.5938 4.89046 14.5322 3.45011 14.3686C2.45525 14.2868 1.48135 13.8163 0.791694 13.0793C0.264202 12.4644 0 11.7072 0 10.9095C0 10.1109 0.163076 9.37476 0.669615 8.8013C1.36018 8.0229 1.64443 7.34744 1.64443 6.20144V5.8127C1.64443 4.27796 2.02889 3.27441 2.82058 2.292C3.99764 0.859269 5.88441 0 7.75113 0H7.83312C9.73993 0 11.6877 0.900624 12.8448 2.39492C13.5955 3.35712 13.9398 4.3184 13.9398 5.8127V6.20144ZM5.10916 16.4799C5.10916 16.0204 5.53279 15.81 5.92454 15.7199C6.38279 15.6234 9.17513 15.6234 9.63338 15.7199C10.0251 15.81 10.4488 16.0204 10.4488 16.4799C10.426 16.9174 10.1682 17.3052 9.81194 17.5515C9.35005 17.9099 8.80798 18.1369 8.24131 18.2187C7.92792 18.2591 7.61998 18.26 7.31752 18.2187C6.74994 18.1369 6.20787 17.9099 5.74689 17.5506C5.38976 17.3052 5.13194 16.9174 5.10916 16.4799Z" fill="black"/>
</svg>
