<svg width="58" height="30" viewBox="0 0 58 30" fill="none" xmlns="http://www.w3.org/2000/svg">
<path d="M1.00098 23.5991C1.56701 23.8604 2.94175 24.0538 4.355 21.9818C6.12156 19.3919 10.7978 10.327 15.8896 15.5069C17.9679 17.8543 22.0553 17.3295 23.995 15.5069C25.172 14.401 27.4242 12.6744 29.1908 13.9242C33.2364 16.7862 36.9844 7.73702 39.4784 3.85208C42.3128 -0.563166 49.5582 -0.707069 56.001 9.60754" stroke="#74C947" stroke-width="2" stroke-linecap="round"/>
<path d="M4.355 21.9818C2.94175 24.0538 1.56701 23.8604 1.00098 23.5991V30H56.001V9.60754C49.5582 -0.707069 42.3128 -0.563167 39.4784 3.85208C36.9844 7.73702 33.2364 16.7862 29.1908 13.9242C27.4242 12.6744 25.172 14.401 23.995 15.5069C22.0553 17.3295 17.9679 17.8543 15.8896 15.5069C10.7978 10.327 6.12156 19.3919 4.355 21.9818Z" fill="url(#paint0_linear)" fill-opacity="0.5"/>
<defs>
<linearGradient id="paint0_linear" x1="23.7368" y1="2.30631" x2="29.2546" y2="32.0001" gradientUnits="userSpaceOnUse">
<stop stop-color="#74C947"/>
<stop offset="1" stop-color="white" stop-opacity="0"/>
</linearGradient>
</defs>
</svg>
