<svg width="58" height="30" viewBox="0 0 58 30" fill="none" xmlns="http://www.w3.org/2000/svg">
<path d="M56.001 23.5991C55.4349 23.8604 54.0602 24.0538 52.647 21.9818C50.8804 19.3919 46.2042 10.327 41.1123 15.5069C39.034 17.8543 34.9467 17.3295 33.0069 15.5069C31.8299 14.401 29.5777 12.6744 27.8112 13.9242C23.7656 16.7862 20.0175 7.73702 17.5235 3.85208C14.6891 -0.563166 7.44373 -0.707069 1.00098 9.60754" stroke="#EB001B" stroke-width="2" stroke-linecap="round"/>
<path d="M52.647 21.9818C54.0602 24.0538 55.4349 23.8604 56.001 23.5991V30H1.00098V9.60754C7.44373 -0.707069 14.6891 -0.563167 17.5235 3.85208C20.0175 7.73702 23.7656 16.7862 27.8112 13.9242C29.5777 12.6744 31.8299 14.401 33.0069 15.5069C34.9467 17.3295 39.034 17.8543 41.1123 15.5069C46.2042 10.327 50.8804 19.3919 52.647 21.9818Z" fill="url(#paint0_linear)" fill-opacity="0.5"/>
<defs>
<linearGradient id="paint0_linear" x1="33.2651" y1="2.30631" x2="27.7473" y2="32.0001" gradientUnits="userSpaceOnUse">
<stop stop-color="#FD0707"/>
<stop offset="1" stop-color="white" stop-opacity="0"/>
</linearGradient>
</defs>
</svg>
