<svg width="22" height="17" viewBox="0 0 22 17" fill="none" xmlns="http://www.w3.org/2000/svg">
<path d="M21.78 14.8149H0.22C0.099 14.8149 0 14.9139 0 15.0349V16.5749C0 16.6959 0.099 16.7949 0.22 16.7949H21.78C21.901 16.7949 22 16.6959 22 16.5749V15.0349C22 14.9139 21.901 14.8149 21.78 14.8149ZM1.47675 11.3719L2.5685 12.4582C2.65375 12.5434 2.794 12.5434 2.87925 12.4582L9.3335 6.02591L12.0175 8.70166C12.1829 8.8655 12.4062 8.95741 12.639 8.95741C12.8718 8.95741 13.0951 8.8655 13.2605 8.70166L20.526 1.46366C20.6112 1.37841 20.6112 1.23816 20.526 1.15291L19.4342 0.0639101C19.3929 0.0229676 19.3371 0 19.2789 0C19.2207 0 19.1648 0.0229676 19.1235 0.0639101L12.6418 6.52641L9.955 3.85066C9.78964 3.68682 9.56628 3.59491 9.3335 3.59491C9.10072 3.59491 8.87736 3.68682 8.712 3.85066L1.47675 11.0612C1.45618 11.0815 1.43985 11.1057 1.4287 11.1323C1.41755 11.159 1.41181 11.1876 1.41181 11.2165C1.41181 11.2454 1.41755 11.2741 1.4287 11.3007C1.43985 11.3274 1.45618 11.3516 1.47675 11.3719Z" fill="#74C947"/>
</svg>
