<svg width="6" height="6" viewBox="0 0 6 6" fill="none" xmlns="http://www.w3.org/2000/svg">
<g clip-path="url(#clip0)">
<path d="M3.03892 0.323322L3.63981 1.69386C3.66242 1.74544 3.69845 1.79 3.74415 1.82291C3.78985 1.85581 3.84355 1.87584 3.89964 1.88091L5.36347 2.01216C5.5291 2.03627 5.59517 2.23939 5.47508 2.35636L4.3724 3.2827C4.28312 3.3577 4.24249 3.47555 4.26705 3.58939L4.58758 5.08984C4.61571 5.25457 4.44294 5.38046 4.29472 5.30234L3.01705 4.55412C2.96886 4.52584 2.91399 4.51093 2.85812 4.51093C2.80224 4.51093 2.74738 4.52584 2.69919 4.55412L1.42151 5.30189C1.27374 5.37957 1.10053 5.25412 1.12865 5.08939L1.44919 3.58895C1.4733 3.47511 1.43312 3.35725 1.34383 3.28225L0.240707 2.3568C0.121065 2.24029 0.187136 2.03671 0.352315 2.01261L1.81615 1.88136C1.87224 1.87629 1.92594 1.85625 1.97164 1.82335C2.01734 1.79045 2.05337 1.74588 2.07598 1.6943L2.67687 0.323768C2.75142 0.173768 2.96481 0.173768 3.03892 0.323322Z" fill="#FDD835"/>
<path d="M2.9951 1.77551L2.89332 0.765685C2.8893 0.709435 2.87769 0.613007 2.96787 0.613007C3.0393 0.613007 3.07814 0.761667 3.07814 0.761667L3.3835 1.57238C3.49868 1.88086 3.45135 1.98667 3.34019 2.04917C3.21251 2.1206 3.02412 2.06479 2.9951 1.77551Z" fill="#FFFF8D"/>
<path d="M4.25463 3.19292L5.13053 2.50943C5.17383 2.47327 5.25196 2.41568 5.18946 2.35006C5.1399 2.29827 5.00597 2.37283 5.00597 2.37283L4.23946 2.67238C4.01088 2.7514 3.8591 2.86836 3.84571 3.01568C3.82829 3.21211 4.00463 3.36345 4.25463 3.19292Z" fill="#F4B400"/>
</g>
<defs>
<clipPath id="clip0">
<rect width="5.71429" height="5.71429" fill="white" transform="translate(0.000976562)"/>
</clipPath>
</defs>
</svg>
