<svg width="12" height="17" viewBox="0 0 12 17" fill="none" xmlns="http://www.w3.org/2000/svg">
<path d="M6.7967 1.001C6.79649 0.783779 6.86701 0.57239 6.9976 0.398805C7.1282 0.225219 7.31176 0.0988791 7.52054 0.0388894C7.72932 -0.0211003 7.95195 -0.0114764 8.15477 0.0663057C8.3576 0.144088 8.52957 0.285797 8.6447 0.470005L11.3327 3.158C11.4255 3.25092 11.4992 3.3612 11.5494 3.48257C11.5996 3.60394 11.6255 3.73401 11.6254 3.86536C11.6254 3.99671 11.5994 4.12676 11.5491 4.24809C11.4988 4.36942 11.4251 4.47966 11.3322 4.5725C11.2393 4.66535 11.129 4.73899 11.0076 4.78921C10.8863 4.83943 10.7562 4.86525 10.6249 4.86521C10.4935 4.86516 10.3634 4.83924 10.2421 4.78894C10.1208 4.73863 10.0105 4.66492 9.9177 4.572L8.7977 3.451V11.001C8.7977 11.2662 8.69235 11.5206 8.50481 11.7081C8.31727 11.8956 8.06292 12.001 7.7977 12.001C7.53249 12.001 7.27813 11.8956 7.0906 11.7081C6.90306 11.5206 6.7977 11.2662 6.7977 11.001V1.001H6.7967Z" fill="#74C947"/>
<path d="M4.8287 15.015C4.82892 15.2322 4.7584 15.4436 4.62781 15.6172C4.49721 15.7908 4.31364 15.9171 4.10487 15.9771C3.89609 16.0371 3.67346 16.0275 3.47063 15.9497C3.26781 15.8719 3.09583 15.7302 2.9807 15.546L0.292703 12.858C0.105195 12.6704 -9.37056e-05 12.4159 6.25777e-08 12.1507C9.38308e-05 11.8854 0.105562 11.631 0.293203 11.4435C0.480844 11.256 0.735286 11.1507 1.00056 11.1508C1.26583 11.1509 1.52019 11.2564 1.7077 11.444L2.8277 12.565V5.01501C2.8277 4.7498 2.93306 4.49544 3.1206 4.30791C3.30813 4.12037 3.56249 4.01501 3.8277 4.01501C4.09292 4.01501 4.34727 4.12037 4.53481 4.30791C4.72235 4.49544 4.8277 4.7498 4.8277 5.01501V15.015H4.8287Z" fill="#74C947"/>
</svg>
