<svg width="22" height="22" viewBox="0 0 22 22" fill="none" xmlns="http://www.w3.org/2000/svg">
<path d="M2.08671 17.446L6.38771 13.145L9.49961 16.2558L14.5277 11.2288L16.5 13.2V7.7H11L12.9723 9.6723L9.49961 13.145L6.38881 10.0331L0.948209 15.4737C0.32113 14.0657 -0.00196647 12.5413 9.00435e-06 11C9.00435e-06 4.9247 4.92471 0 11 0C17.0753 0 22 4.9247 22 11C22 17.0753 17.0753 22 11 22C9.25981 22.0011 7.54423 21.5889 5.99458 20.7971C4.44492 20.0053 3.10553 18.8568 2.08671 17.446Z" fill="#74C947"/>
</svg>
