<svg width="228" height="139" viewBox="0 0 228 139" fill="none" xmlns="http://www.w3.org/2000/svg">
<rect x="27" width="173" height="63" rx="6.09718" fill="#3E527F"/>
<rect x="11" y="12" width="205" height="83" rx="7.213" fill="#CE000B"/>
<rect y="23" width="228" height="115.093" rx="7.28435" fill="#243B80"/>
<path d="M13.0521 104.115C12.9959 104.115 12.946 104.097 12.9023 104.059C12.8648 104.015 12.8461 103.965 12.8461 103.909C12.8461 103.853 12.8679 103.8 12.9116 103.75L14.5038 101.615L13.024 99.6104C12.9866 99.5604 12.9678 99.5074 12.9678 99.4512C12.9678 99.395 12.9866 99.3482 13.024 99.3107C13.0677 99.267 13.1177 99.2451 13.1739 99.2451H13.9887C14.0511 99.2451 14.098 99.2607 14.1292 99.292C14.1666 99.3169 14.2041 99.3544 14.2416 99.4043L15.2999 100.809L16.3582 99.4043C16.3644 99.3981 16.3894 99.37 16.4331 99.3201C16.4706 99.2701 16.5299 99.2451 16.6111 99.2451H17.3884C17.4446 99.2451 17.4914 99.267 17.5289 99.3107C17.5726 99.3482 17.5944 99.3919 17.5944 99.4418C17.5944 99.5042 17.5757 99.5604 17.5382 99.6104L16.0397 101.633L17.6413 103.75C17.685 103.8 17.7068 103.853 17.7068 103.909C17.7068 103.965 17.685 104.015 17.6413 104.059C17.6038 104.097 17.557 104.115 17.5008 104.115H16.6485C16.5486 104.115 16.4643 104.065 16.3956 103.965L15.2718 102.476L14.1292 103.965C14.0605 104.065 13.9762 104.115 13.8763 104.115H13.0521ZM18.3386 104.115C18.2824 104.115 18.2324 104.097 18.1887 104.059C18.1513 104.015 18.1325 103.965 18.1325 103.909C18.1325 103.853 18.1544 103.8 18.1981 103.75L19.7902 101.615L18.3105 99.6104C18.273 99.5604 18.2543 99.5074 18.2543 99.4512C18.2543 99.395 18.273 99.3482 18.3105 99.3107C18.3542 99.267 18.4041 99.2451 18.4603 99.2451H19.2751C19.3376 99.2451 19.3844 99.2607 19.4156 99.292C19.4531 99.3169 19.4905 99.3544 19.528 99.4043L20.5863 100.809L21.6446 99.4043C21.6509 99.3981 21.6758 99.37 21.7195 99.3201C21.757 99.2701 21.8163 99.2451 21.8975 99.2451H22.6748C22.731 99.2451 22.7778 99.267 22.8153 99.3107C22.859 99.3482 22.8809 99.3919 22.8809 99.4418C22.8809 99.5042 22.8621 99.5604 22.8247 99.6104L21.3262 101.633L22.9277 103.75C22.9714 103.8 22.9933 103.853 22.9933 103.909C22.9933 103.965 22.9714 104.015 22.9277 104.059C22.8902 104.097 22.8434 104.115 22.7872 104.115H21.9349C21.835 104.115 21.7508 104.065 21.6821 103.965L20.5582 102.476L19.4156 103.965C19.3469 104.065 19.2626 104.115 19.1627 104.115H18.3386ZM23.625 104.115C23.5688 104.115 23.5189 104.097 23.4751 104.059C23.4377 104.015 23.419 103.965 23.419 103.909C23.419 103.853 23.4408 103.8 23.4845 103.75L25.0767 101.615L23.5969 99.6104C23.5594 99.5604 23.5407 99.5074 23.5407 99.4512C23.5407 99.395 23.5594 99.3482 23.5969 99.3107C23.6406 99.267 23.6906 99.2451 23.7467 99.2451H24.5616C24.624 99.2451 24.6708 99.2607 24.702 99.292C24.7395 99.3169 24.777 99.3544 24.8144 99.4043L25.8727 100.809L26.931 99.4043C26.9373 99.3981 26.9623 99.37 27.006 99.3201C27.0434 99.2701 27.1028 99.2451 27.1839 99.2451H27.9613C28.0175 99.2451 28.0643 99.267 28.1017 99.3107C28.1455 99.3482 28.1673 99.3919 28.1673 99.4418C28.1673 99.5042 28.1486 99.5604 28.1111 99.6104L26.6126 101.633L28.2141 103.75C28.2578 103.8 28.2797 103.853 28.2797 103.909C28.2797 103.965 28.2578 104.015 28.2141 104.059C28.1767 104.097 28.1298 104.115 28.0737 104.115H27.2214C27.1215 104.115 27.0372 104.065 26.9685 103.965L25.8446 102.476L24.702 103.965C24.6334 104.065 24.5491 104.115 24.4492 104.115H23.625ZM28.9114 104.115C28.8552 104.115 28.8053 104.097 28.7616 104.059C28.7241 104.015 28.7054 103.965 28.7054 103.909C28.7054 103.853 28.7272 103.8 28.7709 103.75L30.3631 101.615L28.8833 99.6104C28.8459 99.5604 28.8271 99.5074 28.8271 99.4512C28.8271 99.395 28.8459 99.3482 28.8833 99.3107C28.927 99.267 28.977 99.2451 29.0332 99.2451H29.848C29.9104 99.2451 29.9573 99.2607 29.9885 99.292C30.0259 99.3169 30.0634 99.3544 30.1009 99.4043L31.1592 100.809L32.2175 99.4043C32.2237 99.3981 32.2487 99.37 32.2924 99.3201C32.3299 99.2701 32.3892 99.2451 32.4704 99.2451H33.2477C33.3039 99.2451 33.3507 99.267 33.3882 99.3107C33.4319 99.3482 33.4537 99.3919 33.4537 99.4418C33.4537 99.5042 33.435 99.5604 33.3975 99.6104L31.8991 101.633L33.5006 103.75C33.5443 103.8 33.5661 103.853 33.5661 103.909C33.5661 103.965 33.5443 104.015 33.5006 104.059C33.4631 104.097 33.4163 104.115 33.3601 104.115H32.5078C32.4079 104.115 32.3236 104.065 32.2549 103.965L31.1311 102.476L29.9885 103.965C29.9198 104.065 29.8355 104.115 29.7356 104.115H28.9114ZM36.338 104.115C36.2819 104.115 36.2319 104.097 36.1882 104.059C36.1507 104.015 36.132 103.965 36.132 103.909C36.132 103.853 36.1539 103.8 36.1976 103.75L37.7897 101.615L36.31 99.6104C36.2725 99.5604 36.2538 99.5074 36.2538 99.4512C36.2538 99.395 36.2725 99.3482 36.31 99.3107C36.3537 99.267 36.4036 99.2451 36.4598 99.2451H37.2746C37.337 99.2451 37.3839 99.2607 37.4151 99.292C37.4526 99.3169 37.49 99.3544 37.5275 99.4043L38.5858 100.809L39.6441 99.4043C39.6503 99.3981 39.6753 99.37 39.719 99.3201C39.7565 99.2701 39.8158 99.2451 39.897 99.2451H40.6743C40.7305 99.2451 40.7773 99.267 40.8148 99.3107C40.8585 99.3482 40.8804 99.3919 40.8804 99.4418C40.8804 99.5042 40.8616 99.5604 40.8242 99.6104L39.3257 101.633L40.9272 103.75C40.9709 103.8 40.9927 103.853 40.9927 103.909C40.9927 103.965 40.9709 104.015 40.9272 104.059C40.8897 104.097 40.8429 104.115 40.7867 104.115H39.9344C39.8345 104.115 39.7502 104.065 39.6816 103.965L38.5577 102.476L37.4151 103.965C37.3464 104.065 37.2621 104.115 37.1622 104.115H36.338ZM41.6245 104.115C41.5683 104.115 41.5183 104.097 41.4746 104.059C41.4372 104.015 41.4184 103.965 41.4184 103.909C41.4184 103.853 41.4403 103.8 41.484 103.75L43.0761 101.615L41.5964 99.6104C41.5589 99.5604 41.5402 99.5074 41.5402 99.4512C41.5402 99.395 41.5589 99.3482 41.5964 99.3107C41.6401 99.267 41.69 99.2451 41.7462 99.2451H42.561C42.6235 99.2451 42.6703 99.2607 42.7015 99.292C42.739 99.3169 42.7764 99.3544 42.8139 99.4043L43.8722 100.809L44.9305 99.4043C44.9368 99.3981 44.9618 99.37 45.0055 99.3201C45.0429 99.2701 45.1022 99.2451 45.1834 99.2451H45.9607C46.0169 99.2451 46.0638 99.267 46.1012 99.3107C46.1449 99.3482 46.1668 99.3919 46.1668 99.4418C46.1668 99.5042 46.1481 99.5604 46.1106 99.6104L44.6121 101.633L46.2136 103.75C46.2573 103.8 46.2792 103.853 46.2792 103.909C46.2792 103.965 46.2573 104.015 46.2136 104.059C46.1762 104.097 46.1293 104.115 46.0731 104.115H45.2209C45.121 104.115 45.0367 104.065 44.968 103.965L43.8441 102.476L42.7015 103.965C42.6328 104.065 42.5486 104.115 42.4487 104.115H41.6245ZM46.9109 104.115C46.8547 104.115 46.8048 104.097 46.7611 104.059C46.7236 104.015 46.7049 103.965 46.7049 103.909C46.7049 103.853 46.7267 103.8 46.7704 103.75L48.3626 101.615L46.8828 99.6104C46.8454 99.5604 46.8266 99.5074 46.8266 99.4512C46.8266 99.395 46.8454 99.3482 46.8828 99.3107C46.9265 99.267 46.9765 99.2451 47.0327 99.2451H47.8475C47.9099 99.2451 47.9567 99.2607 47.988 99.292C48.0254 99.3169 48.0629 99.3544 48.1003 99.4043L49.1587 100.809L50.217 99.4043C50.2232 99.3981 50.2482 99.37 50.2919 99.3201C50.3294 99.2701 50.3887 99.2451 50.4698 99.2451H51.2472C51.3034 99.2451 51.3502 99.267 51.3877 99.3107C51.4314 99.3482 51.4532 99.3919 51.4532 99.4418C51.4532 99.5042 51.4345 99.5604 51.397 99.6104L49.8985 101.633L51.5001 103.75C51.5438 103.8 51.5656 103.853 51.5656 103.909C51.5656 103.965 51.5438 104.015 51.5001 104.059C51.4626 104.097 51.4158 104.115 51.3596 104.115H50.5073C50.4074 104.115 50.3231 104.065 50.2544 103.965L49.1306 102.476L47.988 103.965C47.9193 104.065 47.835 104.115 47.7351 104.115H46.9109ZM52.1974 104.115C52.1412 104.115 52.0912 104.097 52.0475 104.059C52.01 104.015 51.9913 103.965 51.9913 103.909C51.9913 103.853 52.0132 103.8 52.0569 103.75L53.649 101.615L52.1693 99.6104C52.1318 99.5604 52.1131 99.5074 52.1131 99.4512C52.1131 99.395 52.1318 99.3482 52.1693 99.3107C52.213 99.267 52.2629 99.2451 52.3191 99.2451H53.1339C53.1963 99.2451 53.2432 99.2607 53.2744 99.292C53.3119 99.3169 53.3493 99.3544 53.3868 99.4043L54.4451 100.809L55.5034 99.4043C55.5096 99.3981 55.5346 99.37 55.5783 99.3201C55.6158 99.2701 55.6751 99.2451 55.7563 99.2451H56.5336C56.5898 99.2451 56.6366 99.267 56.6741 99.3107C56.7178 99.3482 56.7397 99.3919 56.7397 99.4418C56.7397 99.5042 56.7209 99.5604 56.6835 99.6104L55.185 101.633L56.7865 103.75C56.8302 103.8 56.852 103.853 56.852 103.909C56.852 103.965 56.8302 104.015 56.7865 104.059C56.749 104.097 56.7022 104.115 56.646 104.115H55.7937C55.6938 104.115 55.6095 104.065 55.5409 103.965L54.417 102.476L53.2744 103.965C53.2057 104.065 53.1214 104.115 53.0215 104.115H52.1974ZM59.624 104.115C59.5678 104.115 59.5178 104.097 59.4741 104.059C59.4367 104.015 59.4179 103.965 59.4179 103.909C59.4179 103.853 59.4398 103.8 59.4835 103.75L61.0756 101.615L59.5959 99.6104C59.5584 99.5604 59.5397 99.5074 59.5397 99.4512C59.5397 99.395 59.5584 99.3482 59.5959 99.3107C59.6396 99.267 59.6895 99.2451 59.7457 99.2451H60.5605C60.623 99.2451 60.6698 99.2607 60.701 99.292C60.7385 99.3169 60.7759 99.3544 60.8134 99.4043L61.8717 100.809L62.93 99.4043C62.9363 99.3981 62.9612 99.37 63.0049 99.3201C63.0424 99.2701 63.1017 99.2451 63.1829 99.2451H63.9602C64.0164 99.2451 64.0633 99.267 64.1007 99.3107C64.1444 99.3482 64.1663 99.3919 64.1663 99.4418C64.1663 99.5042 64.1475 99.5604 64.1101 99.6104L62.6116 101.633L64.2131 103.75C64.2568 103.8 64.2787 103.853 64.2787 103.909C64.2787 103.965 64.2568 104.015 64.2131 104.059C64.1756 104.097 64.1288 104.115 64.0726 104.115H63.2204C63.1205 104.115 63.0362 104.065 62.9675 103.965L61.8436 102.476L60.701 103.965C60.6323 104.065 60.548 104.115 60.4481 104.115H59.624ZM64.9104 104.115C64.8542 104.115 64.8043 104.097 64.7606 104.059C64.7231 104.015 64.7044 103.965 64.7044 103.909C64.7044 103.853 64.7262 103.8 64.7699 103.75L66.3621 101.615L64.8823 99.6104C64.8448 99.5604 64.8261 99.5074 64.8261 99.4512C64.8261 99.395 64.8448 99.3482 64.8823 99.3107C64.926 99.267 64.976 99.2451 65.0322 99.2451H65.847C65.9094 99.2451 65.9562 99.2607 65.9874 99.292C66.0249 99.3169 66.0624 99.3544 66.0998 99.4043L67.1581 100.809L68.2165 99.4043C68.2227 99.3981 68.2477 99.37 68.2914 99.3201C68.3288 99.2701 68.3882 99.2451 68.4693 99.2451H69.2467C69.3029 99.2451 69.3497 99.267 69.3872 99.3107C69.4309 99.3482 69.4527 99.3919 69.4527 99.4418C69.4527 99.5042 69.434 99.5604 69.3965 99.6104L67.898 101.633L69.4995 103.75C69.5432 103.8 69.5651 103.853 69.5651 103.909C69.5651 103.965 69.5432 104.015 69.4995 104.059C69.4621 104.097 69.4153 104.115 69.3591 104.115H68.5068C68.4069 104.115 68.3226 104.065 68.2539 103.965L67.13 102.476L65.9874 103.965C65.9188 104.065 65.8345 104.115 65.7346 104.115H64.9104ZM70.1968 104.115C70.1406 104.115 70.0907 104.097 70.047 104.059C70.0095 104.015 69.9908 103.965 69.9908 103.909C69.9908 103.853 70.0126 103.8 70.0564 103.75L71.6485 101.615L70.1687 99.6104C70.1313 99.5604 70.1125 99.5074 70.1125 99.4512C70.1125 99.395 70.1313 99.3482 70.1687 99.3107C70.2124 99.267 70.2624 99.2451 70.3186 99.2451H71.1334C71.1958 99.2451 71.2427 99.2607 71.2739 99.292C71.3113 99.3169 71.3488 99.3544 71.3863 99.4043L72.4446 100.809L73.5029 99.4043C73.5091 99.3981 73.5341 99.37 73.5778 99.3201C73.6153 99.2701 73.6746 99.2451 73.7558 99.2451H74.5331C74.5893 99.2451 74.6361 99.267 74.6736 99.3107C74.7173 99.3482 74.7391 99.3919 74.7391 99.4418C74.7391 99.5042 74.7204 99.5604 74.683 99.6104L73.1845 101.633L74.786 103.75C74.8297 103.8 74.8515 103.853 74.8515 103.909C74.8515 103.965 74.8297 104.015 74.786 104.059C74.7485 104.097 74.7017 104.115 74.6455 104.115H73.7932C73.6933 104.115 73.609 104.065 73.5404 103.965L72.4165 102.476L71.2739 103.965C71.2052 104.065 71.1209 104.115 71.021 104.115H70.1968ZM75.4833 104.115C75.4271 104.115 75.3771 104.097 75.3334 104.059C75.296 104.015 75.2772 103.965 75.2772 103.909C75.2772 103.853 75.2991 103.8 75.3428 103.75L76.9349 101.615L75.4552 99.6104C75.4177 99.5604 75.399 99.5074 75.399 99.4512C75.399 99.395 75.4177 99.3482 75.4552 99.3107C75.4989 99.267 75.5488 99.2451 75.605 99.2451H76.4198C76.4823 99.2451 76.5291 99.2607 76.5603 99.292C76.5978 99.3169 76.6352 99.3544 76.6727 99.4043L77.731 100.809L78.7893 99.4043C78.7956 99.3981 78.8205 99.37 78.8642 99.3201C78.9017 99.2701 78.961 99.2451 79.0422 99.2451H79.8195C79.8757 99.2451 79.9226 99.267 79.96 99.3107C80.0037 99.3482 80.0256 99.3919 80.0256 99.4418C80.0256 99.5042 80.0069 99.5604 79.9694 99.6104L78.4709 101.633L80.0724 103.75C80.1161 103.8 80.138 103.853 80.138 103.909C80.138 103.965 80.1161 104.015 80.0724 104.059C80.0349 104.097 79.9881 104.115 79.9319 104.115H79.0797C78.9798 104.115 78.8955 104.065 78.8268 103.965L77.7029 102.476L76.5603 103.965C76.4916 104.065 76.4073 104.115 76.3074 104.115H75.4833ZM85.4105 104.209C84.8611 104.209 84.3928 104.121 84.0057 103.947C83.6248 103.772 83.3376 103.553 83.144 103.291C82.9567 103.023 82.8568 102.748 82.8443 102.467C82.8443 102.411 82.8631 102.367 82.9005 102.336C82.9442 102.298 82.9942 102.28 83.0504 102.28H83.8933C84.0306 102.28 84.1212 102.342 84.1649 102.467C84.3022 102.916 84.7206 103.141 85.4199 103.141C85.8007 103.141 86.1004 103.054 86.319 102.879C86.5375 102.698 86.6468 102.442 86.6468 102.111C86.6468 101.487 86.2565 101.174 85.4761 101.174H84.5114C84.4427 101.174 84.3865 101.153 84.3428 101.109C84.2991 101.065 84.2773 101.012 84.2773 100.95V100.556C84.2773 100.456 84.321 100.363 84.4084 100.275L86.0848 98.6364H83.4063C83.3438 98.6364 83.2908 98.6145 83.247 98.5708C83.2033 98.5271 83.1815 98.474 83.1815 98.4116V97.7935C83.1815 97.7248 83.2002 97.6686 83.2377 97.6249C83.2814 97.5812 83.3376 97.5593 83.4063 97.5593H87.4241C87.4928 97.5593 87.549 97.5812 87.5927 97.6249C87.6364 97.6686 87.6582 97.7248 87.6582 97.7935V98.3554C87.6582 98.4491 87.6177 98.5365 87.5365 98.6176L85.9162 100.285L86.0286 100.294C86.628 100.344 87.1025 100.525 87.4522 100.837C87.8081 101.149 87.986 101.596 87.986 102.177C87.986 102.589 87.8736 102.948 87.6489 103.254C87.4303 103.56 87.1244 103.797 86.731 103.965C86.3439 104.128 85.9038 104.209 85.4105 104.209ZM91.3097 104.209C90.7603 104.209 90.292 104.121 89.9049 103.947C89.524 103.772 89.2368 103.553 89.0433 103.291C88.8559 103.023 88.756 102.748 88.7436 102.467C88.7436 102.411 88.7623 102.367 88.7998 102.336C88.8435 102.298 88.8934 102.28 88.9496 102.28H89.7925C89.9299 102.28 90.0204 102.342 90.0641 102.467C90.2015 102.916 90.6198 103.141 91.3191 103.141C91.7 103.141 91.9997 103.054 92.2182 102.879C92.4367 102.698 92.546 102.442 92.546 102.111C92.546 101.487 92.1558 101.174 91.3753 101.174H90.4106C90.342 101.174 90.2858 101.153 90.2421 101.109C90.1983 101.065 90.1765 101.012 90.1765 100.95V100.556C90.1765 100.456 90.2202 100.363 90.3076 100.275L91.9841 98.6364H89.3055C89.2431 98.6364 89.19 98.6145 89.1463 98.5708C89.1026 98.5271 89.0807 98.474 89.0807 98.4116V97.7935C89.0807 97.7248 89.0995 97.6686 89.1369 97.6249C89.1806 97.5812 89.2368 97.5593 89.3055 97.5593H93.3233C93.392 97.5593 93.4482 97.5812 93.4919 97.6249C93.5356 97.6686 93.5575 97.7248 93.5575 97.7935V98.3554C93.5575 98.4491 93.5169 98.5365 93.4357 98.6176L91.8155 100.285L91.9279 100.294C92.5273 100.344 93.0018 100.525 93.3514 100.837C93.7073 101.149 93.8853 101.596 93.8853 102.177C93.8853 102.589 93.7729 102.948 93.5481 103.254C93.3296 103.56 93.0236 103.797 92.6303 103.965C92.2432 104.128 91.803 104.209 91.3097 104.209ZM97.2089 104.209C96.6595 104.209 96.1912 104.121 95.8041 103.947C95.4232 103.772 95.136 103.553 94.9425 103.291C94.7552 103.023 94.6553 102.748 94.6428 102.467C94.6428 102.411 94.6615 102.367 94.699 102.336C94.7427 102.298 94.7926 102.28 94.8488 102.28H95.6917C95.8291 102.28 95.9196 102.342 95.9633 102.467C96.1007 102.916 96.519 103.141 97.2183 103.141C97.5992 103.141 97.8989 103.054 98.1174 102.879C98.3359 102.698 98.4452 102.442 98.4452 102.111C98.4452 101.487 98.055 101.174 97.2745 101.174H96.3099C96.2412 101.174 96.185 101.153 96.1413 101.109C96.0976 101.065 96.0757 101.012 96.0757 100.95V100.556C96.0757 100.456 96.1194 100.363 96.2068 100.275L97.8833 98.6364H95.2047C95.1423 98.6364 95.0892 98.6145 95.0455 98.5708C95.0018 98.5271 94.9799 98.474 94.9799 98.4116V97.7935C94.9799 97.7248 94.9987 97.6686 95.0361 97.6249C95.0798 97.5812 95.136 97.5593 95.2047 97.5593H99.2225C99.2912 97.5593 99.3474 97.5812 99.3911 97.6249C99.4348 97.6686 99.4567 97.7248 99.4567 97.7935V98.3554C99.4567 98.4491 99.4161 98.5365 99.3349 98.6176L97.7147 100.285L97.8271 100.294C98.4265 100.344 98.901 100.525 99.2506 100.837C99.6065 101.149 99.7845 101.596 99.7845 102.177C99.7845 102.589 99.6721 102.948 99.4473 103.254C99.2288 103.56 98.9228 103.797 98.5295 103.965C98.1424 104.128 97.7022 104.209 97.2089 104.209ZM103.108 104.209C102.559 104.209 102.09 104.121 101.703 103.947C101.322 103.772 101.035 103.553 100.842 103.291C100.654 103.023 100.554 102.748 100.542 102.467C100.542 102.411 100.561 102.367 100.598 102.336C100.642 102.298 100.692 102.28 100.748 102.28H101.591C101.728 102.28 101.819 102.342 101.863 102.467C102 102.916 102.418 103.141 103.118 103.141C103.498 103.141 103.798 103.054 104.017 102.879C104.235 102.698 104.344 102.442 104.344 102.111C104.344 101.487 103.954 101.174 103.174 101.174H102.209C102.14 101.174 102.084 101.153 102.04 101.109C101.997 101.065 101.975 101.012 101.975 100.95V100.556C101.975 100.456 102.019 100.363 102.106 100.275L103.782 98.6364H101.104C101.041 98.6364 100.988 98.6145 100.945 98.5708C100.901 98.5271 100.879 98.474 100.879 98.4116V97.7935C100.879 97.7248 100.898 97.6686 100.935 97.6249C100.979 97.5812 101.035 97.5593 101.104 97.5593H105.122C105.19 97.5593 105.247 97.5812 105.29 97.6249C105.334 97.6686 105.356 97.7248 105.356 97.7935V98.3554C105.356 98.4491 105.315 98.5365 105.234 98.6176L103.614 100.285L103.726 100.294C104.326 100.344 104.8 100.525 105.15 100.837C105.506 101.149 105.684 101.596 105.684 102.177C105.684 102.589 105.571 102.948 105.347 103.254C105.128 103.56 104.822 103.797 104.429 103.965C104.042 104.128 103.601 104.209 103.108 104.209Z" fill="white"/>
<path d="M15.3224 128.21C14.6658 128.21 14.0693 128.065 13.5326 127.775C13.0023 127.478 12.5857 127.074 12.2826 126.562C11.9859 126.051 11.8376 125.477 11.8376 124.839C11.8376 124.201 11.9859 123.627 12.2826 123.115C12.5857 122.604 13.0023 122.203 13.5326 121.913C14.0693 121.616 14.6658 121.468 15.3224 121.468C15.979 121.468 16.5692 121.613 17.0932 121.903C17.6235 122.194 18.0402 122.598 18.3432 123.115C18.6462 123.627 18.7978 124.201 18.7978 124.839C18.7978 125.477 18.6462 126.054 18.3432 126.572C18.0402 127.083 17.6235 127.484 17.0932 127.775C16.5692 128.065 15.979 128.21 15.3224 128.21ZM15.3224 127.585C15.8464 127.585 16.3199 127.468 16.7429 127.235C17.1658 126.995 17.4973 126.667 17.7372 126.25C17.9771 125.827 18.097 125.357 18.097 124.839C18.097 124.321 17.9771 123.854 17.7372 123.437C17.4973 123.014 17.1658 122.686 16.7429 122.453C16.3199 122.213 15.8464 122.093 15.3224 122.093C14.7984 122.093 14.3218 122.213 13.8925 122.453C13.4695 122.686 13.1349 123.014 12.8887 123.437C12.6488 123.854 12.5289 124.321 12.5289 124.839C12.5289 125.357 12.6488 125.827 12.8887 126.25C13.1349 126.667 13.4695 126.995 13.8925 127.235C14.3218 127.468 14.7984 127.585 15.3224 127.585ZM22.073 125.653L20.8988 126.733V128.153H20.2264V121.127H20.8988V125.89L23.8722 123.172H24.7056L22.5749 125.208L24.9044 128.153H24.0806L22.073 125.653ZM27.7463 128.201C27.2665 128.201 26.834 128.093 26.4489 127.879C26.0638 127.658 25.7608 127.355 25.5399 126.97C25.3189 126.585 25.2084 126.149 25.2084 125.663C25.2084 125.177 25.3189 124.741 25.5399 124.356C25.7608 123.971 26.0638 123.671 26.4489 123.456C26.834 123.242 27.2665 123.134 27.7463 123.134C28.2261 123.134 28.6585 123.242 29.0436 123.456C29.4287 123.671 29.7286 123.971 29.9432 124.356C30.1642 124.741 30.2747 125.177 30.2747 125.663C30.2747 126.149 30.1642 126.585 29.9432 126.97C29.7286 127.355 29.4287 127.658 29.0436 127.879C28.6585 128.093 28.2261 128.201 27.7463 128.201ZM27.7463 127.604C28.0998 127.604 28.4155 127.525 28.6933 127.367C28.9773 127.203 29.1983 126.973 29.3561 126.676C29.514 126.379 29.5929 126.042 29.5929 125.663C29.5929 125.284 29.514 124.946 29.3561 124.65C29.1983 124.353 28.9773 124.126 28.6933 123.968C28.4155 123.804 28.0998 123.722 27.7463 123.722C27.3928 123.722 27.0739 123.804 26.7899 123.968C26.5121 124.126 26.2911 124.353 26.127 124.65C25.9691 124.946 25.8902 125.284 25.8902 125.663C25.8902 126.042 25.9691 126.379 26.127 126.676C26.2911 126.973 26.5121 127.203 26.7899 127.367C27.0739 127.525 27.3928 127.604 27.7463 127.604ZM32.2913 124.148C32.4491 123.813 32.6827 123.561 32.992 123.39C33.3077 123.22 33.6959 123.134 34.1568 123.134V123.788L33.9958 123.778C33.4718 123.778 33.0615 123.939 32.7648 124.261C32.468 124.583 32.3197 125.035 32.3197 125.615V128.153H31.6473V123.172H32.2913V124.148ZM35.3742 123.172H36.0465V128.153H35.3742V123.172ZM35.7151 122.083C35.5762 122.083 35.4594 122.036 35.3647 121.941C35.27 121.847 35.2226 121.733 35.2226 121.6C35.2226 121.474 35.27 121.364 35.3647 121.269C35.4594 121.174 35.5762 121.127 35.7151 121.127C35.854 121.127 35.9707 121.174 36.0654 121.269C36.1601 121.357 36.2075 121.465 36.2075 121.591C36.2075 121.73 36.1601 121.847 36.0654 121.941C35.9707 122.036 35.854 122.083 35.7151 122.083ZM42.2544 125.871H38.0877C38.1256 126.389 38.3245 126.809 38.6843 127.131C39.0442 127.446 39.4987 127.604 40.048 127.604C40.3573 127.604 40.6414 127.55 40.9002 127.443C41.1591 127.329 41.3832 127.165 41.5726 126.951L41.9513 127.386C41.7304 127.651 41.4526 127.853 41.118 127.992C40.7897 128.131 40.4267 128.201 40.029 128.201C39.5176 128.201 39.0631 128.093 38.6654 127.879C38.274 127.658 37.9678 127.355 37.7468 126.97C37.5259 126.585 37.4154 126.149 37.4154 125.663C37.4154 125.177 37.5196 124.741 37.7279 124.356C37.9425 123.971 38.2329 123.671 38.5991 123.456C38.9716 123.242 39.3882 123.134 39.8491 123.134C40.3099 123.134 40.7235 123.242 41.0896 123.456C41.4558 123.671 41.743 123.971 41.9513 124.356C42.1597 124.735 42.2638 125.17 42.2638 125.663L42.2544 125.871ZM39.8491 123.712C39.3693 123.712 38.9653 123.867 38.637 124.176C38.315 124.479 38.1319 124.877 38.0877 125.369H41.6199C41.5757 124.877 41.3895 124.479 41.0612 124.176C40.7392 123.867 40.3352 123.712 39.8491 123.712ZM48.9232 128.21C48.0646 128.21 47.3955 127.964 46.9157 127.472C46.4359 126.979 46.196 126.263 46.196 125.322V121.525H46.8967V125.293C46.8967 126.064 47.0703 126.638 47.4176 127.017C47.7648 127.396 48.2667 127.585 48.9232 127.585C49.5861 127.585 50.0912 127.396 50.4384 127.017C50.7856 126.638 50.9592 126.064 50.9592 125.293V121.525H51.641V125.322C51.641 126.263 51.4011 126.979 50.9213 127.472C50.4478 127.964 49.7818 128.21 48.9232 128.21ZM55.675 128.201C55.1826 128.201 54.7407 128.093 54.3493 127.879C53.9642 127.664 53.6611 127.364 53.4402 126.979C53.2192 126.588 53.1087 126.149 53.1087 125.663C53.1087 125.177 53.2192 124.741 53.4402 124.356C53.6611 123.971 53.9642 123.671 54.3493 123.456C54.7407 123.242 55.1826 123.134 55.675 123.134C56.1043 123.134 56.4862 123.22 56.8208 123.39C57.1618 123.554 57.4301 123.797 57.6258 124.119L57.1239 124.46C56.9597 124.214 56.7514 124.031 56.4989 123.911C56.2464 123.785 55.9717 123.722 55.675 123.722C55.3152 123.722 54.99 123.804 54.6996 123.968C54.4156 124.126 54.1914 124.353 54.0273 124.65C53.8695 124.946 53.7906 125.284 53.7906 125.663C53.7906 126.048 53.8695 126.389 54.0273 126.686C54.1914 126.976 54.4156 127.203 54.6996 127.367C54.99 127.525 55.3152 127.604 55.675 127.604C55.9717 127.604 56.2464 127.544 56.4989 127.424C56.7514 127.304 56.9597 127.121 57.1239 126.875L57.6258 127.216C57.4301 127.538 57.1618 127.784 56.8208 127.954C56.4799 128.119 56.098 128.201 55.675 128.201ZM61.4104 123.134C62.0354 123.134 62.531 123.317 62.8972 123.684C63.2697 124.043 63.4559 124.571 63.4559 125.265V128.153H62.7835V125.331C62.7835 124.814 62.6541 124.419 62.3953 124.148C62.1364 123.876 61.7671 123.74 61.2873 123.74C60.7507 123.74 60.3246 123.901 60.0089 124.223C59.6996 124.539 59.5449 124.978 59.5449 125.54V128.153H58.8726V121.127H59.5449V124.043C59.728 123.753 59.9805 123.529 60.3025 123.371C60.6245 123.213 60.9938 123.134 61.4104 123.134ZM69.6368 125.871H65.4702C65.5081 126.389 65.7069 126.809 66.0668 127.131C66.4266 127.446 66.8812 127.604 67.4304 127.604C67.7397 127.604 68.0238 127.55 68.2827 127.443C68.5415 127.329 68.7656 127.165 68.955 126.951L69.3338 127.386C69.1128 127.651 68.8351 127.853 68.5005 127.992C68.1722 128.131 67.8092 128.201 67.4115 128.201C66.9001 128.201 66.4456 128.093 66.0478 127.879C65.6564 127.658 65.3502 127.355 65.1293 126.97C64.9083 126.585 64.7978 126.149 64.7978 125.663C64.7978 125.177 64.902 124.741 65.1103 124.356C65.325 123.971 65.6154 123.671 65.9815 123.456C66.354 123.242 66.7707 123.134 67.2315 123.134C67.6924 123.134 68.1059 123.242 68.4721 123.456C68.8382 123.671 69.1255 123.971 69.3338 124.356C69.5421 124.735 69.6463 125.17 69.6463 125.663L69.6368 125.871ZM67.2315 123.712C66.7517 123.712 66.3477 123.867 66.0194 124.176C65.6975 124.479 65.5144 124.877 65.4702 125.369H69.0024C68.9582 124.877 68.7719 124.479 68.4437 124.176C68.1217 123.867 67.7176 123.712 67.2315 123.712ZM78.3227 127.547V128.153H73.6352V121.525H78.1807V122.131H74.336V124.489H77.764V125.085H74.336V127.547H78.3227ZM86.04 123.134C86.665 123.134 87.1542 123.314 87.5078 123.674C87.8676 124.034 88.0475 124.564 88.0475 125.265V128.153H87.3752V125.331C87.3752 124.814 87.2489 124.419 86.9964 124.148C86.7502 123.876 86.3998 123.74 85.9453 123.74C85.4276 123.74 85.0204 123.901 84.7237 124.223C84.427 124.539 84.2786 124.978 84.2786 125.54V128.153H83.6063V125.331C83.6063 124.814 83.48 124.419 83.2275 124.148C82.9813 123.876 82.6277 123.74 82.1669 123.74C81.6555 123.74 81.2483 123.901 80.9453 124.223C80.6486 124.539 80.5002 124.978 80.5002 125.54V128.153H79.8279V123.172H80.4718V124.081C80.6486 123.778 80.8948 123.545 81.2104 123.381C81.5261 123.216 81.8891 123.134 82.2995 123.134C82.7161 123.134 83.076 123.223 83.379 123.4C83.6883 123.576 83.9188 123.838 84.0703 124.186C84.2534 123.857 84.5154 123.602 84.8563 123.418C85.2035 123.229 85.598 123.134 86.04 123.134ZM96.083 123.134C96.708 123.134 97.1972 123.314 97.5508 123.674C97.9106 124.034 98.0905 124.564 98.0905 125.265V128.153H97.4182V125.331C97.4182 124.814 97.2919 124.419 97.0394 124.148C96.7932 123.876 96.4428 123.74 95.9883 123.74C95.4706 123.74 95.0634 123.901 94.7667 124.223C94.47 124.539 94.3216 124.978 94.3216 125.54V128.153H93.6493V125.331C93.6493 124.814 93.523 124.419 93.2705 124.148C93.0243 123.876 92.6707 123.74 92.2099 123.74C91.6985 123.74 91.2913 123.901 90.9883 124.223C90.6916 124.539 90.5432 124.978 90.5432 125.54V128.153H89.8709V123.172H90.5148V124.081C90.6916 123.778 90.9378 123.545 91.2534 123.381C91.5691 123.216 91.9321 123.134 92.3425 123.134C92.7591 123.134 93.119 123.223 93.422 123.4C93.7313 123.576 93.9618 123.838 94.1133 124.186C94.2964 123.857 94.5584 123.602 94.8993 123.418C95.2465 123.229 95.641 123.134 96.083 123.134ZM101.656 123.134C102.307 123.134 102.805 123.299 103.153 123.627C103.5 123.949 103.673 124.429 103.673 125.066V128.153H103.029V127.377C102.878 127.636 102.654 127.838 102.357 127.983C102.067 128.128 101.719 128.201 101.315 128.201C100.76 128.201 100.318 128.068 99.9896 127.803C99.6614 127.538 99.4972 127.187 99.4972 126.752C99.4972 126.329 99.6487 125.988 99.9518 125.729C100.261 125.47 100.75 125.341 101.42 125.341H103.001V125.038C103.001 124.609 102.881 124.283 102.641 124.062C102.401 123.835 102.051 123.722 101.59 123.722C101.274 123.722 100.971 123.775 100.681 123.883C100.391 123.984 100.141 124.126 99.9328 124.309L99.6298 123.807C99.8823 123.592 100.185 123.428 100.539 123.314C100.892 123.194 101.265 123.134 101.656 123.134ZM101.42 127.67C101.798 127.67 102.123 127.585 102.395 127.415C102.666 127.238 102.868 126.985 103.001 126.657V125.843H101.439C100.586 125.843 100.16 126.139 100.16 126.733C100.16 127.023 100.271 127.254 100.492 127.424C100.712 127.588 101.022 127.67 101.42 127.67ZM108.037 123.134C108.662 123.134 109.158 123.317 109.524 123.684C109.897 124.043 110.083 124.571 110.083 125.265V128.153H109.41V125.331C109.41 124.814 109.281 124.419 109.022 124.148C108.763 123.876 108.394 123.74 107.914 123.74C107.378 123.74 106.952 123.901 106.636 124.223C106.327 124.539 106.172 124.978 106.172 125.54V128.153H105.499V123.172H106.143V124.091C106.327 123.788 106.579 123.554 106.901 123.39C107.229 123.22 107.608 123.134 108.037 123.134ZM116.397 123.172V128.153H115.753V127.244C115.576 127.547 115.333 127.784 115.024 127.954C114.714 128.119 114.361 128.201 113.963 128.201C113.313 128.201 112.798 128.021 112.42 127.661C112.047 127.295 111.861 126.761 111.861 126.061V123.172H112.533V125.994C112.533 126.518 112.663 126.916 112.921 127.187C113.18 127.459 113.55 127.595 114.029 127.595C114.553 127.595 114.967 127.437 115.27 127.121C115.573 126.799 115.724 126.354 115.724 125.786V123.172H116.397ZM122.617 125.871H118.45C118.488 126.389 118.687 126.809 119.047 127.131C119.407 127.446 119.861 127.604 120.41 127.604C120.72 127.604 121.004 127.55 121.263 127.443C121.522 127.329 121.746 127.165 121.935 126.951L122.314 127.386C122.093 127.651 121.815 127.853 121.481 127.992C121.152 128.131 120.789 128.201 120.392 128.201C119.88 128.201 119.426 128.093 119.028 127.879C118.637 127.658 118.33 127.355 118.109 126.97C117.888 126.585 117.778 126.149 117.778 125.663C117.778 125.177 117.882 124.741 118.09 124.356C118.305 123.971 118.595 123.671 118.962 123.456C119.334 123.242 119.751 123.134 120.212 123.134C120.672 123.134 121.086 123.242 121.452 123.456C121.818 123.671 122.106 123.971 122.314 124.356C122.522 124.735 122.626 125.17 122.626 125.663L122.617 125.871ZM120.212 123.712C119.732 123.712 119.328 123.867 119 124.176C118.678 124.479 118.494 124.877 118.45 125.369H121.982C121.938 124.877 121.752 124.479 121.424 124.176C121.102 123.867 120.698 123.712 120.212 123.712ZM123.995 121.127H124.667V128.153H123.995V121.127Z" fill="white"/>
<path d="M205.819 123.017C205.806 124.065 206.753 124.65 207.467 124.998C208.201 125.355 208.447 125.584 208.444 125.903C208.439 126.392 207.859 126.608 207.317 126.616C206.37 126.631 205.82 126.36 205.383 126.156L205.042 127.751C205.481 127.954 206.293 128.13 207.136 128.138C209.114 128.138 210.408 127.161 210.415 125.647C210.423 123.726 207.758 123.619 207.776 122.761C207.782 122.5 208.031 122.222 208.575 122.152C208.845 122.116 209.589 122.089 210.432 122.477L210.763 120.934C210.31 120.769 209.727 120.61 209.001 120.61C207.139 120.61 205.829 121.6 205.819 123.017V123.017ZM213.945 120.743C213.583 120.743 213.279 120.954 213.143 121.277L210.317 128.024H212.294L212.688 126.937H215.103L215.331 128.024H217.073L215.553 120.743H213.945V120.743ZM214.221 122.71L214.792 125.444H213.229L214.221 122.71V122.71ZM203.422 120.743L201.864 128.024H203.748L205.305 120.743H203.422V120.743ZM200.636 120.743L198.675 125.699L197.882 121.485C197.789 121.015 197.421 120.743 197.013 120.743H193.808L193.764 120.955C194.422 121.098 195.169 121.328 195.622 121.574C195.899 121.725 195.978 121.856 196.069 122.214L197.571 128.024H199.562L202.614 120.743H200.636" fill="url(#paint0_linear)"/>
<path d="M194.098 82.8238L174.891 88.2992L179.752 68.9277L194.098 82.8238Z" fill="url(#paint1_linear)"/>
<path d="M101.175 73.7984L81.9682 79.2738L86.8299 59.9023L101.175 73.7984Z" fill="url(#paint2_linear)"/>
<path d="M216.808 53.7245L217.296 62.59L209.374 58.5797L216.808 53.7245Z" fill="url(#paint3_linear)"/>
<path d="M152.687 99.3442L145.6 108.164L141.506 97.6165L152.687 99.3442Z" fill="url(#paint4_linear)"/>
<path d="M182.684 104.01L183.024 110.178L177.513 107.388L182.684 104.01Z" fill="url(#paint5_linear)"/>
<path d="M124.403 41.6107L124.743 47.7782L119.232 44.9884L124.403 41.6107Z" fill="url(#paint6_linear)"/>
<path d="M214.007 82.1566L214.346 88.3241L208.835 85.5343L214.007 82.1566Z" fill="url(#paint7_linear)"/>
<path d="M20.0384 32.7455C19.9895 32.6952 19.9304 32.6561 19.865 32.6309C19.7996 32.6056 19.7295 32.5949 19.6595 32.5993C19.5896 32.6038 19.5214 32.6234 19.4598 32.6567C19.3981 32.6901 19.3444 32.7364 19.3024 32.7925C17.7523 34.9244 16.9193 37.4936 16.9234 40.1295C16.9234 42.8705 17.8054 45.4065 19.3024 47.4665C19.3443 47.5226 19.398 47.569 19.4596 47.6024C19.5212 47.6359 19.5893 47.6555 19.6593 47.6601C19.7292 47.6647 19.7994 47.654 19.8648 47.6289C19.9302 47.6037 19.9895 47.5647 20.0384 47.5145C20.1244 47.4271 20.1767 47.312 20.1859 47.1896C20.195 47.0673 20.1605 46.9457 20.0884 46.8465C18.6773 44.8913 17.9197 42.5406 17.9234 40.1295C17.9234 37.6225 18.7254 35.3025 20.0874 33.4135C20.2354 33.2085 20.2174 32.9235 20.0384 32.7455V32.7455Z" fill="#F7F6F6"/>
<path d="M22.1944 34.9003C22.1446 34.8488 22.0841 34.809 22.017 34.7838C21.95 34.7586 21.8782 34.7487 21.8069 34.7547C21.7355 34.7608 21.6664 34.7826 21.6046 34.8187C21.5427 34.8548 21.4897 34.9042 21.4494 34.9633C20.4505 36.501 19.9204 38.2958 19.9234 40.1293C19.9234 42.0343 20.4834 43.8093 21.4494 45.2953C21.4895 45.3548 21.5424 45.4045 21.6043 45.4408C21.6661 45.4771 21.7353 45.4991 21.8068 45.5051C21.8782 45.5112 21.9502 45.5011 22.0172 45.4757C22.0843 45.4503 22.1448 45.4102 22.1944 45.3583C22.2775 45.2731 22.3292 45.1622 22.3411 45.0437C22.3529 44.9253 22.3241 44.8063 22.2594 44.7063C21.3844 43.3403 20.9207 41.7516 20.9234 40.1293C20.9208 38.5075 21.3846 36.9191 22.2594 35.5533C22.3914 35.3473 22.3674 35.0733 22.1944 34.9003V34.9003ZM24.3774 37.0833C24.1514 36.8573 23.7724 36.8983 23.6274 37.1833C23.163 38.0959 22.9217 39.1055 22.9234 40.1293C22.9234 41.1893 23.1774 42.1913 23.6274 43.0753C23.7724 43.3603 24.1514 43.4013 24.3774 43.1753L24.3924 43.1603C24.5524 43.0003 24.5824 42.7533 24.4824 42.5493C24.1132 41.7961 23.9219 40.9682 23.9234 40.1293C23.9234 39.2613 24.1244 38.4393 24.4834 37.7093C24.5834 37.5063 24.5534 37.2593 24.3924 37.0993L24.3774 37.0833ZM26.3634 39.0693C26.1674 38.8733 25.8434 38.8713 25.7034 39.1093C25.5197 39.4179 25.423 39.7703 25.4234 40.1293C25.423 40.4884 25.5197 40.8408 25.7034 41.1493C25.8434 41.3873 26.1674 41.3853 26.3634 41.1893L27.0694 40.4833C27.1631 40.3896 27.2157 40.2624 27.2157 40.1298C27.2157 39.9973 27.1631 39.8701 27.0694 39.7763L26.3624 39.0693H26.3634Z" fill="#F7F6F6"/>
<defs>
<linearGradient id="paint0_linear" x1="204.48" y1="128.289" x2="204.698" y2="120.558" gradientUnits="userSpaceOnUse">
<stop stop-color="#5190C4"/>
<stop offset="1" stop-color="#C2C0CA"/>
</linearGradient>
<linearGradient id="paint1_linear" x1="194.098" y1="82.8238" x2="171.729" y2="77.21" gradientUnits="userSpaceOnUse">
<stop stop-color="#EEEEEE" stop-opacity="0.06"/>
<stop offset="1" stop-color="white" stop-opacity="0.29"/>
</linearGradient>
<linearGradient id="paint2_linear" x1="101.175" y1="73.7984" x2="78.8069" y2="68.1846" gradientUnits="userSpaceOnUse">
<stop stop-color="#EEEEEE" stop-opacity="0.06"/>
<stop offset="1" stop-color="white" stop-opacity="0.29"/>
</linearGradient>
<linearGradient id="paint3_linear" x1="216.808" y1="53.7245" x2="212.177" y2="62.8717" gradientUnits="userSpaceOnUse">
<stop stop-color="#EEEEEE" stop-opacity="0.06"/>
<stop offset="1" stop-color="white" stop-opacity="0.29"/>
</linearGradient>
<linearGradient id="paint4_linear" x1="152.687" y1="99.3442" x2="140.508" y2="104.072" gradientUnits="userSpaceOnUse">
<stop stop-color="#EEEEEE" stop-opacity="0.06"/>
<stop offset="1" stop-color="white" stop-opacity="0.29"/>
</linearGradient>
<linearGradient id="paint5_linear" x1="182.684" y1="104.01" x2="179.463" y2="110.374" gradientUnits="userSpaceOnUse">
<stop stop-color="#EEEEEE" stop-opacity="0.06"/>
<stop offset="1" stop-color="white" stop-opacity="0.29"/>
</linearGradient>
<linearGradient id="paint6_linear" x1="124.403" y1="41.6107" x2="121.182" y2="47.9741" gradientUnits="userSpaceOnUse">
<stop stop-color="#EEEEEE" stop-opacity="0.06"/>
<stop offset="1" stop-color="white" stop-opacity="0.29"/>
</linearGradient>
<linearGradient id="paint7_linear" x1="214.007" y1="82.1566" x2="210.785" y2="88.52" gradientUnits="userSpaceOnUse">
<stop stop-color="#EEEEEE" stop-opacity="0.06"/>
<stop offset="1" stop-color="white" stop-opacity="0.29"/>
</linearGradient>
</defs>
</svg>
