<svg width="18" height="20" viewBox="0 0 18 20" fill="none" xmlns="http://www.w3.org/2000/svg">
<path d="M7.79994 0.97888C8.08174 0.779797 8.41876 0.672852 8.76432 0.672852C9.10988 0.672852 9.44689 0.779797 9.72869 0.97888L17.0437 6.14508C17.9524 6.78712 17.4974 8.21306 16.3837 8.21555H1.14869C0.031191 8.21555 -0.426309 6.78837 0.486191 6.14508L7.79994 0.97888ZM8.76494 5.57147C9.04126 5.57147 9.30627 5.46221 9.50166 5.26772C9.69705 5.07322 9.80682 4.80943 9.80682 4.53438C9.80682 4.25932 9.69705 3.99553 9.50166 3.80104C9.30627 3.60654 9.04126 3.49728 8.76494 3.49728C8.48862 3.49728 8.22361 3.60654 8.02822 3.80104C7.83283 3.99553 7.72307 4.25932 7.72307 4.53438C7.72307 4.80943 7.83283 5.07322 8.02822 5.26772C8.22361 5.46221 8.48862 5.57147 8.76494 5.57147Z" fill="#FD0707"/>
<path d="M1.88992 9.45801V14.4351H4.38992V9.45801H1.88992Z" fill="#FD0707"/>
<path d="M0.0149231 18.376C0.0149231 16.8866 1.22742 15.6797 2.72242 15.6797H14.8062C16.3024 15.6797 17.5149 16.8866 17.5149 18.376V18.7904C17.5149 18.9554 17.4491 19.1136 17.3319 19.2303C17.2147 19.347 17.0557 19.4125 16.8899 19.4125H0.639923C0.474163 19.4125 0.315192 19.347 0.197981 19.2303C0.0807712 19.1136 0.0149231 18.9554 0.0149231 18.7904V18.376Z" fill="#FD0707"/>
<path d="M15.6399 9.45801V14.4351H13.1399V9.45801H15.6399Z" fill="#FD0707"/>
<path d="M11.8899 9.45801V14.4351H9.38992V9.45801H11.8899Z" fill="#FD0707"/>
<path d="M8.13992 9.45801V14.4351H5.63992V9.45801H8.13992Z" fill="#FD0707"/>
</svg>
