<svg width="18" height="21" viewBox="0 0 18 21" fill="none" xmlns="http://www.w3.org/2000/svg">
<path fill-rule="evenodd" clip-rule="evenodd" d="M4.81 0.90918H13.191C16.28 0.90918 18 2.68103 18 5.71706V15.9998C18 19.0856 16.28 20.8176 13.191 20.8176H4.81C1.77 20.8176 0 19.0856 0 15.9998V5.71706C0 2.68103 1.77 0.90918 4.81 0.90918ZM5.08 5.54784V5.53789H8.069C8.5 5.53789 8.85 5.88628 8.85 6.31332C8.85 6.7523 8.5 7.1007 8.069 7.1007H5.08C4.649 7.1007 4.3 6.7523 4.3 6.32427C4.3 5.89624 4.649 5.54784 5.08 5.54784ZM5.08 11.6H12.92C13.35 11.6 13.7 11.2516 13.7 10.8236C13.7 10.3955 13.35 10.0461 12.92 10.0461H5.08C4.649 10.0461 4.3 10.3955 4.3 10.8236C4.3 11.2516 4.649 11.6 5.08 11.6ZM5.08 16.1491H12.92C13.319 16.1093 13.62 15.7698 13.62 15.3726C13.62 14.9645 13.319 14.6261 12.92 14.5863H5.08C4.78 14.5564 4.49 14.6958 4.33 14.9546C4.17 15.2034 4.17 15.5319 4.33 15.7907C4.49 16.0396 4.78 16.1889 5.08 16.1491Z" fill="#979797"/>
</svg>
