<svg width="14" height="17" viewBox="0 0 14 17" fill="none" xmlns="http://www.w3.org/2000/svg">
<path d="M13.5497 8.92874L6.92673 2.44262C6.62971 2.14651 6.2397 2.10742 5.85014 2.10742H1.30139C0.46449 2.10742 0 2.56978 0 3.40285V7.93302C0 8.31989 0.0401746 8.70721 0.336744 9.00243L6.90642 15.595C7.4982 16.1837 8.43125 16.1837 9.02258 15.595L13.5632 11.0622C14.1545 10.4726 14.141 9.51736 13.5497 8.92874ZM2.89844 4.99258C2.63437 5.25544 2.20644 5.25544 1.94237 4.99258C1.6783 4.72973 1.67785 4.30376 1.94237 4.0409C2.20644 3.77759 2.63437 3.77804 2.89844 4.0409C3.16251 4.30421 3.16296 4.72973 2.89844 4.99258Z" fill="#FFD983"/>
<path d="M3.5895 3.35333C2.944 2.71035 1.8972 2.71035 1.25169 3.35333C0.605738 3.99586 0.605738 5.03784 1.25169 5.68082C1.8972 6.32335 2.944 6.32335 3.58995 5.68082C4.23545 5.03784 4.235 3.99631 3.5895 3.35333ZM2.89886 4.99336C2.63479 5.25621 2.20641 5.25621 1.94234 4.99336C1.67827 4.7305 1.67782 4.3041 1.94234 4.04124C2.20641 3.77749 2.63479 3.77839 2.89886 4.04124C3.16293 4.3041 3.16338 4.73005 2.89886 4.99336Z" fill="#D99E82"/>
<path d="M2.93732 4.57972C2.76082 4.75541 2.47554 4.75541 2.29859 4.57972C2.12209 4.40403 2.12254 4.12005 2.29859 3.94436L6.12872 0.131767C6.30522 -0.0439224 6.59051 -0.0439224 6.76745 0.131767C6.94395 0.307456 6.9435 0.591435 6.76745 0.767125L2.93732 4.57972Z" fill="#C1694F"/>
</svg>
