<svg width="20" height="20" viewBox="0 0 20 20" fill="none" xmlns="http://www.w3.org/2000/svg">
<path d="M15.3834 0.767051C15.3837 0.615414 15.3387 0.467112 15.2542 0.340944C15.1697 0.214777 15.0495 0.116426 14.9087 0.0583609C14.768 0.00029549 14.6131 -0.0148697 14.4637 0.0147878C14.3143 0.0444454 14.1772 0.11759 14.0696 0.224949L10.9928 3.28767C10.9214 3.35891 10.8648 3.44345 10.8263 3.53647C10.7877 3.62949 10.768 3.72915 10.7681 3.82977V8.10686L9.62819 9.24007C9.40014 9.17983 9.16125 9.17251 8.92991 9.21865C8.69857 9.2648 8.48096 9.3632 8.29384 9.50626C8.10672 9.64932 7.9551 9.83322 7.85064 10.0438C7.74618 10.2544 7.69167 10.486 7.69132 10.7209C7.69164 10.9388 7.73866 11.1541 7.82924 11.3524C7.91982 11.5507 8.05187 11.7275 8.21657 11.871C8.38128 12.0145 8.57484 12.1214 8.78434 12.1844C8.99384 12.2475 9.21445 12.2654 9.43143 12.2368C9.64841 12.2082 9.85678 12.1339 10.0426 12.0188C10.2284 11.9037 10.3874 11.7504 10.509 11.5692C10.6306 11.3881 10.7119 11.1832 10.7476 10.9682C10.7832 10.7533 10.7724 10.5332 10.7158 10.3227L11.8558 9.18953H16.1526C16.2537 9.18971 16.3538 9.17006 16.4472 9.1317C16.5407 9.09333 16.6256 9.03701 16.6972 8.96596L19.774 5.90323C19.8819 5.79615 19.9553 5.65959 19.9851 5.51089C20.0149 5.36218 19.9997 5.20801 19.9414 5.06793C19.883 4.92785 19.7842 4.80817 19.6575 4.72406C19.5307 4.63994 19.3818 4.59518 19.2294 4.59545H15.3834V0.767051ZM18.3741 9.46212C18.6388 11.3689 18.2952 13.3103 17.3918 15.0123C16.4884 16.7142 15.0708 18.0908 13.3392 18.9476C11.6075 19.8045 9.64928 20.0983 7.74084 19.7876C5.8324 19.477 4.07018 18.5775 2.70291 17.2163C1.33565 15.855 0.43242 14.1007 0.120713 12.2009C-0.190995 10.3012 0.104568 8.35198 0.96568 6.62843C1.82679 4.90489 3.20996 3.49409 4.91993 2.59516C6.62991 1.69624 8.58032 1.35461 10.4958 1.61849L9.90664 2.205C9.69211 2.41828 9.52191 2.67155 9.40576 2.95034C9.28962 3.22912 9.2298 3.52796 9.22974 3.82977C7.86053 3.82977 6.52206 4.23393 5.3836 4.99114C4.24515 5.74834 3.35783 6.82459 2.83385 8.08378C2.30988 9.34296 2.17278 10.7285 2.4399 12.0653C2.70702 13.402 3.36636 14.6299 4.33454 15.5937C5.30272 16.5574 6.53625 17.2137 7.87916 17.4796C9.22206 17.7455 10.614 17.609 11.879 17.0875C13.144 16.5659 14.2252 15.6826 14.9859 14.5494C15.7466 13.4162 16.1526 12.0838 16.1526 10.7209C16.7644 10.7204 17.351 10.478 17.7833 10.0471L18.3741 9.46212ZM9.22974 5.36113C8.16479 5.36113 7.12377 5.67548 6.2383 6.26442C5.35283 6.85335 4.6627 7.69043 4.25516 8.6698C3.84762 9.64917 3.74099 10.7268 3.94875 11.7665C4.15651 12.8062 4.66933 13.7612 5.42236 14.5108C6.17539 15.2604 7.1348 15.7709 8.17928 15.9777C9.22376 16.1845 10.3064 16.0783 11.2903 15.6727C12.2742 15.267 13.1151 14.58 13.7067 13.6986C14.2984 12.8172 14.6142 11.781 14.6142 10.7209H12.4927L12.3004 10.9123C12.2634 11.5006 12.0567 12.0658 11.705 12.54C11.3533 13.0143 10.8716 13.3774 10.3177 13.5859C9.76375 13.7943 9.16118 13.8392 8.58226 13.7152C8.00334 13.5912 7.47267 13.3035 7.05395 12.8867C6.63522 12.4699 6.34622 11.9417 6.22163 11.3654C6.09704 10.7891 6.14217 10.1893 6.35158 9.63796C6.56099 9.08659 6.92579 8.60709 7.40221 8.257C7.87863 7.90691 8.44642 7.70111 9.03744 7.6643L9.22974 7.47288V5.36113Z" fill="#3D7489"/>
</svg>
