<svg width="26" height="20" viewBox="0 0 26 20" fill="none" xmlns="http://www.w3.org/2000/svg">
<path d="M14.8571 8.06349C14.8571 9.04407 14.4658 9.98449 13.7693 10.6779C13.0727 11.3712 12.128 11.7608 11.1429 11.7608C10.1578 11.7608 9.21303 11.3712 8.51646 10.6779C7.8199 9.98449 7.42857 9.04407 7.42857 8.06349C7.42857 7.08291 7.8199 6.14249 8.51646 5.44912C9.21303 4.75574 10.1578 4.36621 11.1429 4.36621C12.128 4.36621 13.0727 4.75574 13.7693 5.44912C14.4658 6.14249 14.8571 7.08291 14.8571 8.06349ZM13 8.06349C13 7.5732 12.8043 7.10299 12.4561 6.75631C12.1078 6.40962 11.6354 6.21485 11.1429 6.21485C10.6503 6.21485 10.1779 6.40962 9.82966 6.75631C9.48138 7.10299 9.28572 7.5732 9.28572 8.06349C9.28572 8.55378 9.48138 9.02399 9.82966 9.37068C10.1779 9.71736 10.6503 9.91213 11.1429 9.91213C11.6354 9.91213 12.1078 9.71736 12.4561 9.37068C12.8043 9.02399 13 8.55378 13 8.06349Z" fill="#FFBF45"/>
<path d="M0 2.97974C0 1.70418 1.04 0.668945 2.32143 0.668945H19.9643C21.2457 0.668945 22.2857 1.70418 22.2857 2.97974V13.1472C22.2857 14.4228 21.2457 15.458 19.9643 15.458H2.32143C1.04 15.458 0 14.4228 0 13.1472V2.97974ZM2.32143 2.51758C2.19829 2.51758 2.0802 2.56627 1.99313 2.65294C1.90606 2.73961 1.85714 2.85716 1.85714 2.97974V4.36621H2.78572C3.03199 4.36621 3.26817 4.26883 3.44231 4.09548C3.61646 3.92214 3.71429 3.68704 3.71429 3.44189V2.51758H2.32143ZM1.85714 13.1472C1.85714 13.4023 2.06514 13.6094 2.32143 13.6094H3.71429V12.6851C3.71429 12.4399 3.61646 12.2048 3.44231 12.0315C3.26817 11.8581 3.03199 11.7607 2.78572 11.7607H1.85714V13.1472ZM5.57143 12.6851V13.6094H16.7143V12.6851C16.7143 11.9496 17.0078 11.2443 17.5302 10.7243C18.0526 10.2043 18.7612 9.91211 19.5 9.91211H20.4286V6.21484H19.5C18.7612 6.21484 18.0526 5.9227 17.5302 5.40267C17.0078 4.88264 16.7143 4.17733 16.7143 3.44189V2.51758H5.57143V3.44189C5.57143 4.17733 5.27794 4.88264 4.75551 5.40267C4.23309 5.9227 3.52453 6.21484 2.78572 6.21484H1.85714V9.91211H2.78572C3.52453 9.91211 4.23309 10.2043 4.75551 10.7243C5.27794 11.2443 5.57143 11.9496 5.57143 12.6851ZM18.5714 13.6094H19.9643C20.0874 13.6094 20.2055 13.5607 20.2926 13.474C20.3797 13.3873 20.4286 13.2698 20.4286 13.1472V11.7607H19.5C19.2537 11.7607 19.0175 11.8581 18.8434 12.0315C18.6693 12.2048 18.5714 12.4399 18.5714 12.6851V13.6094ZM20.4286 4.36621V2.97974C20.4286 2.85716 20.3797 2.73961 20.2926 2.65294C20.2055 2.56627 20.0874 2.51758 19.9643 2.51758H18.5714V3.44189C18.5714 3.68704 18.6693 3.92214 18.8434 4.09548C19.0175 4.26883 19.2537 4.36621 19.5 4.36621H20.4286Z" fill="#FFBF45"/>
<path d="M6.5 19.1554C5.91169 19.1556 5.33841 18.9705 4.86234 18.6264C4.38627 18.2824 4.03184 17.7971 3.84985 17.2402C4.108 17.2846 4.37171 17.3068 4.64285 17.3068H19.9643C21.0725 17.3068 22.1353 16.8686 22.919 16.0885C23.7026 15.3085 24.1429 14.2505 24.1429 13.1473V4.52344C24.6862 4.71466 25.1566 5.06894 25.4892 5.53743C25.8218 6.00593 26.0003 6.56558 26 7.13926V13.1473C26 13.9363 25.8439 14.7176 25.5406 15.4465C25.2372 16.1755 24.7926 16.8378 24.2322 17.3957C23.6717 17.9536 23.0063 18.3962 22.2741 18.6981C21.5418 19 20.7569 19.1554 19.9643 19.1554H6.5Z" fill="#FFBF45"/>
</svg>
