<svg width="23" height="24" viewBox="0 0 23 24" fill="none" xmlns="http://www.w3.org/2000/svg">
<path d="M1.4375 16.5576H21.5625V17.9951H1.4375V16.5576Z" fill="#74C947"/>
<path d="M1.4375 19.4326H21.5625V20.8701H1.4375V19.4326Z" fill="#74C947"/>
<path d="M17.25 7.93262C16.9657 7.93262 16.6878 8.01693 16.4514 8.17488C16.215 8.33283 16.0307 8.55734 15.9219 8.82001C15.8131 9.08268 15.7847 9.37171 15.8401 9.65056C15.8956 9.92941 16.0325 10.1855 16.2335 10.3866C16.4346 10.5876 16.6907 10.7245 16.9696 10.78C17.2484 10.8355 17.5374 10.807 17.8001 10.6982C18.0628 10.5894 18.2873 10.4051 18.4452 10.1687C18.6032 9.93235 18.6875 9.65443 18.6875 9.37012C18.6875 8.98887 18.5361 8.62323 18.2665 8.35365C17.9969 8.08407 17.6312 7.93262 17.25 7.93262Z" fill="#74C947"/>
<path d="M11.5 12.2451C10.9314 12.2451 10.3755 12.0765 9.90274 11.7606C9.42995 11.4447 9.06145 10.9957 8.84385 10.4703C8.62625 9.945 8.56931 9.36693 8.68024 8.80923C8.79118 8.25154 9.06499 7.73926 9.46707 7.33719C9.86915 6.93511 10.3814 6.66129 10.9391 6.55036C11.4968 6.43943 12.0749 6.49636 12.6002 6.71396C13.1256 6.93157 13.5746 7.30006 13.8905 7.77285C14.2064 8.24565 14.375 8.8015 14.375 9.37012C14.3741 10.1323 14.0708 10.863 13.5319 11.402C12.9929 11.941 12.2622 12.2442 11.5 12.2451ZM11.5 7.93262C11.2157 7.93262 10.9378 8.01693 10.7014 8.17488C10.465 8.33284 10.2807 8.55734 10.1719 8.82001C10.0631 9.08268 10.0347 9.37171 10.0901 9.65056C10.1456 9.92941 10.2825 10.1855 10.4835 10.3866C10.6846 10.5876 10.9407 10.7245 11.2196 10.78C11.4984 10.8355 11.7874 10.807 12.0501 10.6982C12.3128 10.5894 12.5373 10.4051 12.6952 10.1688C12.8532 9.93236 12.9375 9.65443 12.9375 9.37012C12.9371 8.98899 12.7855 8.62357 12.516 8.35407C12.2465 8.08457 11.8811 7.933 11.5 7.93262Z" fill="#74C947"/>
<path d="M5.75 7.93262C5.46569 7.93262 5.18776 8.01693 4.95137 8.17488C4.71497 8.33283 4.53072 8.55734 4.42192 8.82001C4.31312 9.08268 4.28466 9.37171 4.34012 9.65056C4.39559 9.92941 4.5325 10.1855 4.73353 10.3866C4.93457 10.5876 5.19071 10.7245 5.46956 10.78C5.74841 10.8355 6.03744 10.807 6.30011 10.6982C6.56278 10.5894 6.78728 10.4051 6.94524 10.1687C7.10319 9.93235 7.1875 9.65443 7.1875 9.37012C7.1875 8.98887 7.03605 8.62323 6.76647 8.35365C6.49688 8.08407 6.13125 7.93262 5.75 7.93262Z" fill="#74C947"/>
<path d="M20.125 15.1201H2.875C2.49404 15.1192 2.12896 14.9674 1.85958 14.698C1.5902 14.4287 1.43845 14.0636 1.4375 13.6826V5.05762C1.43845 4.67666 1.5902 4.31158 1.85958 4.0422C2.12896 3.77282 2.49404 3.62107 2.875 3.62012H20.125C20.506 3.62107 20.871 3.77282 21.1404 4.0422C21.4098 4.31158 21.5616 4.67666 21.5625 5.05762V13.6826C21.5619 14.0637 21.4103 14.429 21.1408 14.6985C20.8714 14.9679 20.5061 15.1195 20.125 15.1201ZM20.125 5.05762H2.875V13.6826H20.125V5.05762Z" fill="#74C947"/>
</svg>
