<svg width="22" height="16" viewBox="0 0 22 16" fill="none" xmlns="http://www.w3.org/2000/svg">
    <path d="M6.6 7.6647C8.72781 7.6647 10.45 5.95041 10.45 3.83235C10.45 1.71429 8.72781 0 6.6 0C4.47219 0 2.75 1.71429 2.75 3.83235C2.75 5.95041 4.47219 7.6647 6.6 7.6647ZM9.24 8.75966H8.95469C8.23969 9.10184 7.44563 9.30714 6.6 9.30714C5.75437 9.30714 4.96375 9.10184 4.24531 8.75966H3.96C1.77375 8.75966 0 10.5253 0 12.7015V13.687C0 14.5937 0.739062 15.3294 1.65 15.3294H11.55C12.4609 15.3294 13.2 14.5937 13.2 13.687V12.7015C13.2 10.5253 11.4262 8.75966 9.24 8.75966ZM16.5 7.6647C18.3219 7.6647 19.8 6.19335 19.8 4.37983C19.8 2.56631 18.3219 1.09496 16.5 1.09496C14.6781 1.09496 13.2 2.56631 13.2 4.37983C13.2 6.19335 14.6781 7.6647 16.5 7.6647ZM18.15 8.75966H18.0194C17.5416 8.9239 17.0363 9.0334 16.5 9.0334C15.9637 9.0334 15.4584 8.9239 14.9806 8.75966H14.85C14.1488 8.75966 13.5025 8.96154 12.9353 9.28661C13.7741 10.1865 14.3 11.3807 14.3 12.7015V14.0155C14.3 14.0907 14.2828 14.1626 14.2794 14.2344H20.35C21.2609 14.2344 22 13.4988 22 12.592C22 10.474 20.2778 8.75966 18.15 8.75966Z" fill="currentColor" />
</svg>