<svg width="23" height="15" viewBox="0 0 23 15" fill="none" xmlns="http://www.w3.org/2000/svg">
<path fill-rule="evenodd" clip-rule="evenodd" d="M11.0019 0.894531C10.22 0.894286 9.45516 1.12216 8.80197 1.54999C8.14877 1.97782 7.63587 2.58683 7.32667 3.30172C7.01748 4.01661 6.92556 4.80604 7.06228 5.57238C7.19899 6.33871 7.55835 7.04836 8.09592 7.61357C6.9781 8.22891 6.08682 9.18342 5.55189 10.3381C5.01696 11.4927 4.86633 12.7872 5.12192 14.033C5.16782 14.258 5.29047 14.4603 5.46907 14.6056C5.64767 14.7509 5.87125 14.8303 6.10192 14.8303H15.9019C16.1326 14.8303 16.3562 14.7509 16.5348 14.6056C16.7134 14.4603 16.836 14.258 16.8819 14.033C17.1377 12.787 16.9872 11.4923 16.4523 10.3375C15.9173 9.18264 15.0259 8.22797 13.9079 7.61258C14.4452 7.04733 14.8042 6.33777 14.9408 5.5716C15.0773 4.80542 14.9853 4.01622 14.6761 3.30153C14.367 2.58683 13.8542 1.97797 13.2012 1.55019C12.5482 1.12241 11.7836 0.89447 11.0019 0.894531ZM15.5859 6.64703C15.8519 6.11349 16.0019 5.51226 16.0019 4.87619C16.0019 4.24012 15.8519 3.63889 15.5859 3.10535C15.8209 2.79057 16.1159 2.52496 16.454 2.32366C16.7922 2.12237 17.1668 1.98934 17.5566 1.93217C17.9464 1.875 18.3436 1.89481 18.7257 1.99047C19.1078 2.08613 19.4672 2.25576 19.7834 2.48968C20.0996 2.7236 20.3665 3.01724 20.5687 3.35381C20.7709 3.69039 20.9046 4.06331 20.962 4.4513C21.0194 4.83928 20.9995 5.23473 20.9034 5.61506C20.8073 5.99539 20.6369 6.35316 20.4019 6.66793C20.8987 7.03881 21.3019 7.51973 21.5796 8.0726C21.8573 8.62548 22.0019 9.23512 22.0019 9.85325V10.8487C22.0019 11.1127 21.8966 11.3659 21.709 11.5525C21.5215 11.7392 21.2671 11.8441 21.0019 11.8441H17.9189C17.7681 10.9591 17.4191 10.1192 16.8977 9.38687C16.3762 8.6545 15.6958 8.04841 14.9069 7.61357C15.1659 7.34126 15.3851 7.03397 15.5579 6.70078C15.5725 6.68972 15.5872 6.67877 15.6019 6.66793L15.5859 6.64703ZM7.09592 7.61258C6.83735 7.3405 6.61854 7.03356 6.44592 6.70078C6.43133 6.68973 6.41666 6.67878 6.40192 6.66793L6.41792 6.64703C6.14332 6.09679 6.00091 5.49057 6.00192 4.87619C6.00192 4.24012 6.15192 3.63889 6.41792 3.10535C6.18292 2.79057 5.88794 2.52496 5.54981 2.32366C5.21168 2.12237 4.83704 1.98934 4.44727 1.93217C4.05749 1.875 3.66022 1.89481 3.27814 1.99047C2.89606 2.08613 2.53664 2.25576 2.22042 2.48968C1.9042 2.7236 1.63736 3.01724 1.43514 3.35381C1.23291 3.69039 1.09927 4.06331 1.04184 4.4513C0.984406 4.83928 1.00431 5.23473 1.10041 5.61506C1.1965 5.99539 1.36692 6.35316 1.60192 6.66793C0.919387 7.17605 0.418046 7.88818 0.171191 8.70021C-0.0756633 9.51224 -0.0550842 10.3816 0.22992 11.1811C0.298916 11.375 0.426521 11.5427 0.595197 11.6615C0.763874 11.7802 0.965344 11.844 1.17192 11.8441H4.08392C4.23459 10.9592 4.5835 10.1194 5.10474 9.38702C5.62599 8.65466 6.3062 8.04852 7.09492 7.61357L7.09592 7.61258Z" fill="#508B30"/>
</svg>
