<svg width="24" height="29" viewBox="0 0 24 29" fill="none" xmlns="http://www.w3.org/2000/svg">
<path fill-rule="evenodd" clip-rule="evenodd" d="M17.7689 13.2517H22C22 9.87003 19.9644 7.89453 16.5156 7.89453H7.48444C4.03556 7.89453 2 9.87003 2 13.2085V20.4981C2 23.8366 4.03556 25.8121 7.48444 25.8121H16.5156C19.9644 25.8121 22 23.8366 22 20.4981V20.1875H17.7689C15.8052 20.1875 14.2133 18.6426 14.2133 16.7368C14.2133 14.8311 15.8052 13.2862 17.7689 13.2862V13.2517ZM17.7689 14.7355H21.2533C21.6657 14.7355 22 15.0599 22 15.4601V17.9791C21.9952 18.3774 21.6637 18.6991 21.2533 18.7037H17.8489C16.8548 18.7167 15.9855 18.0561 15.76 17.1164C15.6471 16.5331 15.8056 15.9311 16.1931 15.4719C16.5805 15.0126 17.1573 14.7431 17.7689 14.7355ZM17.92 17.3838H18.2489C18.6711 17.3838 19.0133 17.0517 19.0133 16.642C19.0133 16.2322 18.6711 15.9001 18.2489 15.9001H17.92C17.7181 15.8978 17.5236 15.974 17.38 16.1118C17.2364 16.2495 17.1555 16.4374 17.1556 16.6333C17.1555 17.0445 17.4964 17.3791 17.92 17.3838ZM6.73778 13.2517H12.3822C12.8044 13.2517 13.1467 12.9195 13.1467 12.5098C13.1467 12.1001 12.8044 11.7679 12.3822 11.7679H6.73778C6.31903 11.7679 5.9782 12.0948 5.97333 12.5012C5.97331 12.9123 6.31415 13.247 6.73778 13.2517Z" fill="#A420FF"/>
<path d="M11.4045 1.19739L8.2431 4.62705C7.91718 4.97941 7.91718 5.55493 8.25396 5.90729C8.57988 6.25966 9.11222 6.25966 9.43814 5.90729L11.1655 4.02803L11.1655 8.89062L12.8386 8.89062L12.8386 4.02803L14.566 5.90729C14.8919 6.25966 15.4242 6.25966 15.7501 5.90729C15.9131 5.73111 16 5.49621 16 5.2613C16 5.03813 15.9131 4.80323 15.7501 4.62705L12.5887 1.19739C12.4366 1.02121 12.2193 0.927246 12.002 0.927246C11.7739 0.927246 11.5675 1.02121 11.4045 1.19739Z" fill="#A420FF"/>
</svg>
