<svg width="26" height="26" viewBox="0 0 26 26" fill="none" xmlns="http://www.w3.org/2000/svg">
<g clip-path="url(#clip0)">
<path d="M20.9841 17.5242C20.3324 18.5938 19.5008 19.488 18.4893 20.2067C17.4778 20.9255 16.4038 21.4228 15.2673 21.6987C14.1308 21.9746 12.9483 22.025 11.7198 21.85C10.4914 21.675 9.34237 21.2616 8.27278 20.6098C7.09349 19.8913 6.12393 18.9596 5.36409 17.815C4.60425 16.6703 4.1264 15.4178 3.93053 14.0574C3.92432 13.9596 3.94903 13.8689 4.00468 13.7853C4.06034 13.7016 4.1323 13.6491 4.22057 13.6277L6.49436 13.067C6.60052 13.047 6.70502 13.0684 6.80787 13.1311C6.90922 13.2116 6.963 13.3008 6.96921 13.3986C7.07283 14.355 7.3794 15.2328 7.88893 16.0322C8.39845 16.8316 9.06116 17.4798 9.87707 17.977C10.5901 18.4115 11.3552 18.6873 12.1723 18.8044C12.9895 18.9216 13.7787 18.8877 14.5401 18.7029C15.3014 18.5181 16.0183 18.1863 16.6908 17.7076C17.3633 17.2289 17.9168 16.633 18.3513 15.9199C18.7858 15.2069 19.0616 14.4418 19.1787 13.6246C19.2958 12.8075 19.262 12.0183 19.0772 11.2569C18.8924 10.4956 18.5606 9.77864 18.0819 9.10616C17.6032 8.43367 17.0073 7.88018 16.2942 7.44569C15.6223 7.03626 14.9036 6.76524 14.1383 6.63264C13.3729 6.50003 12.6123 6.51377 11.8567 6.67384L12.4008 8.95164C12.488 9.28684 12.3919 9.55263 12.1124 9.749C11.8287 9.95224 11.5429 9.96612 11.2549 9.79065L6.6475 6.98315C6.46923 6.87453 6.35465 6.71539 6.30376 6.50574C6.25287 6.29609 6.28174 6.10213 6.39036 5.92387L9.19786 1.31642C9.37333 1.02845 9.6337 0.909744 9.97897 0.9603C10.3174 1.00668 10.5247 1.19881 10.6009 1.53669L11.1294 3.67806C12.285 3.4326 13.4501 3.40683 14.6248 3.60076C15.7994 3.79468 16.8906 4.19871 17.8985 4.81285C18.9681 5.4646 19.8623 6.29621 20.581 7.3077C21.2998 8.31918 21.7971 9.39319 22.073 10.5297C22.3488 11.6662 22.3993 12.8487 22.2243 14.0772C22.0493 15.3056 21.6359 16.4546 20.9841 17.5242Z" fill="black" fill-opacity="0.74"/>
</g>
<defs>
<clipPath id="clip0">
<rect width="18.4986" height="18.4986" fill="white" transform="translate(10) rotate(31.3556)"/>
</clipPath>
</defs>
</svg>
