<svg width="24" height="25" viewBox="0 0 24 25" fill="none" xmlns="http://www.w3.org/2000/svg">
<path fill-rule="evenodd" clip-rule="evenodd" d="M17.7689 9.13571H22C22 5.7385 19.9644 3.75391 16.5156 3.75391H7.48444C4.03556 3.75391 2 5.7385 2 9.09238V16.4154C2 19.7693 4.03556 21.7539 7.48444 21.7539H16.5156C19.9644 21.7539 22 19.7693 22 16.4154V16.1034H17.7689C15.8052 16.1034 14.2133 14.5514 14.2133 12.6369C14.2133 10.7224 15.8052 9.17037 17.7689 9.17037V9.13571ZM17.7689 10.6263H21.2533C21.6657 10.6263 22 10.9522 22 11.3543V13.8849C21.9952 14.285 21.6637 14.6082 21.2533 14.6128H17.8489C16.8548 14.6259 15.9855 13.9623 15.76 13.0182C15.6471 12.4322 15.8056 11.8275 16.1931 11.3661C16.5805 10.9048 17.1573 10.634 17.7689 10.6263ZM17.92 13.2869H18.2489C18.6711 13.2869 19.0133 12.9532 19.0133 12.5416C19.0133 12.13 18.6711 11.7963 18.2489 11.7963H17.92C17.7181 11.794 17.5236 11.8705 17.38 12.0089C17.2364 12.1473 17.1555 12.336 17.1556 12.5329C17.1555 12.946 17.4964 13.2821 17.92 13.2869ZM6.73778 9.13571H12.3822C12.8044 9.13571 13.1467 8.80202 13.1467 8.3904C13.1467 7.97878 12.8044 7.6451 12.3822 7.6451H6.73778C6.31903 7.64507 5.9782 7.9735 5.97333 8.38173C5.97331 8.79478 6.31415 9.13096 6.73778 9.13571Z" fill="#00AEEF"/>
</svg>
