<svg width="16" height="18" viewBox="0 0 16 18" fill="none" xmlns="http://www.w3.org/2000/svg">
<path fill-rule="evenodd" clip-rule="evenodd" d="M13.6275 6.43898C13.6275 7.48414 13.9037 8.10018 14.5116 8.81008C14.9723 9.33308 15.1195 10.0044 15.1195 10.7328C15.1195 11.4603 14.8805 12.1509 14.4016 12.7116C13.7747 13.3838 12.8905 13.813 11.9882 13.8875C10.6806 13.999 9.37217 14.0929 8.04637 14.0929C6.71974 14.0929 5.41214 14.0367 4.10454 13.8875C3.20137 13.813 2.31723 13.3838 1.69114 12.7116C1.21226 12.1509 0.972412 11.4603 0.972412 10.7328C0.972412 10.0044 1.12046 9.33308 1.58031 8.81008C2.20723 8.10018 2.46528 7.48414 2.46528 6.43898V6.08445C2.46528 4.68475 2.8143 3.7695 3.53303 2.87353C4.60161 1.56687 6.31448 0.783203 8.00915 0.783203H8.08359C9.81465 0.783203 11.5829 1.60458 12.6333 2.9674C13.3148 3.84493 13.6275 4.72163 13.6275 6.08445V6.43898ZM5.61068 15.8135C5.61068 15.3944 5.99527 15.2025 6.35091 15.1203C6.76693 15.0323 9.30191 15.0323 9.71793 15.1203C10.0736 15.2025 10.4582 15.3944 10.4582 15.8135C10.4375 16.2124 10.2034 16.5661 9.88003 16.7907C9.46071 17.1176 8.9686 17.3246 8.45416 17.3992C8.16965 17.4361 7.8901 17.4369 7.61551 17.3992C7.10024 17.3246 6.60813 17.1176 6.18963 16.7899C5.86542 16.5661 5.63136 16.2124 5.61068 15.8135Z" fill="#243B80"/>
</svg>
