<svg width="20" height="17" viewBox="0 0 20 17" fill="none" xmlns="http://www.w3.org/2000/svg">
<path d="M2.5 1.75C2.5 0.784 3.284 0 4.25 0H6.75C7.716 0 8.5 0.784 8.5 1.75V4.25C8.5 4.71413 8.31563 5.15925 7.98744 5.48744C7.65925 5.81563 7.21413 6 6.75 6H4.25C3.78587 6 3.34075 5.81563 3.01256 5.48744C2.68437 5.15925 2.5 4.71413 2.5 4.25V1.75ZM13.25 0C12.7859 0 12.3408 0.184375 12.0126 0.512563C11.6844 0.840752 11.5 1.28587 11.5 1.75V4.25C11.5 5.216 12.284 6 13.25 6H15.75C16.2141 6 16.6592 5.81563 16.9874 5.48744C17.3156 5.15925 17.5 4.71413 17.5 4.25V1.75C17.5 1.28587 17.3156 0.840752 16.9874 0.512563C16.6592 0.184375 16.2141 0 15.75 0H13.25ZM13 1.75C13 1.6837 13.0263 1.62011 13.0732 1.57322C13.1201 1.52634 13.1837 1.5 13.25 1.5H15.75C15.8163 1.5 15.8799 1.52634 15.9268 1.57322C15.9737 1.62011 16 1.6837 16 1.75V4.25C16 4.3163 15.9737 4.37989 15.9268 4.42678C15.8799 4.47366 15.8163 4.5 15.75 4.5H13.25C13.1837 4.5 13.1201 4.47366 13.0732 4.42678C13.0263 4.37989 13 4.3163 13 4.25V1.75ZM0 12.5C0 11.3065 0.474106 10.1619 1.31802 9.31802C2.16193 8.47411 3.30653 8 4.5 8H15.5C16.6935 8 17.8381 8.47411 18.682 9.31802C19.5259 10.1619 20 11.3065 20 12.5C20 13.6935 19.5259 14.8381 18.682 15.682C17.8381 16.5259 16.6935 17 15.5 17H4.5C3.30653 17 2.16193 16.5259 1.31802 15.682C0.474106 14.8381 0 13.6935 0 12.5ZM6.5 12.5C6.5 12.303 6.4612 12.108 6.38582 11.926C6.31044 11.744 6.19995 11.5786 6.06066 11.4393C5.92137 11.3001 5.75601 11.1896 5.57403 11.1142C5.39204 11.0388 5.19698 11 5 11C4.80302 11 4.60796 11.0388 4.42597 11.1142C4.24399 11.1896 4.07863 11.3001 3.93934 11.4393C3.80005 11.5786 3.68956 11.744 3.61418 11.926C3.5388 12.108 3.5 12.303 3.5 12.5C3.5 12.8978 3.65804 13.2794 3.93934 13.5607C4.22064 13.842 4.60218 14 5 14C5.39782 14 5.77936 13.842 6.06066 13.5607C6.34196 13.2794 6.5 12.8978 6.5 12.5ZM11.5 12.5C11.5 12.1022 11.342 11.7206 11.0607 11.4393C10.7794 11.158 10.3978 11 10 11C9.60218 11 9.22064 11.158 8.93934 11.4393C8.65804 11.7206 8.5 12.1022 8.5 12.5C8.5 12.8978 8.65804 13.2794 8.93934 13.5607C9.22064 13.842 9.60218 14 10 14C10.3978 14 10.7794 13.842 11.0607 13.5607C11.342 13.2794 11.5 12.8978 11.5 12.5ZM15 14C15.3978 14 15.7794 13.842 16.0607 13.5607C16.342 13.2794 16.5 12.8978 16.5 12.5C16.5 12.1022 16.342 11.7206 16.0607 11.4393C15.7794 11.158 15.3978 11 15 11C14.6022 11 14.2206 11.158 13.9393 11.4393C13.658 11.7206 13.5 12.1022 13.5 12.5C13.5 12.8978 13.658 13.2794 13.9393 13.5607C14.2206 13.842 14.6022 14 15 14Z" fill="#243B80"/>
</svg>
