<svg width="22" height="24" viewBox="0 0 22 24" fill="none" xmlns="http://www.w3.org/2000/svg">
<g filter="url(#filter0_d)">
<path fill-rule="evenodd" clip-rule="evenodd" d="M11 0C10.31 0 9.15701 0.265 8.07201 0.56C6.96201 0.86 5.84301 1.215 5.18501 1.43C4.9099 1.52085 4.666 1.68747 4.48132 1.9107C4.29665 2.13394 4.17869 2.40474 4.14101 2.692C3.54501 7.169 4.92801 10.487 6.60601 12.682C7.31759 13.621 8.16603 14.4478 9.12301 15.135C9.50901 15.408 9.86701 15.617 10.171 15.76C10.451 15.892 10.752 16 11 16C11.248 16 11.548 15.892 11.829 15.76C12.1955 15.5819 12.5461 15.3728 12.877 15.135C13.834 14.4479 14.6824 13.621 15.394 12.682C17.072 10.487 18.455 7.169 17.859 2.692C17.8214 2.4046 17.7035 2.13364 17.5188 1.91023C17.3341 1.68683 17.0902 1.52003 16.815 1.429C15.8598 1.11581 14.8972 0.825729 13.928 0.559C12.843 0.266 11.69 0 11 0ZM11 5C11.3542 4.99947 11.6972 5.12433 11.9682 5.35246C12.2392 5.58059 12.4208 5.89727 12.4806 6.24641C12.5405 6.59555 12.4749 6.95462 12.2954 7.26002C12.116 7.56542 11.8342 7.79745 11.5 7.915L11.885 9.905C11.899 9.97738 11.8968 10.052 11.8786 10.1234C11.8605 10.1948 11.8267 10.2614 11.7798 10.3182C11.7328 10.3751 11.6739 10.4209 11.6072 10.4523C11.5405 10.4837 11.4677 10.5 11.394 10.5H10.606C10.5324 10.4999 10.4597 10.4835 10.3931 10.452C10.3265 10.4205 10.2677 10.3747 10.2209 10.3179C10.1741 10.261 10.1404 10.1945 10.1223 10.1232C10.1042 10.0518 10.102 9.9773 10.116 9.905L10.5 7.915C10.1658 7.79745 9.88406 7.56542 9.70457 7.26002C9.52508 6.95462 9.45947 6.59555 9.51936 6.24641C9.57925 5.89727 9.76077 5.58059 10.0318 5.35246C10.3028 5.12433 10.6458 4.99947 11 5Z" fill="#243B80"/>
</g>
<defs>
<filter id="filter0_d" x="0" y="0" width="22" height="24" filterUnits="userSpaceOnUse" color-interpolation-filters="sRGB">
<feFlood flood-opacity="0" result="BackgroundImageFix"/>
<feColorMatrix in="SourceAlpha" type="matrix" values="0 0 0 0 0 0 0 0 0 0 0 0 0 0 0 0 0 0 127 0"/>
<feOffset dy="4"/>
<feGaussianBlur stdDeviation="2"/>
<feColorMatrix type="matrix" values="0 0 0 0 0 0 0 0 0 0 0 0 0 0 0 0 0 0 0.25 0"/>
<feBlend mode="normal" in2="BackgroundImageFix" result="effect1_dropShadow"/>
<feBlend mode="normal" in="SourceGraphic" in2="effect1_dropShadow" result="shape"/>
</filter>
</defs>
</svg>
