<svg width="17" height="18" viewBox="0 0 17 18" fill="none" xmlns="http://www.w3.org/2000/svg">
<path d="M16.324 10.1783L13.51 8.55319L16.324 6.92809C16.7345 6.6886 16.8714 6.16685 16.6404 5.7563L14.9298 2.79689C14.8153 2.60066 14.6282 2.45742 14.4088 2.39819C14.1895 2.33896 13.9557 2.3685 13.758 2.48043L10.944 4.10553V0.855319C10.944 0.384894 10.5591 0 10.0887 0H6.6674C6.19698 0 5.81208 0.384894 5.81208 0.855319V4.10553L2.99808 2.48043C2.80039 2.3685 2.56657 2.33896 2.34725 2.39819C2.12793 2.45742 1.94077 2.60066 1.8263 2.79689L0.115658 5.7563C-0.123832 6.16685 0.0215728 6.6886 0.432126 6.92809L3.24613 8.55319L0.432126 10.1783C0.0215728 10.4178 -0.115278 10.9395 0.115658 11.3501L1.8263 14.3095C2.06579 14.72 2.58753 14.8569 2.99808 14.626L5.81208 13.0009V16.2511C5.81208 16.7215 6.19698 17.1064 6.6674 17.1064H10.0887C10.5591 17.1064 10.944 16.7215 10.944 16.2511V13.0009L13.758 14.626C14.1686 14.8654 14.6903 14.72 14.9298 14.3095L16.6404 11.3501C16.8799 10.9395 16.7345 10.4178 16.324 10.1783ZM13.8777 12.7186L9.87485 10.4092C9.59259 10.2382 9.23336 10.4434 9.23336 10.777V15.3957H7.52272V10.777C7.52272 10.452 7.16349 10.2382 6.88123 10.4092L2.87834 12.7186L2.02302 11.2389L6.02591 8.92953C6.30817 8.76702 6.30817 8.35647 6.02591 8.1854L2.02302 5.87604L2.87834 4.39634L6.88123 6.7057C7.16349 6.86821 7.52272 6.66294 7.52272 6.32936V1.71064H9.23336V6.32936C9.23336 6.65438 9.59259 6.86821 9.87485 6.69715L13.8777 4.38779L14.7331 5.86749L10.7302 8.17685C10.4479 8.33936 10.4479 8.74992 10.7302 8.92098L14.7331 11.2303L13.8777 12.7186Z" fill="#FB0F0F"/>
</svg>
