<svg width="21" height="21" viewBox="0 0 21 21" fill="none" xmlns="http://www.w3.org/2000/svg">
<path d="M19.2449 14.1133H1.2832V15.3963H19.2449V14.1133Z" fill="#ED442E"/>
<path d="M19.2449 16.6797H1.2832V17.9627H19.2449V16.6797Z" fill="#ED442E"/>
<path d="M15.3958 6.41602C15.142 6.41602 14.894 6.49126 14.683 6.63224C14.472 6.77321 14.3076 6.97359 14.2105 7.20802C14.1133 7.44245 14.0879 7.70042 14.1374 7.94929C14.1869 8.19816 14.3091 8.42677 14.4886 8.6062C14.668 8.78562 14.8966 8.90782 15.1455 8.95732C15.3943 9.00683 15.6523 8.98142 15.8867 8.88431C16.1212 8.78721 16.3216 8.62276 16.4625 8.41178C16.6035 8.20079 16.6788 7.95274 16.6788 7.69899C16.6788 7.35873 16.5436 7.0324 16.303 6.79179C16.0624 6.55119 15.736 6.41602 15.3958 6.41602Z" fill="#ED442E"/>
<path d="M10.2637 10.2647C9.75621 10.2647 9.26011 10.1142 8.83814 9.83229C8.41617 9.55034 8.08729 9.14959 7.89308 8.68072C7.69887 8.21185 7.64805 7.69593 7.74706 7.19818C7.84607 6.70043 8.09045 6.24322 8.44931 5.88437C8.80816 5.52551 9.26537 5.28113 9.76312 5.18212C10.2609 5.08311 10.7768 5.13392 11.2457 5.32814C11.7145 5.52235 12.1153 5.85123 12.3972 6.2732C12.6792 6.69517 12.8297 7.19127 12.8297 7.69877C12.8289 8.37907 12.5583 9.03129 12.0773 9.51233C11.5962 9.99338 10.944 10.264 10.2637 10.2647ZM10.2637 6.41579C10.01 6.41579 9.76191 6.49104 9.55093 6.63201C9.33994 6.77299 9.1755 6.97336 9.07839 7.2078C8.98129 7.44223 8.95588 7.7002 9.00539 7.94907C9.05489 8.19794 9.17708 8.42655 9.35651 8.60597C9.53594 8.7854 9.76454 8.90759 10.0134 8.9571C10.2623 9.0066 10.5203 8.9812 10.7547 8.88409C10.9891 8.78698 11.1895 8.62254 11.3305 8.41156C11.4714 8.20057 11.5467 7.95252 11.5467 7.69877C11.5464 7.35861 11.4111 7.03248 11.1705 6.79194C10.93 6.55141 10.6039 6.41613 10.2637 6.41579Z" fill="#ED442E"/>
<path d="M5.1321 6.41602C4.87835 6.41602 4.6303 6.49126 4.41932 6.63224C4.20833 6.77321 4.04389 6.97359 3.94678 7.20802C3.84968 7.44245 3.82427 7.70042 3.87377 7.94929C3.92328 8.19816 4.04547 8.42677 4.2249 8.6062C4.40433 8.78562 4.63293 8.90782 4.8818 8.95732C5.13068 9.00683 5.38864 8.98142 5.62308 8.88431C5.85751 8.78721 6.05788 8.62276 6.19886 8.41178C6.33983 8.20079 6.41508 7.95274 6.41508 7.69899C6.41508 7.35873 6.27991 7.0324 6.0393 6.79179C5.7987 6.55119 5.47237 6.41602 5.1321 6.41602Z" fill="#ED442E"/>
<path d="M17.9619 12.8302H2.56618C2.22618 12.8294 1.90035 12.6939 1.65993 12.4535C1.41951 12.2131 1.28407 11.8873 1.2832 11.5473V3.84939C1.28407 3.50938 1.41951 3.18355 1.65993 2.94314C1.90035 2.70272 2.22618 2.56727 2.56618 2.56641H17.9619C18.3019 2.56727 18.6278 2.70272 18.8682 2.94314C19.1086 3.18355 19.244 3.50938 19.2449 3.84939V11.5473C19.2444 11.8874 19.1091 12.2134 18.8686 12.454C18.6281 12.6945 18.3021 12.8298 17.9619 12.8302ZM17.9619 3.84939H2.56618V11.5473H17.9619V3.84939Z" fill="#ED442E"/>
</svg>
