<svg width="19" height="14" viewBox="0 0 19 14" fill="none" xmlns="http://www.w3.org/2000/svg">
<path d="M16.9222 0.046875L1.02412 2.7732H8.62257L15.8797 1.53L16.0991 2.7732H17.4026L16.9215 0.046875H16.9222ZM0.283203 3.41469V13.6785H18.2449V3.41469H0.283203ZM3.45088 4.69767H15.0779C15.0533 4.8029 15.0398 4.91039 15.0375 5.01842C15.0375 5.44375 15.2064 5.85167 15.5072 6.15242C15.8079 6.45318 16.2158 6.62214 16.6412 6.62214C16.7522 6.62214 16.8574 6.6029 16.9619 6.58173V10.5115C16.8567 10.4869 16.7492 10.4734 16.6412 10.4711C16.2158 10.4711 15.8079 10.64 15.5072 10.9408C15.2064 11.2416 15.0375 11.6495 15.0375 12.0748C15.0375 12.1858 15.0567 12.291 15.0779 12.3955H3.45088C3.47205 12.291 3.49065 12.1858 3.49065 12.0748C3.49065 11.8642 3.44917 11.6557 3.36857 11.4611C3.28798 11.2665 3.16985 11.0897 3.02093 10.9408C2.87201 10.7919 2.69522 10.6737 2.50064 10.5932C2.30607 10.5126 2.09753 10.4711 1.88693 10.4711C1.77595 10.4711 1.67074 10.4903 1.56618 10.5115V6.58237C1.67074 6.60354 1.77595 6.62214 1.88693 6.62214C2.09753 6.62214 2.30607 6.58066 2.50064 6.50007C2.69522 6.41947 2.87201 6.30134 3.02093 6.15242C3.16985 6.0035 3.28798 5.82671 3.36857 5.63214C3.44917 5.43756 3.49065 5.22902 3.49065 5.01842C3.49065 4.90744 3.47141 4.80224 3.45024 4.69767H3.45088ZM9.26405 5.33916C7.49996 5.33916 6.05661 6.78251 6.05661 8.54661C6.05661 10.3107 7.49996 11.7541 9.26405 11.7541C11.0282 11.7541 12.4715 10.3107 12.4715 8.54661C12.4715 6.78251 11.0282 5.33916 9.26405 5.33916ZM9.26405 6.62214C10.3353 6.62214 11.1885 7.47532 11.1885 8.54661C11.1885 9.6179 10.3353 10.4711 9.26405 10.4711C8.19277 10.4711 7.33959 9.6179 7.33959 8.54661C7.33959 7.47532 8.19277 6.62214 9.26405 6.62214Z" fill="#FFBF45"/>
</svg>
