<svg width="15" height="18" viewBox="0 0 15 18" fill="none" xmlns="http://www.w3.org/2000/svg">
<path fill-rule="evenodd" clip-rule="evenodd" d="M2.30908 6.69817H2.13203C1.67834 6.69817 1.24323 6.51794 0.922421 6.19714C0.601614 5.87633 0.421387 5.44122 0.421387 4.98753C0.421387 4.53384 0.601614 4.09874 0.922421 3.77793C1.24323 3.45712 1.67834 3.27689 2.13203 3.27689V2.42158C2.13203 1.96789 2.31225 1.53278 2.63306 1.21197C2.95387 0.891165 3.38897 0.710938 3.84266 0.710938H10.6852C11.1389 0.710938 11.574 0.891165 11.8948 1.21197C12.2156 1.53278 12.3959 1.96789 12.3959 2.42158V3.27689C12.8495 3.27689 13.2847 3.45712 13.6055 3.77793C13.9263 4.09874 14.1065 4.53384 14.1065 4.98753C14.1065 5.44122 13.9263 5.87633 13.6055 6.19714C13.2847 6.51794 12.8495 6.69817 12.3959 6.69817H12.2188C11.9591 7.61301 11.4284 8.42775 10.6966 9.0351C9.96485 9.64245 9.06629 10.0139 8.11926 10.1006V13.5407H8.97458C9.42827 13.5407 9.86337 13.721 10.1842 14.0418C10.505 14.3626 10.6852 14.7977 10.6852 15.2514V16.1067H11.5405C11.7674 16.1067 11.9849 16.1968 12.1453 16.3572C12.3057 16.5176 12.3959 16.7352 12.3959 16.962C12.3959 17.1888 12.3057 17.4064 12.1453 17.5668C11.9849 17.7272 11.7674 17.8173 11.5405 17.8173H2.98734C2.7605 17.8173 2.54295 17.7272 2.38254 17.5668C2.22214 17.4064 2.13203 17.1888 2.13203 16.962C2.13203 16.7352 2.22214 16.5176 2.38254 16.3572C2.54295 16.1968 2.7605 16.1067 2.98734 16.1067H3.84266V15.2514C3.84266 14.7977 4.02289 14.3626 4.3437 14.0418C4.66451 13.721 5.09961 13.5407 5.5533 13.5407H6.40862V10.1006C5.46159 10.0139 4.56303 9.64245 3.83124 9.0351C3.09946 8.42775 2.56878 7.61301 2.30908 6.69817ZM3.84266 2.42158V5.41519C3.84266 6.20915 4.15806 6.97059 4.71947 7.532C5.28089 8.09341 6.04232 8.40881 6.83628 8.40881H7.6916C8.48556 8.40881 9.24699 8.09341 9.80841 7.532C10.3698 6.97059 10.6852 6.20915 10.6852 5.41519V2.42158H3.84266Z" fill="#4300FF"/>
</svg>
