<svg width="21" height="21" viewBox="0 0 21 21" fill="none" xmlns="http://www.w3.org/2000/svg">
<path d="M10.5848 8.98111H12.83V7.69813H11.5471V7.05664H10.2641V7.7302C9.87433 7.80935 9.52789 8.03049 9.29201 8.35069C9.05613 8.6709 8.94765 9.06733 8.98762 9.46303C9.02758 9.85872 9.21316 10.2254 9.50831 10.492C9.80345 10.7586 10.1871 10.906 10.5848 10.9056H11.2263C11.3114 10.9056 11.393 10.9394 11.4531 10.9995C11.5133 11.0597 11.5471 11.1413 11.5471 11.2263C11.5471 11.3114 11.5133 11.393 11.4531 11.4531C11.393 11.5133 11.3114 11.5471 11.2263 11.5471H8.98111V12.83H10.2641V13.4715H11.5471V12.798C11.9368 12.7188 12.2833 12.4977 12.5191 12.1775C12.755 11.8573 12.8635 11.4608 12.8235 11.0651C12.7836 10.6695 12.598 10.3027 12.3028 10.0362C12.0077 9.76959 11.624 9.6222 11.2263 9.6226H10.5848C10.4998 9.6226 10.4182 9.58881 10.358 9.52865C10.2979 9.4685 10.2641 9.38692 10.2641 9.30185C10.2641 9.21679 10.2979 9.1352 10.358 9.07505C10.4182 9.0149 10.4998 8.98111 10.5848 8.98111Z" fill="#74C947"/>
<path d="M18.6034 8.33981H17.3076C17.2892 7.83299 17.1669 7.33534 16.9485 6.87765C16.73 6.41997 16.4199 6.01197 16.0375 5.67891V3.2079C16.0375 3.08876 16.0043 2.97198 15.9417 2.87064C15.879 2.76931 15.7894 2.68741 15.6829 2.63413C15.5763 2.58085 15.457 2.5583 15.3384 2.569C15.2197 2.5797 15.1064 2.62322 15.0111 2.6947L12.6164 4.49087H9.62257C6.08796 4.49087 3.55215 6.56994 3.24103 9.62279H3.20767C3.03754 9.62279 2.87437 9.5552 2.75407 9.4349C2.63377 9.3146 2.56618 9.15143 2.56618 8.9813V7.69832H1.2832V8.9813C1.28371 9.49154 1.48663 9.98074 1.84743 10.3415C2.20823 10.7023 2.69743 10.9053 3.20767 10.9058H3.25258C3.34561 11.7469 3.61898 12.5581 4.05405 13.284C4.48913 14.0099 5.07566 14.6334 5.77363 15.112V17.3207C5.77363 17.4908 5.84121 17.654 5.96152 17.7743C6.08182 17.8946 6.24498 17.9622 6.41512 17.9622H8.98108C9.15121 17.9622 9.31437 17.8946 9.43468 17.7743C9.55498 17.654 9.62257 17.4908 9.62257 17.3207V16.0377H11.547V17.3207C11.547 17.4908 11.6146 17.654 11.7349 17.7743C11.8552 17.8946 12.0184 17.9622 12.1885 17.9622H14.7545C14.9246 17.9622 15.0878 17.8946 15.2081 17.7743C15.3284 17.654 15.396 17.4908 15.396 17.3207V15.1633C15.8593 14.9437 16.2645 14.618 16.5787 14.2127C16.8928 13.8073 17.1072 13.3338 17.2043 12.8302H18.6034C18.7736 12.8302 18.9367 12.7627 19.057 12.6423C19.1773 12.522 19.2449 12.3589 19.2449 12.1887V8.9813C19.2449 8.81117 19.1773 8.648 19.057 8.5277C18.9367 8.4074 18.7736 8.33981 18.6034 8.33981ZM17.9619 11.5473H16.117C15.9213 13.3133 15.5884 13.7828 14.113 14.3153V16.6792H12.83V14.7547H8.33959V16.6792H7.05661V14.3557C6.28419 13.9882 5.63255 13.4081 5.17807 12.6835C4.7236 11.9588 4.48514 11.1196 4.49065 10.2643C4.49065 7.16268 7.06815 5.77385 9.62257 5.77385H13.0436L14.7545 4.49087V6.27165C16.3056 7.46482 15.9816 8.31543 16.049 9.62279H17.9619V11.5473Z" fill="#74C947"/>
</svg>
